<svg xmlns="http://www.w3.org/2000/svg" xmlns:xlink="http://www.w3.org/1999/xlink" width="500" zoomAndPan="magnify" viewBox="0 0 375 374.999991" height="500" preserveAspectRatio="xMidYMid meet" version="1.0"><defs><g/><clipPath id="d765c68663"><path d="M 19 218 L 78 218 L 78 221.371094 L 19 221.371094 Z M 19 218 " clip-rule="nonzero"/></clipPath><clipPath id="3f1bcd629b"><path d="M 44 153.871094 L 52 153.871094 L 52 164 L 44 164 Z M 44 153.871094 " clip-rule="nonzero"/></clipPath><clipPath id="ad0e0ba611"><path d="M 14.53125 163 L 46 163 L 46 203 L 14.53125 203 Z M 14.53125 163 " clip-rule="nonzero"/></clipPath><clipPath id="26e188b4fe"><path d="M 10.285156 149.625 L 86.035156 149.625 L 86.035156 225.375 L 10.285156 225.375 Z M 10.285156 149.625 " clip-rule="nonzero"/></clipPath><clipPath id="04127fb239"><path d="M 290.464844 149.625 L 366.214844 149.625 L 366.214844 225.375 L 290.464844 225.375 Z M 290.464844 149.625 " clip-rule="nonzero"/></clipPath><clipPath id="2ae5e35021"><path d="M 321 153.871094 L 329 153.871094 L 329 162 L 321 162 Z M 321 153.871094 " clip-rule="nonzero"/></clipPath><clipPath id="57b652ae75"><path d="M 354 176 L 361.882812 176 L 361.882812 185 L 354 185 Z M 354 176 " clip-rule="nonzero"/></clipPath><clipPath id="b515a811a1"><path d="M 354 191 L 361.882812 191 L 361.882812 199 L 354 199 Z M 354 191 " clip-rule="nonzero"/></clipPath><clipPath id="1acbb6c5ea"><path d="M 321 214 L 329 214 L 329 221.371094 L 321 221.371094 Z M 321 214 " clip-rule="nonzero"/></clipPath><clipPath id="aa7155688d"><path d="M 295.132812 176 L 303 176 L 303 185 L 295.132812 185 Z M 295.132812 176 " clip-rule="nonzero"/></clipPath><clipPath id="cce0994c12"><path d="M 295.132812 191 L 303 191 L 303 199 L 295.132812 199 Z M 295.132812 191 " clip-rule="nonzero"/></clipPath></defs><rect x="-37.5" width="450" fill="#ffffff" y="-37.499999" height="449.999989" fill-opacity="1"/><rect x="-37.5" width="450" fill="#ffffff" y="-37.499999" height="449.999989" fill-opacity="1"/><g clip-path="url(#d765c68663)"><path fill="#000000" d="M 74.765625 218.375 L 21.792969 218.375 C 20.75 218.375 19.816406 219.078125 19.523438 220.078125 L 19.148438 221.371094 L 77.410156 221.371094 L 77.035156 220.078125 C 76.742188 219.078125 75.808594 218.375 74.765625 218.375 Z M 74.765625 218.375 " fill-opacity="1" fill-rule="nonzero"/></g><path fill="#000000" d="M 46.503906 164.171875 L 50.054688 164.171875 L 50.054688 166.03125 L 46.503906 166.03125 Z M 46.503906 164.171875 " fill-opacity="1" fill-rule="nonzero"/><g clip-path="url(#3f1bcd629b)"><path fill="#000000" d="M 50.363281 163.0625 C 51.246094 162.09375 51.773438 160.59375 51.773438 158.984375 C 51.773438 156.164062 50.207031 153.871094 48.277344 153.871094 C 46.351562 153.871094 44.785156 156.164062 44.785156 158.984375 C 44.785156 160.589844 45.3125 162.09375 46.195312 163.0625 Z M 50.363281 163.0625 " fill-opacity="1" fill-rule="nonzero"/></g><path fill="#000000" d="M 46.503906 167.136719 L 50.054688 167.136719 L 50.054688 209.9375 L 46.503906 209.9375 Z M 46.503906 167.136719 " fill-opacity="1" fill-rule="nonzero"/><path fill="#000000" d="M 33.597656 214.289062 C 32.574219 214.289062 31.65625 214.980469 31.367188 215.964844 L 30.988281 217.269531 L 65.570312 217.269531 L 65.191406 215.964844 C 64.902344 214.976562 63.984375 214.289062 62.960938 214.289062 Z M 33.597656 214.289062 " fill-opacity="1" fill-rule="nonzero"/><path fill="#000000" d="M 45.949219 211.042969 L 39.726562 211.042969 L 39.726562 213.183594 L 56.828125 213.183594 L 56.828125 211.042969 Z M 45.949219 211.042969 " fill-opacity="1" fill-rule="nonzero"/><g clip-path="url(#ad0e0ba611)"><path fill="#000000" d="M 38.15625 195.242188 L 35.460938 195.242188 L 29.582031 172.234375 C 30.070312 172.316406 30.554688 172.367188 31.03125 172.367188 C 33.277344 172.367188 35.007812 171.699219 36.683594 171.050781 C 38.011719 170.535156 39.269531 170.046875 40.609375 170.003906 C 42.578125 169.9375 44.367188 170.8125 45.394531 171.441406 L 45.394531 166.964844 C 44.574219 166.6875 42.105469 165.949219 39.898438 166.328125 C 38.746094 166.527344 37.632812 167.125 36.449219 167.757812 C 34.800781 168.644531 33.097656 169.558594 31.03125 169.558594 C 28.640625 169.558594 27.320312 168.722656 26.667969 168.117188 C 26.445312 168.367188 26.183594 168.59375 25.878906 168.765625 C 25.613281 168.917969 25.277344 168.824219 25.125 168.558594 C 24.972656 168.296875 25.066406 167.957031 25.332031 167.804688 C 25.96875 167.441406 26.363281 166.757812 26.363281 166.023438 C 26.363281 164.890625 25.445312 163.96875 24.3125 163.96875 C 23.179688 163.96875 22.261719 164.890625 22.261719 166.023438 C 22.261719 167.109375 22.890625 168.253906 23.890625 169.265625 L 17.253906 195.242188 L 14.558594 195.242188 C 14.992188 199.269531 20.117188 202.460938 26.359375 202.460938 C 32.597656 202.460938 37.726562 199.269531 38.15625 195.242188 Z M 34.3125 195.242188 L 26.910156 195.242188 L 26.910156 171.363281 C 27.378906 171.585938 27.863281 171.773438 28.359375 171.929688 Z M 25.804688 170.769531 L 25.804688 195.242188 L 18.402344 195.242188 L 24.828125 170.089844 C 25.136719 170.328125 25.460938 170.558594 25.804688 170.769531 Z M 25.804688 170.769531 " fill-opacity="1" fill-rule="nonzero"/></g><path fill="#000000" d="M 79.304688 195.242188 L 72.667969 169.265625 C 73.664062 168.253906 74.296875 167.109375 74.296875 166.023438 C 74.296875 164.890625 73.378906 163.96875 72.246094 163.96875 C 71.113281 163.96875 70.195312 164.890625 70.195312 166.023438 C 70.195312 166.757812 70.589844 167.441406 71.226562 167.804688 C 71.492188 167.957031 71.585938 168.296875 71.433594 168.5625 C 71.28125 168.824219 70.941406 168.917969 70.679688 168.765625 C 70.375 168.59375 70.113281 168.371094 69.890625 168.117188 C 69.238281 168.722656 67.914062 169.558594 65.527344 169.558594 C 63.460938 169.558594 61.757812 168.644531 60.109375 167.757812 C 58.925781 167.125 57.8125 166.527344 56.660156 166.328125 C 54.453125 165.949219 51.984375 166.6875 51.164062 166.964844 L 51.164062 171.445312 C 52.191406 170.816406 53.980469 169.945312 55.949219 170.003906 C 57.289062 170.046875 58.546875 170.535156 59.875 171.050781 C 61.550781 171.699219 63.28125 172.367188 65.527344 172.367188 C 66.003906 172.367188 66.488281 172.316406 66.972656 172.234375 L 61.097656 195.242188 L 58.402344 195.242188 C 58.835938 199.269531 63.960938 202.460938 70.199219 202.460938 C 76.4375 202.460938 81.566406 199.269531 82 195.242188 Z M 71.730469 170.089844 L 78.15625 195.242188 L 70.753906 195.242188 L 70.753906 170.769531 C 71.097656 170.558594 71.421875 170.328125 71.730469 170.089844 Z M 69.648438 171.363281 L 69.648438 195.242188 L 62.246094 195.242188 L 68.199219 171.929688 C 68.695312 171.773438 69.179688 171.585938 69.648438 171.363281 Z M 69.648438 171.363281 " fill-opacity="1" fill-rule="nonzero"/><g clip-path="url(#26e188b4fe)"><path fill="#000000" d="M 86.035156 225.375 L 10.285156 225.375 L 10.285156 149.625 L 86.035156 149.625 Z M 10.765625 224.894531 L 85.550781 224.894531 L 85.550781 150.105469 L 10.765625 150.105469 Z M 10.765625 224.894531 " fill-opacity="1" fill-rule="nonzero"/></g><path stroke-linecap="butt" transform="matrix(0, -0.75, 0.75, 0, 96.718217, 224.968315)" fill="none" stroke-linejoin="miter" d="M -0.000580231 1.00071 L 100.999426 1.00071 " stroke="#a6a6a6" stroke-width="2" stroke-opacity="1" stroke-miterlimit="4"/><g clip-path="url(#04127fb239)"><path fill="#000000" d="M 366.214844 225.375 L 290.464844 225.375 L 290.464844 149.625 L 366.214844 149.625 Z M 290.945312 224.894531 L 365.734375 224.894531 L 365.734375 150.105469 L 290.945312 150.105469 Z M 290.945312 224.894531 " fill-opacity="1" fill-rule="nonzero"/></g><path stroke-linecap="butt" transform="matrix(0, -0.75, 0.75, 0, 280.714733, 224.968315)" fill="none" stroke-linejoin="miter" d="M -0.000580231 1.000147 L 100.999426 1.000147 " stroke="#a6a6a6" stroke-width="2" stroke-opacity="1" stroke-miterlimit="4"/><path fill="#000000" d="M 339.457031 200.613281 L 317.519531 200.613281 C 315.261719 200.613281 313.402344 198.753906 313.402344 196.5 L 313.402344 178.746094 C 313.402344 176.449219 315.261719 174.59375 317.519531 174.59375 L 339.457031 174.59375 C 341.753906 174.59375 343.617188 176.449219 343.617188 178.746094 L 343.617188 196.5 C 343.617188 198.753906 341.753906 200.613281 339.457031 200.613281 Z M 318.269531 192.386719 C 318.191406 192.386719 318.113281 192.386719 318.035156 192.347656 C 317.675781 192.230469 317.519531 191.832031 317.675781 191.476562 L 319.101562 187.917969 L 319.101562 187.878906 L 321.675781 181.472656 C 321.675781 181.472656 321.675781 181.433594 321.675781 181.433594 C 321.714844 181.355469 321.757812 181.273438 321.835938 181.234375 C 321.875 181.15625 321.953125 181.117188 322.035156 181.078125 C 322.035156 181.078125 322.035156 181.078125 322.074219 181.078125 C 322.152344 181.039062 322.191406 181.039062 322.269531 181.039062 C 322.351562 181.039062 322.429688 181.039062 322.507812 181.078125 C 322.507812 181.078125 322.546875 181.078125 322.546875 181.078125 C 322.628906 181.117188 322.707031 181.15625 322.746094 181.234375 C 322.824219 181.273438 322.863281 181.355469 322.90625 181.433594 C 322.90625 181.433594 322.90625 181.472656 322.90625 181.472656 L 325.480469 187.878906 L 325.480469 187.917969 L 326.902344 191.476562 C 327.023438 191.832031 326.863281 192.230469 326.546875 192.347656 C 326.191406 192.464844 325.796875 192.308594 325.675781 191.992188 L 324.410156 188.828125 L 320.171875 188.828125 L 318.90625 191.992188 C 318.785156 192.230469 318.546875 192.386719 318.269531 192.386719 Z M 333.359375 192.425781 L 329.835938 192.425781 C 329.476562 192.425781 329.199219 192.148438 329.199219 191.792969 C 329.199219 191.398438 329.476562 191.121094 329.835938 191.121094 L 332.6875 191.121094 L 332.6875 182.304688 L 329.835938 182.304688 C 329.476562 182.304688 329.199219 182.027344 329.199219 181.671875 C 329.199219 181.273438 329.476562 181 329.835938 181 L 336.84375 181 C 337.199219 181 337.515625 181.273438 337.515625 181.671875 C 337.515625 182.027344 337.199219 182.304688 336.84375 182.304688 L 333.992188 182.304688 L 333.992188 191.121094 L 336.84375 191.121094 C 337.199219 191.121094 337.515625 191.398438 337.515625 191.792969 C 337.515625 192.148438 337.199219 192.425781 336.84375 192.425781 Z M 323.894531 187.484375 L 322.269531 183.488281 L 320.6875 187.484375 Z M 323.894531 187.484375 " fill-opacity="1" fill-rule="evenodd"/><path fill="#000000" d="M 325.003906 175.9375 C 324.648438 175.9375 324.332031 175.621094 324.332031 175.265625 L 324.332031 160.355469 C 324.332031 160 324.648438 159.683594 325.003906 159.683594 C 325.359375 159.683594 325.636719 160 325.636719 160.355469 L 325.636719 175.265625 C 325.636719 175.621094 325.359375 175.9375 325.003906 175.9375 Z M 325.003906 175.9375 " fill-opacity="1" fill-rule="evenodd"/><g clip-path="url(#2ae5e35021)"><path fill="#000000" d="M 325.003906 161.03125 C 323.023438 161.03125 321.398438 159.40625 321.398438 157.429688 C 321.398438 155.492188 323.023438 153.871094 325.003906 153.871094 C 326.984375 153.871094 328.566406 155.492188 328.566406 157.429688 C 328.566406 159.40625 326.984375 161.03125 325.003906 161.03125 Z M 325.003906 161.03125 " fill-opacity="1" fill-rule="evenodd"/></g><path fill="#000000" d="M 332.011719 175.9375 C 331.65625 175.9375 331.339844 175.621094 331.339844 175.265625 L 331.339844 169.097656 C 331.339844 168.738281 331.65625 168.425781 332.011719 168.425781 C 332.371094 168.425781 332.6875 168.738281 332.6875 169.097656 L 332.6875 175.265625 C 332.6875 175.621094 332.371094 175.9375 332.011719 175.9375 Z M 332.011719 175.9375 " fill-opacity="1" fill-rule="evenodd"/><path fill="#000000" d="M 332.011719 169.769531 C 330.03125 169.769531 328.449219 168.148438 328.449219 166.167969 C 328.449219 164.230469 330.03125 162.609375 332.011719 162.609375 C 333.992188 162.609375 335.578125 164.230469 335.578125 166.167969 C 335.578125 168.148438 333.992188 169.769531 332.011719 169.769531 Z M 332.011719 169.769531 " fill-opacity="1" fill-rule="evenodd"/><path fill="#000000" d="M 339.023438 175.9375 C 338.664062 175.9375 338.347656 175.621094 338.347656 175.265625 L 338.347656 165.617188 C 338.347656 163.679688 339.933594 162.097656 341.875 162.097656 L 346.070312 162.097656 C 346.425781 162.097656 346.742188 162.414062 346.742188 162.769531 C 346.742188 163.125 346.425781 163.441406 346.070312 163.441406 L 341.875 163.441406 C 340.683594 163.441406 339.695312 164.390625 339.695312 165.617188 L 339.695312 175.265625 C 339.695312 175.621094 339.378906 175.9375 339.023438 175.9375 Z M 339.023438 175.9375 " fill-opacity="1" fill-rule="evenodd"/><path fill="#000000" d="M 349 166.328125 C 347.019531 166.328125 345.398438 164.746094 345.398438 162.769531 C 345.398438 160.792969 347.019531 159.210938 349 159.210938 C 350.980469 159.210938 352.566406 160.792969 352.566406 162.769531 C 352.566406 164.746094 350.980469 166.328125 349 166.328125 Z M 349 166.328125 " fill-opacity="1" fill-rule="evenodd"/><path fill="#000000" d="M 317.996094 175.9375 C 317.597656 175.9375 317.320312 175.621094 317.320312 175.265625 L 317.320312 165.617188 C 317.320312 164.390625 316.332031 163.441406 315.144531 163.441406 L 310.945312 163.441406 C 310.550781 163.441406 310.273438 163.125 310.273438 162.769531 C 310.273438 162.414062 310.550781 162.097656 310.945312 162.097656 L 315.144531 162.097656 C 317.082031 162.097656 318.628906 163.679688 318.628906 165.617188 L 318.628906 175.265625 C 318.628906 175.621094 318.351562 175.9375 317.996094 175.9375 Z M 317.996094 175.9375 " fill-opacity="1" fill-rule="evenodd"/><path fill="#000000" d="M 308.015625 166.328125 C 306.035156 166.328125 304.449219 164.746094 304.449219 162.769531 C 304.449219 160.792969 306.035156 159.210938 308.015625 159.210938 C 309.996094 159.210938 311.578125 160.792969 311.578125 162.769531 C 311.578125 164.746094 309.996094 166.328125 308.015625 166.328125 Z M 308.015625 166.328125 " fill-opacity="1" fill-rule="evenodd"/><path fill="#000000" d="M 355.378906 181.117188 L 342.941406 181.117188 C 342.585938 181.117188 342.269531 180.800781 342.269531 180.445312 C 342.269531 180.089844 342.585938 179.8125 342.941406 179.8125 L 355.378906 179.8125 C 355.734375 179.8125 356.011719 180.089844 356.011719 180.445312 C 356.011719 180.800781 355.734375 181.117188 355.378906 181.117188 Z M 355.378906 181.117188 " fill-opacity="1" fill-rule="evenodd"/><g clip-path="url(#57b652ae75)"><path fill="#000000" d="M 358.269531 184.042969 C 356.328125 184.042969 354.703125 182.421875 354.703125 180.445312 C 354.703125 178.46875 356.328125 176.886719 358.269531 176.886719 C 360.246094 176.886719 361.871094 178.46875 361.871094 180.445312 C 361.871094 182.421875 360.246094 184.042969 358.269531 184.042969 Z M 358.269531 184.042969 " fill-opacity="1" fill-rule="evenodd"/></g><path fill="#000000" d="M 346.664062 188.273438 L 342.941406 188.273438 C 342.585938 188.273438 342.269531 187.996094 342.269531 187.601562 C 342.269531 187.246094 342.585938 186.96875 342.941406 186.96875 L 346.664062 186.96875 C 347.019531 186.96875 347.296875 187.246094 347.296875 187.601562 C 347.296875 187.996094 347.019531 188.273438 346.664062 188.273438 Z M 346.664062 188.273438 " fill-opacity="1" fill-rule="evenodd"/><path fill="#000000" d="M 349.554688 191.199219 C 347.617188 191.199219 345.992188 189.578125 345.992188 187.601562 C 345.992188 185.664062 347.617188 184.042969 349.554688 184.042969 C 351.535156 184.042969 353.160156 185.664062 353.160156 187.601562 C 353.160156 189.578125 351.535156 191.199219 349.554688 191.199219 Z M 349.554688 191.199219 " fill-opacity="1" fill-rule="evenodd"/><path fill="#000000" d="M 355.378906 195.390625 L 342.941406 195.390625 C 342.585938 195.390625 342.269531 195.117188 342.269531 194.71875 C 342.269531 194.363281 342.585938 194.085938 342.941406 194.085938 L 355.378906 194.085938 C 355.734375 194.085938 356.011719 194.363281 356.011719 194.71875 C 356.011719 195.117188 355.734375 195.390625 355.378906 195.390625 Z M 355.378906 195.390625 " fill-opacity="1" fill-rule="evenodd"/><g clip-path="url(#b515a811a1)"><path fill="#000000" d="M 358.269531 198.320312 C 356.328125 198.320312 354.703125 196.695312 354.703125 194.71875 C 354.703125 192.78125 356.328125 191.160156 358.269531 191.160156 C 360.246094 191.160156 361.871094 192.78125 361.871094 194.71875 C 361.871094 196.695312 360.246094 198.320312 358.269531 198.320312 Z M 358.269531 198.320312 " fill-opacity="1" fill-rule="evenodd"/></g><path fill="#000000" d="M 325.003906 215.519531 C 324.648438 215.519531 324.332031 215.242188 324.332031 214.886719 L 324.332031 199.980469 C 324.332031 199.582031 324.648438 199.308594 325.003906 199.308594 C 325.359375 199.308594 325.636719 199.582031 325.636719 199.980469 L 325.636719 214.886719 C 325.636719 215.242188 325.359375 215.519531 325.003906 215.519531 Z M 325.003906 215.519531 " fill-opacity="1" fill-rule="evenodd"/><g clip-path="url(#1acbb6c5ea)"><path fill="#000000" d="M 325.003906 221.371094 C 323.023438 221.371094 321.398438 219.75 321.398438 217.773438 C 321.398438 215.796875 323.023438 214.214844 325.003906 214.214844 C 326.984375 214.214844 328.566406 215.796875 328.566406 217.773438 C 328.566406 219.75 326.984375 221.371094 325.003906 221.371094 Z M 325.003906 221.371094 " fill-opacity="1" fill-rule="evenodd"/></g><path fill="#000000" d="M 332.011719 206.78125 C 331.65625 206.78125 331.339844 206.503906 331.339844 206.148438 L 331.339844 199.980469 C 331.339844 199.582031 331.65625 199.308594 332.011719 199.308594 C 332.371094 199.308594 332.6875 199.582031 332.6875 199.980469 L 332.6875 206.148438 C 332.6875 206.503906 332.371094 206.78125 332.011719 206.78125 Z M 332.011719 206.78125 " fill-opacity="1" fill-rule="evenodd"/><path fill="#000000" d="M 332.011719 212.632812 C 330.03125 212.632812 328.449219 211.011719 328.449219 209.035156 C 328.449219 207.058594 330.03125 205.476562 332.011719 205.476562 C 333.992188 205.476562 335.578125 207.058594 335.578125 209.035156 C 335.578125 211.011719 333.992188 212.632812 332.011719 212.632812 Z M 332.011719 212.632812 " fill-opacity="1" fill-rule="evenodd"/><path fill="#000000" d="M 346.070312 213.109375 L 341.875 213.109375 C 339.933594 213.109375 338.347656 211.566406 338.347656 209.628906 L 338.347656 199.980469 C 338.347656 199.582031 338.664062 199.308594 339.023438 199.308594 C 339.378906 199.308594 339.695312 199.582031 339.695312 199.980469 L 339.695312 209.628906 C 339.695312 210.8125 340.683594 211.800781 341.875 211.800781 L 346.070312 211.800781 C 346.425781 211.800781 346.742188 212.078125 346.742188 212.476562 C 346.742188 212.832031 346.425781 213.109375 346.070312 213.109375 Z M 346.070312 213.109375 " fill-opacity="1" fill-rule="evenodd"/><path fill="#000000" d="M 349 216.035156 C 347.019531 216.035156 345.398438 214.414062 345.398438 212.476562 C 345.398438 210.496094 347.019531 208.875 349 208.875 C 350.980469 208.875 352.566406 210.496094 352.566406 212.476562 C 352.566406 214.414062 350.980469 216.035156 349 216.035156 Z M 349 216.035156 " fill-opacity="1" fill-rule="evenodd"/><path fill="#000000" d="M 315.144531 213.109375 L 310.945312 213.109375 C 310.550781 213.109375 310.273438 212.832031 310.273438 212.476562 C 310.273438 212.078125 310.550781 211.800781 310.945312 211.800781 L 315.144531 211.800781 C 316.332031 211.800781 317.320312 210.8125 317.320312 209.628906 L 317.320312 199.980469 C 317.320312 199.582031 317.597656 199.308594 317.996094 199.308594 C 318.351562 199.308594 318.628906 199.582031 318.628906 199.980469 L 318.628906 209.628906 C 318.628906 211.566406 317.082031 213.109375 315.144531 213.109375 Z M 315.144531 213.109375 " fill-opacity="1" fill-rule="evenodd"/><path fill="#000000" d="M 308.015625 216.035156 C 306.035156 216.035156 304.449219 214.414062 304.449219 212.476562 C 304.449219 210.496094 306.035156 208.875 308.015625 208.875 C 309.996094 208.875 311.578125 210.496094 311.578125 212.476562 C 311.578125 214.414062 309.996094 216.035156 308.015625 216.035156 Z M 308.015625 216.035156 " fill-opacity="1" fill-rule="evenodd"/><path fill="#000000" d="M 314.074219 181.117188 L 301.640625 181.117188 C 301.28125 181.117188 300.964844 180.839844 300.964844 180.484375 C 300.964844 180.089844 301.28125 179.8125 301.640625 179.8125 L 314.074219 179.8125 C 314.429688 179.8125 314.707031 180.089844 314.707031 180.484375 C 314.707031 180.839844 314.429688 181.117188 314.074219 181.117188 Z M 314.074219 181.117188 " fill-opacity="1" fill-rule="evenodd"/><g clip-path="url(#aa7155688d)"><path fill="#000000" d="M 298.707031 184.042969 C 296.769531 184.042969 295.144531 182.460938 295.144531 180.484375 C 295.144531 178.507812 296.769531 176.886719 298.707031 176.886719 C 300.6875 176.886719 302.3125 178.507812 302.3125 180.484375 C 302.3125 182.460938 300.6875 184.042969 298.707031 184.042969 Z M 298.707031 184.042969 " fill-opacity="1" fill-rule="evenodd"/></g><path fill="#000000" d="M 314.074219 188.273438 L 310.351562 188.273438 C 309.996094 188.273438 309.679688 187.996094 309.679688 187.640625 C 309.679688 187.285156 309.996094 186.96875 310.351562 186.96875 L 314.074219 186.96875 C 314.429688 186.96875 314.707031 187.285156 314.707031 187.640625 C 314.707031 187.996094 314.429688 188.273438 314.074219 188.273438 Z M 314.074219 188.273438 " fill-opacity="1" fill-rule="evenodd"/><path fill="#000000" d="M 307.421875 191.199219 C 305.441406 191.199219 303.855469 189.617188 303.855469 187.640625 C 303.855469 185.664062 305.441406 184.042969 307.421875 184.042969 C 309.402344 184.042969 311.023438 185.664062 311.023438 187.640625 C 311.023438 189.617188 309.402344 191.199219 307.421875 191.199219 Z M 307.421875 191.199219 " fill-opacity="1" fill-rule="evenodd"/><path fill="#000000" d="M 314.074219 195.433594 L 301.640625 195.433594 C 301.28125 195.433594 300.964844 195.117188 300.964844 194.757812 C 300.964844 194.402344 301.28125 194.085938 301.640625 194.085938 L 314.074219 194.085938 C 314.429688 194.085938 314.707031 194.402344 314.707031 194.757812 C 314.707031 195.117188 314.429688 195.433594 314.074219 195.433594 Z M 314.074219 195.433594 " fill-opacity="1" fill-rule="evenodd"/><g clip-path="url(#cce0994c12)"><path fill="#000000" d="M 298.707031 198.320312 C 296.769531 198.320312 295.144531 196.738281 295.144531 194.757812 C 295.144531 192.78125 296.769531 191.199219 298.707031 191.199219 C 300.6875 191.199219 302.3125 192.78125 302.3125 194.757812 C 302.3125 196.738281 300.6875 198.320312 298.707031 198.320312 Z M 298.707031 198.320312 " fill-opacity="1" fill-rule="evenodd"/></g><g fill="#000000" fill-opacity="1"><g transform="translate(110.162701, 175.256755)"><g><path d="M 21.828125 -0.296875 L 22.09375 -0.296875 L 22.09375 0 L 12.65625 0 L 12.65625 -0.296875 L 12.921875 -0.296875 C 13.359375 -0.296875 13.679688 -0.425781 13.890625 -0.6875 C 14.097656 -0.957031 14.203125 -1.207031 14.203125 -1.4375 C 14.203125 -1.675781 14.148438 -1.914062 14.046875 -2.15625 L 12.609375 -5.796875 L 5.6875 -5.796875 L 4.140625 -2.15625 C 4.046875 -1.90625 4 -1.664062 4 -1.4375 C 4 -1.207031 4.101562 -0.957031 4.3125 -0.6875 C 4.53125 -0.425781 4.859375 -0.296875 5.296875 -0.296875 L 5.53125 -0.296875 L 5.53125 0 L -0.796875 0 L -0.796875 -0.296875 L -0.53125 -0.296875 C -0.0703125 -0.296875 0.378906 -0.429688 0.828125 -0.703125 C 1.285156 -0.984375 1.660156 -1.398438 1.953125 -1.953125 L 8.78125 -17.421875 C 9.707031 -19.367188 10.203125 -20.660156 10.265625 -21.296875 L 10.53125 -21.296875 L 19.3125 -2.015625 C 19.613281 -1.441406 19.988281 -1.007812 20.4375 -0.71875 C 20.894531 -0.4375 21.359375 -0.296875 21.828125 -0.296875 Z M 6.1875 -7.046875 L 12.09375 -7.046875 L 9.234375 -14.3125 Z M 6.1875 -7.046875 "/></g></g></g><g fill="#000000" fill-opacity="1"><g transform="translate(131.335522, 175.256755)"><g><path d="M 1.484375 -2.75 C 1.484375 -4.164062 1.785156 -5.378906 2.390625 -6.390625 L 2.65625 -6.390625 C 2.632812 -6.234375 2.625 -6.078125 2.625 -5.921875 C 2.625 -4.554688 3.113281 -3.363281 4.09375 -2.34375 C 5.070312 -1.332031 6.410156 -0.828125 8.109375 -0.828125 C 9.429688 -0.828125 10.457031 -1.140625 11.1875 -1.765625 C 11.925781 -2.398438 12.296875 -3.203125 12.296875 -4.171875 C 12.296875 -4.742188 12.113281 -5.253906 11.75 -5.703125 C 11.382812 -6.160156 10.78125 -6.664062 9.9375 -7.21875 L 4.796875 -10.625 C 2.878906 -11.90625 1.921875 -13.476562 1.921875 -15.34375 C 1.921875 -15.539062 1.941406 -15.738281 1.984375 -15.9375 C 2.097656 -17.5 2.703125 -18.753906 3.796875 -19.703125 C 4.890625 -20.648438 6.351562 -21.125 8.1875 -21.125 C 9.269531 -21.125 10.613281 -21.023438 12.21875 -20.828125 L 14.078125 -20.828125 L 13.6875 -16.46875 L 13.40625 -16.46875 C 13.40625 -17.5 13.023438 -18.320312 12.265625 -18.9375 C 11.503906 -19.5625 10.492188 -19.875 9.234375 -19.875 C 7.691406 -19.875 6.578125 -19.398438 5.890625 -18.453125 C 5.535156 -18.003906 5.359375 -17.550781 5.359375 -17.09375 C 5.359375 -16.644531 5.445312 -16.257812 5.625 -15.9375 C 5.894531 -15.425781 6.492188 -14.875 7.421875 -14.28125 L 13.078125 -10.625 C 14.847656 -9.457031 15.734375 -7.9375 15.734375 -6.0625 C 15.734375 -3.96875 15.019531 -2.363281 13.59375 -1.25 C 12.164062 -0.132812 10.265625 0.421875 7.890625 0.421875 C 6.554688 0.421875 5.320312 0.257812 4.1875 -0.0625 C 3.050781 -0.394531 2.21875 -0.835938 1.6875 -1.390625 C 1.550781 -1.765625 1.484375 -2.21875 1.484375 -2.75 Z M 1.484375 -2.75 "/></g></g></g><g fill="#000000" fill-opacity="1"><g transform="translate(148.427548, 175.256755)"><g><path d="M 1.625 -0.296875 C 2.132812 -0.296875 2.570312 -0.476562 2.9375 -0.84375 C 3.300781 -1.207031 3.492188 -1.644531 3.515625 -2.15625 L 3.515625 -18.640625 C 3.472656 -19.148438 3.328125 -19.523438 3.078125 -19.765625 C 2.597656 -20.191406 2.113281 -20.40625 1.625 -20.40625 L 1.25 -20.40625 L 1.25 -20.703125 L 12.578125 -20.703125 C 13.535156 -20.703125 14.328125 -20.773438 14.953125 -20.921875 C 15.585938 -21.066406 15.976562 -21.171875 16.125 -21.234375 L 16.125 -16.0625 L 15.828125 -16.09375 L 15.828125 -16.421875 C 15.828125 -17.640625 15.375 -18.503906 14.46875 -19.015625 C 14.03125 -19.273438 13.515625 -19.414062 12.921875 -19.4375 L 7.953125 -19.4375 L 7.953125 -10.828125 L 11.859375 -10.828125 C 12.585938 -10.847656 13.1875 -11.097656 13.65625 -11.578125 C 14.132812 -12.054688 14.375 -12.65625 14.375 -13.375 L 14.375 -13.640625 L 14.671875 -13.640625 L 14.671875 -6.796875 L 14.375 -6.796875 L 14.375 -7.046875 C 14.375 -7.773438 14.140625 -8.375 13.671875 -8.84375 C 13.210938 -9.3125 12.628906 -9.554688 11.921875 -9.578125 L 7.953125 -9.578125 L 7.953125 -1.265625 L 11.828125 -1.265625 C 13.265625 -1.265625 14.472656 -1.675781 15.453125 -2.5 C 16.429688 -3.332031 17.15625 -4.507812 17.625 -6.03125 L 17.921875 -6.03125 L 16.5625 0 L 1.25 0 L 1.25 -0.296875 Z M 1.625 -0.296875 "/></g></g></g><g fill="#000000" fill-opacity="1"><g transform="translate(167.086838, 175.256755)"><g><path d="M 1.484375 -2.75 C 1.484375 -4.164062 1.785156 -5.378906 2.390625 -6.390625 L 2.65625 -6.390625 C 2.632812 -6.234375 2.625 -6.078125 2.625 -5.921875 C 2.625 -4.554688 3.113281 -3.363281 4.09375 -2.34375 C 5.070312 -1.332031 6.410156 -0.828125 8.109375 -0.828125 C 9.429688 -0.828125 10.457031 -1.140625 11.1875 -1.765625 C 11.925781 -2.398438 12.296875 -3.203125 12.296875 -4.171875 C 12.296875 -4.742188 12.113281 -5.253906 11.75 -5.703125 C 11.382812 -6.160156 10.78125 -6.664062 9.9375 -7.21875 L 4.796875 -10.625 C 2.878906 -11.90625 1.921875 -13.476562 1.921875 -15.34375 C 1.921875 -15.539062 1.941406 -15.738281 1.984375 -15.9375 C 2.097656 -17.5 2.703125 -18.753906 3.796875 -19.703125 C 4.890625 -20.648438 6.351562 -21.125 8.1875 -21.125 C 9.269531 -21.125 10.613281 -21.023438 12.21875 -20.828125 L 14.078125 -20.828125 L 13.6875 -16.46875 L 13.40625 -16.46875 C 13.40625 -17.5 13.023438 -18.320312 12.265625 -18.9375 C 11.503906 -19.5625 10.492188 -19.875 9.234375 -19.875 C 7.691406 -19.875 6.578125 -19.398438 5.890625 -18.453125 C 5.535156 -18.003906 5.359375 -17.550781 5.359375 -17.09375 C 5.359375 -16.644531 5.445312 -16.257812 5.625 -15.9375 C 5.894531 -15.425781 6.492188 -14.875 7.421875 -14.28125 L 13.078125 -10.625 C 14.847656 -9.457031 15.734375 -7.9375 15.734375 -6.0625 C 15.734375 -3.96875 15.019531 -2.363281 13.59375 -1.25 C 12.164062 -0.132812 10.265625 0.421875 7.890625 0.421875 C 6.554688 0.421875 5.320312 0.257812 4.1875 -0.0625 C 3.050781 -0.394531 2.21875 -0.835938 1.6875 -1.390625 C 1.550781 -1.765625 1.484375 -2.21875 1.484375 -2.75 Z M 1.484375 -2.75 "/></g></g></g><g fill="#000000" fill-opacity="1"><g transform="translate(184.178863, 175.256755)"><g><path d="M 4.59375 -18.21875 C 6.695312 -20.15625 9.523438 -21.125 13.078125 -21.125 C 16.640625 -21.125 19.472656 -20.15625 21.578125 -18.21875 C 23.679688 -16.289062 24.734375 -13.671875 24.734375 -10.359375 C 24.734375 -7.046875 23.679688 -4.421875 21.578125 -2.484375 C 19.472656 -0.546875 16.640625 0.421875 13.078125 0.421875 C 9.523438 0.421875 6.695312 -0.546875 4.59375 -2.484375 C 2.5 -4.421875 1.453125 -7.046875 1.453125 -10.359375 C 1.453125 -13.671875 2.5 -16.289062 4.59375 -18.21875 Z M 8.109375 -3.375 C 9.328125 -1.675781 10.976562 -0.828125 13.0625 -0.828125 C 15.15625 -0.828125 16.8125 -1.675781 18.03125 -3.375 C 19.257812 -5.082031 19.875 -7.40625 19.875 -10.34375 C 19.875 -13.289062 19.257812 -15.613281 18.03125 -17.3125 C 16.8125 -19.019531 15.15625 -19.875 13.0625 -19.875 C 10.976562 -19.875 9.328125 -19.019531 8.109375 -17.3125 C 6.898438 -15.613281 6.296875 -13.289062 6.296875 -10.34375 C 6.296875 -7.40625 6.898438 -5.082031 8.109375 -3.375 Z M 8.109375 -3.375 "/></g></g></g><g fill="#000000" fill-opacity="1"><g transform="translate(210.142178, 175.256755)"><g><path d="M 9.40625 -19.40625 L 8.140625 -19.40625 C 8.097656 -19.40625 8.066406 -19.40625 8.046875 -19.40625 L 8.046875 -2.15625 C 8.066406 -1.644531 8.257812 -1.207031 8.625 -0.84375 C 8.988281 -0.476562 9.425781 -0.296875 9.9375 -0.296875 L 10.328125 -0.296875 L 10.328125 0 L 1.328125 0 L 1.328125 -0.296875 L 1.71875 -0.296875 C 2.425781 -0.296875 2.96875 -0.601562 3.34375 -1.21875 C 3.5 -1.488281 3.585938 -1.789062 3.609375 -2.125 L 3.609375 -18.546875 C 3.585938 -19.054688 3.394531 -19.492188 3.03125 -19.859375 C 2.664062 -20.222656 2.226562 -20.40625 1.71875 -20.40625 L 1.328125 -20.40625 L 1.328125 -20.703125 L 11.46875 -20.703125 C 13.382812 -20.703125 15.003906 -20.289062 16.328125 -19.46875 C 16.992188 -19.050781 17.523438 -18.472656 17.921875 -17.734375 C 18.316406 -16.992188 18.515625 -16.023438 18.515625 -14.828125 C 18.515625 -13.640625 18.097656 -12.492188 17.265625 -11.390625 C 16.441406 -10.285156 15.242188 -9.65625 13.671875 -9.5 C 14.804688 -9.125 15.8125 -8.253906 16.6875 -6.890625 C 18.8125 -3.484375 20.390625 -1.453125 21.421875 -0.796875 C 21.929688 -0.484375 22.570312 -0.316406 23.34375 -0.296875 L 23.34375 0 L 20.4375 0 C 18.71875 0 17.289062 -0.222656 16.15625 -0.671875 C 15.03125 -1.128906 14.140625 -1.929688 13.484375 -3.078125 C 13.109375 -3.722656 12.289062 -5.410156 11.03125 -8.140625 C 10.476562 -9.335938 9.804688 -9.992188 9.015625 -10.109375 L 9.015625 -10.40625 L 9.9375 -10.40625 C 10.820312 -10.40625 11.601562 -10.671875 12.28125 -11.203125 C 12.96875 -11.742188 13.429688 -12.613281 13.671875 -13.8125 C 13.742188 -14.226562 13.78125 -14.554688 13.78125 -14.796875 C 13.78125 -16.410156 13.453125 -17.578125 12.796875 -18.296875 C 12.148438 -19.015625 11.316406 -19.382812 10.296875 -19.40625 C 10.097656 -19.40625 9.800781 -19.40625 9.40625 -19.40625 Z M 9.40625 -19.40625 "/></g></g></g><g fill="#000000" fill-opacity="1"><g transform="translate(232.231699, 175.256755)"><g><path d="M 1.625 -0.296875 C 2.132812 -0.296875 2.570312 -0.476562 2.9375 -0.84375 C 3.300781 -1.207031 3.492188 -1.644531 3.515625 -2.15625 L 3.515625 -18.578125 C 3.492188 -19.085938 3.300781 -19.519531 2.9375 -19.875 C 2.570312 -20.226562 2.132812 -20.40625 1.625 -20.40625 L 1.25 -20.40625 L 1.25 -20.703125 L 10.234375 -20.703125 L 10.203125 -20.40625 L 9.84375 -20.40625 C 9.332031 -20.40625 8.890625 -20.226562 8.515625 -19.875 C 8.140625 -19.519531 7.953125 -19.085938 7.953125 -18.578125 L 7.953125 -2.15625 C 7.953125 -1.644531 8.140625 -1.207031 8.515625 -0.84375 C 8.890625 -0.476562 9.332031 -0.296875 9.84375 -0.296875 L 10.203125 -0.296875 L 10.234375 0 L 1.25 0 L 1.25 -0.296875 Z M 1.625 -0.296875 "/></g></g></g><g fill="#000000" fill-opacity="1"><g transform="translate(243.646096, 175.256755)"><g><path d="M 21.828125 -0.296875 L 22.09375 -0.296875 L 22.09375 0 L 12.65625 0 L 12.65625 -0.296875 L 12.921875 -0.296875 C 13.359375 -0.296875 13.679688 -0.425781 13.890625 -0.6875 C 14.097656 -0.957031 14.203125 -1.207031 14.203125 -1.4375 C 14.203125 -1.675781 14.148438 -1.914062 14.046875 -2.15625 L 12.609375 -5.796875 L 5.6875 -5.796875 L 4.140625 -2.15625 C 4.046875 -1.90625 4 -1.664062 4 -1.4375 C 4 -1.207031 4.101562 -0.957031 4.3125 -0.6875 C 4.53125 -0.425781 4.859375 -0.296875 5.296875 -0.296875 L 5.53125 -0.296875 L 5.53125 0 L -0.796875 0 L -0.796875 -0.296875 L -0.53125 -0.296875 C -0.0703125 -0.296875 0.378906 -0.429688 0.828125 -0.703125 C 1.285156 -0.984375 1.660156 -1.398438 1.953125 -1.953125 L 8.78125 -17.421875 C 9.707031 -19.367188 10.203125 -20.660156 10.265625 -21.296875 L 10.53125 -21.296875 L 19.3125 -2.015625 C 19.613281 -1.441406 19.988281 -1.007812 20.4375 -0.71875 C 20.894531 -0.4375 21.359375 -0.296875 21.828125 -0.296875 Z M 6.1875 -7.046875 L 12.09375 -7.046875 L 9.234375 -14.3125 Z M 6.1875 -7.046875 "/></g></g></g><g fill="#000000" fill-opacity="1"><g transform="translate(137.005166, 216.497091)"><g><path d="M 1.625 -0.296875 C 2.132812 -0.296875 2.570312 -0.476562 2.9375 -0.84375 C 3.300781 -1.207031 3.492188 -1.644531 3.515625 -2.15625 L 3.515625 -18.546875 C 3.492188 -19.054688 3.300781 -19.492188 2.9375 -19.859375 C 2.570312 -20.222656 2.132812 -20.40625 1.625 -20.40625 L 1.25 -20.40625 L 1.25 -20.703125 L 10.234375 -20.703125 L 10.203125 -20.40625 L 9.84375 -20.40625 C 9.332031 -20.40625 8.890625 -20.222656 8.515625 -19.859375 C 8.140625 -19.492188 7.953125 -19.054688 7.953125 -18.546875 L 7.953125 -1.265625 L 11.828125 -1.265625 C 13.265625 -1.265625 14.472656 -1.675781 15.453125 -2.5 C 16.429688 -3.332031 17.15625 -4.507812 17.625 -6.03125 L 17.921875 -6.03125 L 16.5625 0 L 1.25 0 L 1.25 -0.296875 Z M 1.625 -0.296875 "/></g></g></g><g fill="#000000" fill-opacity="1"><g transform="translate(155.220884, 216.497091)"><g><path d="M 1.625 -0.296875 C 2.132812 -0.296875 2.570312 -0.476562 2.9375 -0.84375 C 3.300781 -1.207031 3.492188 -1.644531 3.515625 -2.15625 L 3.515625 -18.640625 C 3.472656 -19.148438 3.328125 -19.523438 3.078125 -19.765625 C 2.597656 -20.191406 2.113281 -20.40625 1.625 -20.40625 L 1.25 -20.40625 L 1.25 -20.703125 L 12.578125 -20.703125 C 13.535156 -20.703125 14.328125 -20.773438 14.953125 -20.921875 C 15.585938 -21.066406 15.976562 -21.171875 16.125 -21.234375 L 16.125 -16.0625 L 15.828125 -16.09375 L 15.828125 -16.421875 C 15.828125 -17.640625 15.375 -18.503906 14.46875 -19.015625 C 14.03125 -19.273438 13.515625 -19.414062 12.921875 -19.4375 L 7.953125 -19.4375 L 7.953125 -10.828125 L 11.859375 -10.828125 C 12.585938 -10.847656 13.1875 -11.097656 13.65625 -11.578125 C 14.132812 -12.054688 14.375 -12.65625 14.375 -13.375 L 14.375 -13.640625 L 14.671875 -13.640625 L 14.671875 -6.796875 L 14.375 -6.796875 L 14.375 -7.046875 C 14.375 -7.773438 14.140625 -8.375 13.671875 -8.84375 C 13.210938 -9.3125 12.628906 -9.554688 11.921875 -9.578125 L 7.953125 -9.578125 L 7.953125 -1.265625 L 11.828125 -1.265625 C 13.265625 -1.265625 14.472656 -1.675781 15.453125 -2.5 C 16.429688 -3.332031 17.15625 -4.507812 17.625 -6.03125 L 17.921875 -6.03125 L 16.5625 0 L 1.25 0 L 1.25 -0.296875 Z M 1.625 -0.296875 "/></g></g></g><g fill="#000000" fill-opacity="1"><g transform="translate(173.880174, 216.497091)"><g><path d="M 12.515625 0.421875 C 9.140625 0.421875 6.429688 -0.546875 4.390625 -2.484375 C 2.347656 -4.429688 1.328125 -7.054688 1.328125 -10.359375 C 1.328125 -13.671875 2.347656 -16.289062 4.390625 -18.21875 C 6.429688 -20.15625 9.195312 -21.125 12.6875 -21.125 C 14.269531 -21.125 15.796875 -20.96875 17.265625 -20.65625 C 18.742188 -20.351562 19.941406 -19.972656 20.859375 -19.515625 L 20.90625 -14.4375 L 20.640625 -14.4375 C 20.128906 -16.34375 19.253906 -17.722656 18.015625 -18.578125 C 16.773438 -19.441406 15.296875 -19.875 13.578125 -19.875 C 11.191406 -19.875 9.359375 -19.019531 8.078125 -17.3125 C 6.796875 -15.613281 6.15625 -13.28125 6.15625 -10.3125 C 6.15625 -7.34375 6.738281 -5.019531 7.90625 -3.34375 C 9.082031 -1.664062 10.742188 -0.828125 12.890625 -0.828125 C 14.453125 -0.828125 15.753906 -1.269531 16.796875 -2.15625 C 17.304688 -2.613281 17.679688 -3.144531 17.921875 -3.75 L 17.921875 -8.28125 C 17.921875 -8.71875 17.785156 -9.046875 17.515625 -9.265625 C 17.253906 -9.492188 16.878906 -9.609375 16.390625 -9.609375 L 15.90625 -9.609375 L 15.90625 -9.90625 L 24.21875 -9.90625 L 24.21875 -9.609375 L 23.78125 -9.609375 C 23.3125 -9.609375 22.945312 -9.492188 22.6875 -9.265625 C 22.425781 -9.046875 22.296875 -8.71875 22.296875 -8.28125 L 22.296875 -3.40625 C 21.523438 -2.394531 20.253906 -1.503906 18.484375 -0.734375 C 16.710938 0.0351562 14.722656 0.421875 12.515625 0.421875 Z M 12.515625 0.421875 "/></g></g></g><g fill="#000000" fill-opacity="1"><g transform="translate(198.601511, 216.497091)"><g><path d="M 21.828125 -0.296875 L 22.09375 -0.296875 L 22.09375 0 L 12.65625 0 L 12.65625 -0.296875 L 12.921875 -0.296875 C 13.359375 -0.296875 13.679688 -0.425781 13.890625 -0.6875 C 14.097656 -0.957031 14.203125 -1.207031 14.203125 -1.4375 C 14.203125 -1.675781 14.148438 -1.914062 14.046875 -2.15625 L 12.609375 -5.796875 L 5.6875 -5.796875 L 4.140625 -2.15625 C 4.046875 -1.90625 4 -1.664062 4 -1.4375 C 4 -1.207031 4.101562 -0.957031 4.3125 -0.6875 C 4.53125 -0.425781 4.859375 -0.296875 5.296875 -0.296875 L 5.53125 -0.296875 L 5.53125 0 L -0.796875 0 L -0.796875 -0.296875 L -0.53125 -0.296875 C -0.0703125 -0.296875 0.378906 -0.429688 0.828125 -0.703125 C 1.285156 -0.984375 1.660156 -1.398438 1.953125 -1.953125 L 8.78125 -17.421875 C 9.707031 -19.367188 10.203125 -20.660156 10.265625 -21.296875 L 10.53125 -21.296875 L 19.3125 -2.015625 C 19.613281 -1.441406 19.988281 -1.007812 20.4375 -0.71875 C 20.894531 -0.4375 21.359375 -0.296875 21.828125 -0.296875 Z M 6.1875 -7.046875 L 12.09375 -7.046875 L 9.234375 -14.3125 Z M 6.1875 -7.046875 "/></g></g></g><g fill="#000000" fill-opacity="1"><g transform="translate(219.774333, 216.497091)"><g><path d="M 1.625 -0.296875 C 2.132812 -0.296875 2.570312 -0.476562 2.9375 -0.84375 C 3.300781 -1.207031 3.492188 -1.644531 3.515625 -2.15625 L 3.515625 -18.546875 C 3.492188 -19.054688 3.300781 -19.492188 2.9375 -19.859375 C 2.570312 -20.222656 2.132812 -20.40625 1.625 -20.40625 L 1.25 -20.40625 L 1.25 -20.703125 L 10.234375 -20.703125 L 10.203125 -20.40625 L 9.84375 -20.40625 C 9.332031 -20.40625 8.890625 -20.222656 8.515625 -19.859375 C 8.140625 -19.492188 7.953125 -19.054688 7.953125 -18.546875 L 7.953125 -1.265625 L 11.828125 -1.265625 C 13.265625 -1.265625 14.472656 -1.675781 15.453125 -2.5 C 16.429688 -3.332031 17.15625 -4.507812 17.625 -6.03125 L 17.921875 -6.03125 L 16.5625 0 L 1.25 0 L 1.25 -0.296875 Z M 1.625 -0.296875 "/></g></g></g><g fill="#000000" fill-opacity="1"><g transform="translate(83.061148, 250.119725)"><g><path d="M 6.4375 -10.375 L 6.4375 -1.140625 C 6.445312 -0.859375 6.550781 -0.625 6.75 -0.4375 C 6.945312 -0.25 7.179688 -0.15625 7.453125 -0.15625 L 7.640625 -0.15625 L 7.65625 0 L 2.859375 0 L 2.859375 -0.15625 L 3.078125 -0.15625 C 3.335938 -0.15625 3.5625 -0.25 3.75 -0.4375 C 3.945312 -0.625 4.054688 -0.851562 4.078125 -1.125 L 4.078125 -10.375 L 1.953125 -10.375 C 1.472656 -10.363281 1.085938 -10.210938 0.796875 -9.921875 C 0.515625 -9.628906 0.375 -9.242188 0.375 -8.765625 L 0.375 -8.578125 L 0.21875 -8.578125 L 0.21875 -11.328125 C 0.644531 -11.148438 1.265625 -11.054688 2.078125 -11.046875 L 8.421875 -11.046875 C 8.753906 -11.046875 9.109375 -11.078125 9.484375 -11.140625 C 9.867188 -11.203125 10.132812 -11.265625 10.28125 -11.328125 L 10.28125 -8.578125 L 10.125 -8.578125 L 10.125 -8.765625 C 10.125 -9.421875 9.878906 -9.882812 9.390625 -10.15625 C 9.160156 -10.289062 8.878906 -10.363281 8.546875 -10.375 Z M 6.4375 -10.375 "/></g></g></g><g fill="#000000" fill-opacity="1"><g transform="translate(95.316244, 250.119725)"><g><path d="M 0.859375 -0.15625 C 1.140625 -0.15625 1.375 -0.25 1.5625 -0.4375 C 1.757812 -0.632812 1.863281 -0.875 1.875 -1.15625 L 1.875 -9.921875 C 1.851562 -10.191406 1.773438 -10.390625 1.640625 -10.515625 C 1.390625 -10.753906 1.128906 -10.875 0.859375 -10.875 L 0.65625 -10.875 L 0.65625 -11.03125 L 6.6875 -11.03125 C 7.207031 -11.03125 7.632812 -11.066406 7.96875 -11.140625 C 8.300781 -11.222656 8.503906 -11.28125 8.578125 -11.3125 L 8.578125 -8.546875 L 8.421875 -8.5625 L 8.421875 -8.734375 C 8.421875 -9.390625 8.179688 -9.851562 7.703125 -10.125 C 7.472656 -10.257812 7.195312 -10.332031 6.875 -10.34375 L 4.234375 -10.34375 L 4.234375 -5.765625 L 6.3125 -5.765625 C 6.707031 -5.773438 7.03125 -5.90625 7.28125 -6.15625 C 7.53125 -6.414062 7.65625 -6.738281 7.65625 -7.125 L 7.65625 -7.265625 L 7.8125 -7.265625 L 7.8125 -3.625 L 7.65625 -3.625 L 7.65625 -3.75 C 7.65625 -4.132812 7.53125 -4.453125 7.28125 -4.703125 C 7.039062 -4.960938 6.726562 -5.097656 6.34375 -5.109375 L 4.234375 -5.109375 L 4.234375 -0.671875 L 6.296875 -0.671875 C 7.066406 -0.671875 7.710938 -0.890625 8.234375 -1.328125 C 8.753906 -1.773438 9.140625 -2.40625 9.390625 -3.21875 L 9.546875 -3.21875 L 8.8125 0 L 0.65625 0 L 0.65625 -0.15625 Z M 0.859375 -0.15625 "/></g></g></g><g fill="#000000" fill-opacity="1"><g transform="translate(107.020091, 250.119725)"><g/></g></g><g fill="#000000" fill-opacity="1"><g transform="translate(112.723216, 250.119725)"><g><path d="M 11.625 -0.15625 L 11.765625 -0.15625 L 11.765625 0 L 6.734375 0 L 6.734375 -0.15625 L 6.875 -0.15625 C 7.113281 -0.15625 7.285156 -0.222656 7.390625 -0.359375 C 7.503906 -0.503906 7.5625 -0.640625 7.5625 -0.765625 C 7.5625 -0.890625 7.535156 -1.019531 7.484375 -1.15625 L 6.703125 -3.09375 L 3.03125 -3.09375 L 2.203125 -1.15625 C 2.148438 -1.007812 2.125 -0.875 2.125 -0.75 C 2.125 -0.632812 2.179688 -0.503906 2.296875 -0.359375 C 2.410156 -0.222656 2.582031 -0.15625 2.8125 -0.15625 L 2.9375 -0.15625 L 2.9375 0 L -0.421875 0 L -0.421875 -0.15625 L -0.28125 -0.15625 C -0.0390625 -0.15625 0.195312 -0.226562 0.4375 -0.375 C 0.675781 -0.519531 0.878906 -0.742188 1.046875 -1.046875 L 4.671875 -9.28125 C 5.171875 -10.320312 5.4375 -11.007812 5.46875 -11.34375 L 5.609375 -11.34375 L 10.28125 -1.078125 C 10.4375 -0.765625 10.632812 -0.53125 10.875 -0.375 C 11.125 -0.226562 11.375 -0.15625 11.625 -0.15625 Z M 3.296875 -3.75 L 6.4375 -3.75 L 4.90625 -7.625 Z M 3.296875 -3.75 "/></g></g></g><g fill="#000000" fill-opacity="1"><g transform="translate(125.765804, 250.119725)"><g><path d="M 0.78125 -1.46875 C 0.78125 -2.21875 0.945312 -2.863281 1.28125 -3.40625 L 1.421875 -3.40625 C 1.410156 -3.320312 1.40625 -3.238281 1.40625 -3.15625 C 1.40625 -2.425781 1.664062 -1.789062 2.1875 -1.25 C 2.707031 -0.707031 3.414062 -0.4375 4.3125 -0.4375 C 5.019531 -0.4375 5.566406 -0.601562 5.953125 -0.9375 C 6.347656 -1.28125 6.546875 -1.707031 6.546875 -2.21875 C 6.546875 -2.519531 6.445312 -2.789062 6.25 -3.03125 C 6.0625 -3.28125 5.742188 -3.550781 5.296875 -3.84375 L 2.546875 -5.65625 C 1.535156 -6.332031 1.03125 -7.171875 1.03125 -8.171875 C 1.03125 -8.273438 1.039062 -8.378906 1.0625 -8.484375 C 1.125 -9.316406 1.441406 -9.984375 2.015625 -10.484375 C 2.597656 -10.992188 3.378906 -11.25 4.359375 -11.25 C 4.941406 -11.25 5.65625 -11.195312 6.5 -11.09375 L 7.5 -11.09375 L 7.296875 -8.765625 L 7.140625 -8.765625 C 7.140625 -9.316406 6.9375 -9.753906 6.53125 -10.078125 C 6.125 -10.410156 5.582031 -10.578125 4.90625 -10.578125 C 4.09375 -10.578125 3.503906 -10.328125 3.140625 -9.828125 C 2.941406 -9.585938 2.84375 -9.34375 2.84375 -9.09375 C 2.84375 -8.851562 2.894531 -8.648438 3 -8.484375 C 3.144531 -8.210938 3.460938 -7.921875 3.953125 -7.609375 L 6.96875 -5.65625 C 7.90625 -5.03125 8.375 -4.222656 8.375 -3.234375 C 8.375 -2.117188 7.992188 -1.265625 7.234375 -0.671875 C 6.472656 -0.078125 5.460938 0.21875 4.203125 0.21875 C 3.492188 0.21875 2.835938 0.132812 2.234375 -0.03125 C 1.628906 -0.207031 1.179688 -0.441406 0.890625 -0.734375 C 0.816406 -0.941406 0.78125 -1.1875 0.78125 -1.46875 Z M 0.78125 -1.46875 "/></g></g></g><g fill="#000000" fill-opacity="1"><g transform="translate(136.634909, 250.119725)"><g><path d="M 0.859375 -0.15625 C 1.140625 -0.15625 1.375 -0.25 1.5625 -0.4375 C 1.757812 -0.632812 1.863281 -0.875 1.875 -1.15625 L 1.875 -9.921875 C 1.851562 -10.191406 1.773438 -10.390625 1.640625 -10.515625 C 1.390625 -10.753906 1.128906 -10.875 0.859375 -10.875 L 0.65625 -10.875 L 0.65625 -11.03125 L 6.6875 -11.03125 C 7.207031 -11.03125 7.632812 -11.066406 7.96875 -11.140625 C 8.300781 -11.222656 8.503906 -11.28125 8.578125 -11.3125 L 8.578125 -8.546875 L 8.421875 -8.5625 L 8.421875 -8.734375 C 8.421875 -9.390625 8.179688 -9.851562 7.703125 -10.125 C 7.472656 -10.257812 7.195312 -10.332031 6.875 -10.34375 L 4.234375 -10.34375 L 4.234375 -5.765625 L 6.3125 -5.765625 C 6.707031 -5.773438 7.03125 -5.90625 7.28125 -6.15625 C 7.53125 -6.414062 7.65625 -6.738281 7.65625 -7.125 L 7.65625 -7.265625 L 7.8125 -7.265625 L 7.8125 -3.625 L 7.65625 -3.625 L 7.65625 -3.75 C 7.65625 -4.132812 7.53125 -4.453125 7.28125 -4.703125 C 7.039062 -4.960938 6.726562 -5.097656 6.34375 -5.109375 L 4.234375 -5.109375 L 4.234375 -0.671875 L 6.296875 -0.671875 C 7.066406 -0.671875 7.710938 -0.890625 8.234375 -1.328125 C 8.753906 -1.773438 9.140625 -2.40625 9.390625 -3.21875 L 9.546875 -3.21875 L 8.8125 0 L 0.65625 0 L 0.65625 -0.15625 Z M 0.859375 -0.15625 "/></g></g></g><g fill="#000000" fill-opacity="1"><g transform="translate(148.338758, 250.119725)"><g><path d="M 0.78125 -1.46875 C 0.78125 -2.21875 0.945312 -2.863281 1.28125 -3.40625 L 1.421875 -3.40625 C 1.410156 -3.320312 1.40625 -3.238281 1.40625 -3.15625 C 1.40625 -2.425781 1.664062 -1.789062 2.1875 -1.25 C 2.707031 -0.707031 3.414062 -0.4375 4.3125 -0.4375 C 5.019531 -0.4375 5.566406 -0.601562 5.953125 -0.9375 C 6.347656 -1.28125 6.546875 -1.707031 6.546875 -2.21875 C 6.546875 -2.519531 6.445312 -2.789062 6.25 -3.03125 C 6.0625 -3.28125 5.742188 -3.550781 5.296875 -3.84375 L 2.546875 -5.65625 C 1.535156 -6.332031 1.03125 -7.171875 1.03125 -8.171875 C 1.03125 -8.273438 1.039062 -8.378906 1.0625 -8.484375 C 1.125 -9.316406 1.441406 -9.984375 2.015625 -10.484375 C 2.597656 -10.992188 3.378906 -11.25 4.359375 -11.25 C 4.941406 -11.25 5.65625 -11.195312 6.5 -11.09375 L 7.5 -11.09375 L 7.296875 -8.765625 L 7.140625 -8.765625 C 7.140625 -9.316406 6.9375 -9.753906 6.53125 -10.078125 C 6.125 -10.410156 5.582031 -10.578125 4.90625 -10.578125 C 4.09375 -10.578125 3.503906 -10.328125 3.140625 -9.828125 C 2.941406 -9.585938 2.84375 -9.34375 2.84375 -9.09375 C 2.84375 -8.851562 2.894531 -8.648438 3 -8.484375 C 3.144531 -8.210938 3.460938 -7.921875 3.953125 -7.609375 L 6.96875 -5.65625 C 7.90625 -5.03125 8.375 -4.222656 8.375 -3.234375 C 8.375 -2.117188 7.992188 -1.265625 7.234375 -0.671875 C 6.472656 -0.078125 5.460938 0.21875 4.203125 0.21875 C 3.492188 0.21875 2.835938 0.132812 2.234375 -0.03125 C 1.628906 -0.207031 1.179688 -0.441406 0.890625 -0.734375 C 0.816406 -0.941406 0.78125 -1.1875 0.78125 -1.46875 Z M 0.78125 -1.46875 "/></g></g></g><g fill="#000000" fill-opacity="1"><g transform="translate(159.207864, 250.119725)"><g><path d="M 2.4375 -9.703125 C 3.5625 -10.734375 5.070312 -11.25 6.96875 -11.25 C 8.863281 -11.25 10.367188 -10.734375 11.484375 -9.703125 C 12.609375 -8.671875 13.171875 -7.269531 13.171875 -5.5 C 13.171875 -3.738281 12.609375 -2.34375 11.484375 -1.3125 C 10.367188 -0.289062 8.863281 0.21875 6.96875 0.21875 C 5.070312 0.21875 3.5625 -0.289062 2.4375 -1.3125 C 1.320312 -2.34375 0.765625 -3.738281 0.765625 -5.5 C 0.765625 -7.269531 1.320312 -8.671875 2.4375 -9.703125 Z M 4.328125 -1.796875 C 4.972656 -0.890625 5.847656 -0.4375 6.953125 -0.4375 C 8.066406 -0.4375 8.945312 -0.890625 9.59375 -1.796875 C 10.25 -2.710938 10.578125 -3.953125 10.578125 -5.515625 C 10.578125 -7.078125 10.25 -8.3125 9.59375 -9.21875 C 8.945312 -10.125 8.066406 -10.578125 6.953125 -10.578125 C 5.847656 -10.578125 4.972656 -10.125 4.328125 -9.21875 C 3.679688 -8.3125 3.359375 -7.078125 3.359375 -5.515625 C 3.359375 -3.953125 3.679688 -2.710938 4.328125 -1.796875 Z M 4.328125 -1.796875 "/></g></g></g><g fill="#000000" fill-opacity="1"><g transform="translate(174.801948, 250.119725)"><g><path d="M 5.015625 -10.328125 L 4.328125 -10.328125 C 4.304688 -10.328125 4.289062 -10.328125 4.28125 -10.328125 L 4.28125 -1.15625 C 4.289062 -0.875 4.390625 -0.632812 4.578125 -0.4375 C 4.773438 -0.25 5.015625 -0.15625 5.296875 -0.15625 L 5.5 -0.15625 L 5.5 0 L 0.703125 0 L 0.703125 -0.15625 L 0.90625 -0.15625 C 1.289062 -0.15625 1.582031 -0.316406 1.78125 -0.640625 C 1.863281 -0.785156 1.910156 -0.953125 1.921875 -1.140625 L 1.921875 -9.875 C 1.910156 -10.144531 1.804688 -10.378906 1.609375 -10.578125 C 1.421875 -10.773438 1.1875 -10.875 0.90625 -10.875 L 0.703125 -10.875 L 0.703125 -11.03125 L 6.109375 -11.03125 C 7.128906 -11.03125 7.988281 -10.804688 8.6875 -10.359375 C 9.050781 -10.140625 9.335938 -9.832031 9.546875 -9.4375 C 9.753906 -9.039062 9.859375 -8.523438 9.859375 -7.890625 C 9.859375 -7.265625 9.632812 -6.65625 9.1875 -6.0625 C 8.75 -5.476562 8.113281 -5.144531 7.28125 -5.0625 C 7.882812 -4.851562 8.421875 -4.390625 8.890625 -3.671875 C 10.015625 -1.847656 10.851562 -0.765625 11.40625 -0.421875 C 11.675781 -0.253906 12.015625 -0.164062 12.421875 -0.15625 L 12.421875 0 L 10.890625 0 C 9.972656 0 9.210938 -0.117188 8.609375 -0.359375 C 8.003906 -0.597656 7.53125 -1.023438 7.1875 -1.640625 C 6.976562 -1.984375 6.539062 -2.878906 5.875 -4.328125 C 5.582031 -4.972656 5.222656 -5.328125 4.796875 -5.390625 L 4.796875 -5.546875 L 5.296875 -5.546875 C 5.765625 -5.546875 6.179688 -5.6875 6.546875 -5.96875 C 6.910156 -6.25 7.15625 -6.710938 7.28125 -7.359375 C 7.320312 -7.578125 7.34375 -7.75 7.34375 -7.875 C 7.34375 -8.738281 7.164062 -9.359375 6.8125 -9.734375 C 6.46875 -10.117188 6.023438 -10.316406 5.484375 -10.328125 C 5.378906 -10.328125 5.222656 -10.328125 5.015625 -10.328125 Z M 5.015625 -10.328125 "/></g></g></g><g fill="#000000" fill-opacity="1"><g transform="translate(188.332789, 250.119725)"><g><path d="M 11.625 -0.15625 L 11.765625 -0.15625 L 11.765625 0 L 6.734375 0 L 6.734375 -0.15625 L 6.875 -0.15625 C 7.113281 -0.15625 7.285156 -0.222656 7.390625 -0.359375 C 7.503906 -0.503906 7.5625 -0.640625 7.5625 -0.765625 C 7.5625 -0.890625 7.535156 -1.019531 7.484375 -1.15625 L 6.703125 -3.09375 L 3.03125 -3.09375 L 2.203125 -1.15625 C 2.148438 -1.007812 2.125 -0.875 2.125 -0.75 C 2.125 -0.632812 2.179688 -0.503906 2.296875 -0.359375 C 2.410156 -0.222656 2.582031 -0.15625 2.8125 -0.15625 L 2.9375 -0.15625 L 2.9375 0 L -0.421875 0 L -0.421875 -0.15625 L -0.28125 -0.15625 C -0.0390625 -0.15625 0.195312 -0.226562 0.4375 -0.375 C 0.675781 -0.519531 0.878906 -0.742188 1.046875 -1.046875 L 4.671875 -9.28125 C 5.171875 -10.320312 5.4375 -11.007812 5.46875 -11.34375 L 5.609375 -11.34375 L 10.28125 -1.078125 C 10.4375 -0.765625 10.632812 -0.53125 10.875 -0.375 C 11.125 -0.226562 11.375 -0.15625 11.625 -0.15625 Z M 3.296875 -3.75 L 6.4375 -3.75 L 4.90625 -7.625 Z M 3.296875 -3.75 "/></g></g></g><g fill="#000000" fill-opacity="1"><g transform="translate(201.375379, 250.119725)"><g><path d="M 14.921875 -0.15625 L 15.171875 -0.15625 L 15.171875 0 L 10.4375 0 L 10.4375 -0.140625 L 10.671875 -0.140625 C 10.859375 -0.148438 11.015625 -0.222656 11.140625 -0.359375 C 11.265625 -0.492188 11.316406 -0.644531 11.296875 -0.8125 L 10.671875 -6.53125 L 7.71875 -1.4375 C 7.332031 -0.78125 7.132812 -0.195312 7.125 0.3125 L 6.96875 0.3125 L 2.90625 -6.484375 L 2.296875 -0.8125 C 2.273438 -0.644531 2.328125 -0.488281 2.453125 -0.34375 C 2.578125 -0.207031 2.726562 -0.140625 2.90625 -0.140625 L 3.15625 -0.140625 L 3.15625 0 L -0.140625 0 L -0.140625 -0.15625 L 0.109375 -0.15625 C 0.398438 -0.15625 0.65625 -0.242188 0.875 -0.421875 C 1.09375 -0.597656 1.222656 -0.84375 1.265625 -1.15625 L 2.5625 -11.25 L 2.703125 -11.25 L 7.59375 -3.21875 L 12.28125 -11.25 L 12.421875 -11.25 L 13.765625 -1.15625 C 13.816406 -0.84375 13.945312 -0.597656 14.15625 -0.421875 C 14.375 -0.242188 14.628906 -0.15625 14.921875 -0.15625 Z M 14.921875 -0.15625 "/></g></g></g><g fill="#000000" fill-opacity="1"><g transform="translate(218.1507, 250.119725)"><g><path d="M 2.4375 -9.703125 C 3.5625 -10.734375 5.070312 -11.25 6.96875 -11.25 C 8.863281 -11.25 10.367188 -10.734375 11.484375 -9.703125 C 12.609375 -8.671875 13.171875 -7.269531 13.171875 -5.5 C 13.171875 -3.738281 12.609375 -2.34375 11.484375 -1.3125 C 10.367188 -0.289062 8.863281 0.21875 6.96875 0.21875 C 5.070312 0.21875 3.5625 -0.289062 2.4375 -1.3125 C 1.320312 -2.34375 0.765625 -3.738281 0.765625 -5.5 C 0.765625 -7.269531 1.320312 -8.671875 2.4375 -9.703125 Z M 4.328125 -1.796875 C 4.972656 -0.890625 5.847656 -0.4375 6.953125 -0.4375 C 8.066406 -0.4375 8.945312 -0.890625 9.59375 -1.796875 C 10.25 -2.710938 10.578125 -3.953125 10.578125 -5.515625 C 10.578125 -7.078125 10.25 -8.3125 9.59375 -9.21875 C 8.945312 -10.125 8.066406 -10.578125 6.953125 -10.578125 C 5.847656 -10.578125 4.972656 -10.125 4.328125 -9.21875 C 3.679688 -8.3125 3.359375 -7.078125 3.359375 -5.515625 C 3.359375 -3.953125 3.679688 -2.710938 4.328125 -1.796875 Z M 4.328125 -1.796875 "/></g></g></g><g fill="#000000" fill-opacity="1"><g transform="translate(233.744784, 250.119725)"><g><path d="M 0.78125 -1.46875 C 0.78125 -2.21875 0.945312 -2.863281 1.28125 -3.40625 L 1.421875 -3.40625 C 1.410156 -3.320312 1.40625 -3.238281 1.40625 -3.15625 C 1.40625 -2.425781 1.664062 -1.789062 2.1875 -1.25 C 2.707031 -0.707031 3.414062 -0.4375 4.3125 -0.4375 C 5.019531 -0.4375 5.566406 -0.601562 5.953125 -0.9375 C 6.347656 -1.28125 6.546875 -1.707031 6.546875 -2.21875 C 6.546875 -2.519531 6.445312 -2.789062 6.25 -3.03125 C 6.0625 -3.28125 5.742188 -3.550781 5.296875 -3.84375 L 2.546875 -5.65625 C 1.535156 -6.332031 1.03125 -7.171875 1.03125 -8.171875 C 1.03125 -8.273438 1.039062 -8.378906 1.0625 -8.484375 C 1.125 -9.316406 1.441406 -9.984375 2.015625 -10.484375 C 2.597656 -10.992188 3.378906 -11.25 4.359375 -11.25 C 4.941406 -11.25 5.65625 -11.195312 6.5 -11.09375 L 7.5 -11.09375 L 7.296875 -8.765625 L 7.140625 -8.765625 C 7.140625 -9.316406 6.9375 -9.753906 6.53125 -10.078125 C 6.125 -10.410156 5.582031 -10.578125 4.90625 -10.578125 C 4.09375 -10.578125 3.503906 -10.328125 3.140625 -9.828125 C 2.941406 -9.585938 2.84375 -9.34375 2.84375 -9.09375 C 2.84375 -8.851562 2.894531 -8.648438 3 -8.484375 C 3.144531 -8.210938 3.460938 -7.921875 3.953125 -7.609375 L 6.96875 -5.65625 C 7.90625 -5.03125 8.375 -4.222656 8.375 -3.234375 C 8.375 -2.117188 7.992188 -1.265625 7.234375 -0.671875 C 6.472656 -0.078125 5.460938 0.21875 4.203125 0.21875 C 3.492188 0.21875 2.835938 0.132812 2.234375 -0.03125 C 1.628906 -0.207031 1.179688 -0.441406 0.890625 -0.734375 C 0.816406 -0.941406 0.78125 -1.1875 0.78125 -1.46875 Z M 0.78125 -1.46875 "/></g></g></g><g fill="#000000" fill-opacity="1"><g transform="translate(244.61389, 250.119725)"><g/></g></g><g fill="#000000" fill-opacity="1"><g transform="translate(250.317018, 250.119725)"><g><path d="M 7.203125 0.203125 C 5.179688 0.203125 3.59375 -0.300781 2.4375 -1.3125 C 1.28125 -2.332031 0.703125 -3.726562 0.703125 -5.5 C 0.703125 -7.28125 1.273438 -8.679688 2.421875 -9.703125 C 3.566406 -10.734375 5.140625 -11.25 7.140625 -11.25 C 8.660156 -11.25 9.96875 -10.960938 11.0625 -10.390625 L 11.09375 -7.6875 L 10.96875 -7.6875 C 10.425781 -9.613281 9.203125 -10.578125 7.296875 -10.578125 C 6.054688 -10.578125 5.078125 -10.128906 4.359375 -9.234375 C 3.640625 -8.335938 3.28125 -7.113281 3.28125 -5.5625 C 3.28125 -4.007812 3.625 -2.773438 4.3125 -1.859375 C 5 -0.941406 5.929688 -0.46875 7.109375 -0.4375 C 8.328125 -0.4375 9.253906 -0.742188 9.890625 -1.359375 C 10.546875 -1.984375 11 -3.0625 11.25 -4.59375 L 11.375 -4.59375 L 11.53125 -1.890625 C 10.675781 -0.484375 9.234375 0.210938 7.203125 0.203125 Z M 7.203125 0.203125 "/></g></g></g><g fill="#000000" fill-opacity="1"><g transform="translate(264.367604, 250.119725)"><g><path d="M 2.4375 -9.703125 C 3.5625 -10.734375 5.070312 -11.25 6.96875 -11.25 C 8.863281 -11.25 10.367188 -10.734375 11.484375 -9.703125 C 12.609375 -8.671875 13.171875 -7.269531 13.171875 -5.5 C 13.171875 -3.738281 12.609375 -2.34375 11.484375 -1.3125 C 10.367188 -0.289062 8.863281 0.21875 6.96875 0.21875 C 5.070312 0.21875 3.5625 -0.289062 2.4375 -1.3125 C 1.320312 -2.34375 0.765625 -3.738281 0.765625 -5.5 C 0.765625 -7.269531 1.320312 -8.671875 2.4375 -9.703125 Z M 4.328125 -1.796875 C 4.972656 -0.890625 5.847656 -0.4375 6.953125 -0.4375 C 8.066406 -0.4375 8.945312 -0.890625 9.59375 -1.796875 C 10.25 -2.710938 10.578125 -3.953125 10.578125 -5.515625 C 10.578125 -7.078125 10.25 -8.3125 9.59375 -9.21875 C 8.945312 -10.125 8.066406 -10.578125 6.953125 -10.578125 C 5.847656 -10.578125 4.972656 -10.125 4.328125 -9.21875 C 3.679688 -8.3125 3.359375 -7.078125 3.359375 -5.515625 C 3.359375 -3.953125 3.679688 -2.710938 4.328125 -1.796875 Z M 4.328125 -1.796875 "/></g></g></g><g fill="#000000" fill-opacity="1"><g transform="translate(279.961678, 250.119725)"><g><path d="M 12.875 -10.875 C 12.5 -10.875 12.21875 -10.710938 12.03125 -10.390625 C 11.945312 -10.253906 11.898438 -10.097656 11.890625 -9.921875 L 11.890625 -1.796875 C 11.890625 -1.085938 11.9375 -0.492188 12.03125 -0.015625 L 12.078125 0.21875 L 11.9375 0.21875 L 3.984375 -7.359375 L 3.984375 -1.109375 C 3.984375 -0.835938 4.078125 -0.609375 4.265625 -0.421875 C 4.453125 -0.242188 4.679688 -0.15625 4.953125 -0.15625 L 5.25 -0.15625 L 5.25 0 L 0.46875 0 L 0.46875 -0.15625 L 0.75 -0.15625 C 1.03125 -0.15625 1.265625 -0.242188 1.453125 -0.421875 C 1.640625 -0.609375 1.734375 -0.84375 1.734375 -1.125 L 1.734375 -9.296875 C 1.734375 -9.984375 1.6875 -10.5625 1.59375 -11.03125 L 1.5625 -11.265625 L 1.703125 -11.265625 L 9.65625 -3.6875 L 9.65625 -9.90625 C 9.644531 -10.175781 9.546875 -10.40625 9.359375 -10.59375 C 9.171875 -10.78125 8.941406 -10.875 8.671875 -10.875 L 8.390625 -10.875 L 8.390625 -11.03125 L 13.171875 -11.03125 L 13.171875 -10.875 Z M 12.875 -10.875 "/></g></g></g><g fill="#000000" fill-opacity="1"><g transform="translate(58.592399, 271.869724)"><g><path d="M 0.859375 -0.15625 C 1.140625 -0.15625 1.375 -0.25 1.5625 -0.4375 C 1.757812 -0.632812 1.863281 -0.875 1.875 -1.15625 L 1.875 -9.890625 C 1.863281 -10.160156 1.757812 -10.390625 1.5625 -10.578125 C 1.375 -10.773438 1.140625 -10.875 0.859375 -10.875 L 0.65625 -10.875 L 0.65625 -11.03125 L 5.453125 -11.03125 L 5.4375 -10.875 L 5.25 -10.875 C 4.96875 -10.875 4.726562 -10.773438 4.53125 -10.578125 C 4.332031 -10.390625 4.234375 -10.160156 4.234375 -9.890625 L 4.234375 -1.15625 C 4.234375 -0.875 4.332031 -0.632812 4.53125 -0.4375 C 4.726562 -0.25 4.96875 -0.15625 5.25 -0.15625 L 5.4375 -0.15625 L 5.453125 0 L 0.65625 0 L 0.65625 -0.15625 Z M 0.859375 -0.15625 "/></g></g></g><g fill="#000000" fill-opacity="1"><g transform="translate(66.437516, 271.869724)"><g><path d="M 12.875 -10.875 C 12.5 -10.875 12.21875 -10.710938 12.03125 -10.390625 C 11.945312 -10.253906 11.898438 -10.097656 11.890625 -9.921875 L 11.890625 -1.796875 C 11.890625 -1.085938 11.9375 -0.492188 12.03125 -0.015625 L 12.078125 0.21875 L 11.9375 0.21875 L 3.984375 -7.359375 L 3.984375 -1.109375 C 3.984375 -0.835938 4.078125 -0.609375 4.265625 -0.421875 C 4.453125 -0.242188 4.679688 -0.15625 4.953125 -0.15625 L 5.25 -0.15625 L 5.25 0 L 0.46875 0 L 0.46875 -0.15625 L 0.75 -0.15625 C 1.03125 -0.15625 1.265625 -0.242188 1.453125 -0.421875 C 1.640625 -0.609375 1.734375 -0.84375 1.734375 -1.125 L 1.734375 -9.296875 C 1.734375 -9.984375 1.6875 -10.5625 1.59375 -11.03125 L 1.5625 -11.265625 L 1.703125 -11.265625 L 9.65625 -3.6875 L 9.65625 -9.90625 C 9.644531 -10.175781 9.546875 -10.40625 9.359375 -10.59375 C 9.171875 -10.78125 8.941406 -10.875 8.671875 -10.875 L 8.390625 -10.875 L 8.390625 -11.03125 L 13.171875 -11.03125 L 13.171875 -10.875 Z M 12.875 -10.875 "/></g></g></g><g fill="#000000" fill-opacity="1"><g transform="translate(81.82684, 271.869724)"><g><path d="M 6.4375 -10.375 L 6.4375 -1.140625 C 6.445312 -0.859375 6.550781 -0.625 6.75 -0.4375 C 6.945312 -0.25 7.179688 -0.15625 7.453125 -0.15625 L 7.640625 -0.15625 L 7.65625 0 L 2.859375 0 L 2.859375 -0.15625 L 3.078125 -0.15625 C 3.335938 -0.15625 3.5625 -0.25 3.75 -0.4375 C 3.945312 -0.625 4.054688 -0.851562 4.078125 -1.125 L 4.078125 -10.375 L 1.953125 -10.375 C 1.472656 -10.363281 1.085938 -10.210938 0.796875 -9.921875 C 0.515625 -9.628906 0.375 -9.242188 0.375 -8.765625 L 0.375 -8.578125 L 0.21875 -8.578125 L 0.21875 -11.328125 C 0.644531 -11.148438 1.265625 -11.054688 2.078125 -11.046875 L 8.421875 -11.046875 C 8.753906 -11.046875 9.109375 -11.078125 9.484375 -11.140625 C 9.867188 -11.203125 10.132812 -11.265625 10.28125 -11.328125 L 10.28125 -8.578125 L 10.125 -8.578125 L 10.125 -8.765625 C 10.125 -9.421875 9.878906 -9.882812 9.390625 -10.15625 C 9.160156 -10.289062 8.878906 -10.363281 8.546875 -10.375 Z M 6.4375 -10.375 "/></g></g></g><g fill="#000000" fill-opacity="1"><g transform="translate(94.081937, 271.869724)"><g><path d="M 0.859375 -0.15625 C 1.140625 -0.15625 1.375 -0.25 1.5625 -0.4375 C 1.757812 -0.632812 1.863281 -0.875 1.875 -1.15625 L 1.875 -9.921875 C 1.851562 -10.191406 1.773438 -10.390625 1.640625 -10.515625 C 1.390625 -10.753906 1.128906 -10.875 0.859375 -10.875 L 0.65625 -10.875 L 0.65625 -11.03125 L 6.6875 -11.03125 C 7.207031 -11.03125 7.632812 -11.066406 7.96875 -11.140625 C 8.300781 -11.222656 8.503906 -11.28125 8.578125 -11.3125 L 8.578125 -8.546875 L 8.421875 -8.5625 L 8.421875 -8.734375 C 8.421875 -9.390625 8.179688 -9.851562 7.703125 -10.125 C 7.472656 -10.257812 7.195312 -10.332031 6.875 -10.34375 L 4.234375 -10.34375 L 4.234375 -5.765625 L 6.3125 -5.765625 C 6.707031 -5.773438 7.03125 -5.90625 7.28125 -6.15625 C 7.53125 -6.414062 7.65625 -6.738281 7.65625 -7.125 L 7.65625 -7.265625 L 7.8125 -7.265625 L 7.8125 -3.625 L 7.65625 -3.625 L 7.65625 -3.75 C 7.65625 -4.132812 7.53125 -4.453125 7.28125 -4.703125 C 7.039062 -4.960938 6.726562 -5.097656 6.34375 -5.109375 L 4.234375 -5.109375 L 4.234375 -0.671875 L 6.296875 -0.671875 C 7.066406 -0.671875 7.710938 -0.890625 8.234375 -1.328125 C 8.753906 -1.773438 9.140625 -2.40625 9.390625 -3.21875 L 9.546875 -3.21875 L 8.8125 0 L 0.65625 0 L 0.65625 -0.15625 Z M 0.859375 -0.15625 "/></g></g></g><g fill="#000000" fill-opacity="1"><g transform="translate(105.785783, 271.869724)"><g><path d="M 0.859375 -0.15625 C 1.140625 -0.15625 1.375 -0.25 1.5625 -0.4375 C 1.757812 -0.632812 1.863281 -0.875 1.875 -1.15625 L 1.875 -9.875 C 1.863281 -10.144531 1.757812 -10.378906 1.5625 -10.578125 C 1.375 -10.773438 1.140625 -10.875 0.859375 -10.875 L 0.65625 -10.875 L 0.65625 -11.03125 L 5.453125 -11.03125 L 5.4375 -10.875 L 5.25 -10.875 C 4.96875 -10.875 4.726562 -10.773438 4.53125 -10.578125 C 4.332031 -10.378906 4.234375 -10.144531 4.234375 -9.875 L 4.234375 -0.671875 L 6.296875 -0.671875 C 7.066406 -0.671875 7.710938 -0.890625 8.234375 -1.328125 C 8.753906 -1.773438 9.140625 -2.40625 9.390625 -3.21875 L 9.546875 -3.21875 L 8.8125 0 L 0.65625 0 L 0.65625 -0.15625 Z M 0.859375 -0.15625 "/></g></g></g><g fill="#000000" fill-opacity="1"><g transform="translate(117.25338, 271.869724)"><g><path d="M 0.859375 -0.15625 C 1.140625 -0.15625 1.375 -0.25 1.5625 -0.4375 C 1.757812 -0.632812 1.863281 -0.875 1.875 -1.15625 L 1.875 -9.890625 C 1.863281 -10.160156 1.757812 -10.390625 1.5625 -10.578125 C 1.375 -10.773438 1.140625 -10.875 0.859375 -10.875 L 0.65625 -10.875 L 0.65625 -11.03125 L 5.453125 -11.03125 L 5.4375 -10.875 L 5.25 -10.875 C 4.96875 -10.875 4.726562 -10.773438 4.53125 -10.578125 C 4.332031 -10.390625 4.234375 -10.160156 4.234375 -9.890625 L 4.234375 -1.15625 C 4.234375 -0.875 4.332031 -0.632812 4.53125 -0.4375 C 4.726562 -0.25 4.96875 -0.15625 5.25 -0.15625 L 5.4375 -0.15625 L 5.453125 0 L 0.65625 0 L 0.65625 -0.15625 Z M 0.859375 -0.15625 "/></g></g></g><g fill="#000000" fill-opacity="1"><g transform="translate(125.098499, 271.869724)"><g><path d="M 6.65625 0.21875 C 4.863281 0.21875 3.421875 -0.296875 2.328125 -1.328125 C 1.242188 -2.359375 0.703125 -3.753906 0.703125 -5.515625 C 0.703125 -7.273438 1.242188 -8.671875 2.328125 -9.703125 C 3.421875 -10.734375 4.894531 -11.25 6.75 -11.25 C 7.59375 -11.25 8.40625 -11.164062 9.1875 -11 C 9.976562 -10.832031 10.617188 -10.628906 11.109375 -10.390625 L 11.140625 -7.6875 L 11 -7.6875 C 10.71875 -8.707031 10.242188 -9.441406 9.578125 -9.890625 C 8.921875 -10.347656 8.140625 -10.578125 7.234375 -10.578125 C 5.960938 -10.578125 4.984375 -10.125 4.296875 -9.21875 C 3.617188 -8.3125 3.28125 -7.066406 3.28125 -5.484375 C 3.28125 -3.910156 3.59375 -2.675781 4.21875 -1.78125 C 4.84375 -0.882812 5.722656 -0.4375 6.859375 -0.4375 C 7.691406 -0.4375 8.390625 -0.675781 8.953125 -1.15625 C 9.222656 -1.394531 9.421875 -1.675781 9.546875 -2 L 9.546875 -4.40625 C 9.546875 -4.632812 9.472656 -4.8125 9.328125 -4.9375 C 9.191406 -5.0625 8.988281 -5.125 8.71875 -5.125 L 8.46875 -5.125 L 8.46875 -5.28125 L 12.90625 -5.28125 L 12.90625 -5.125 L 12.65625 -5.125 C 12.40625 -5.125 12.210938 -5.0625 12.078125 -4.9375 C 11.941406 -4.8125 11.875 -4.632812 11.875 -4.40625 L 11.875 -1.8125 C 11.46875 -1.28125 10.789062 -0.804688 9.84375 -0.390625 C 8.894531 0.015625 7.832031 0.21875 6.65625 0.21875 Z M 6.65625 0.21875 "/></g></g></g><g fill="#000000" fill-opacity="1"><g transform="translate(140.031081, 271.869724)"><g><path d="M 0.859375 -0.15625 C 1.140625 -0.15625 1.375 -0.25 1.5625 -0.4375 C 1.757812 -0.632812 1.863281 -0.875 1.875 -1.15625 L 1.875 -9.921875 C 1.851562 -10.191406 1.773438 -10.390625 1.640625 -10.515625 C 1.390625 -10.753906 1.128906 -10.875 0.859375 -10.875 L 0.65625 -10.875 L 0.65625 -11.03125 L 6.6875 -11.03125 C 7.207031 -11.03125 7.632812 -11.066406 7.96875 -11.140625 C 8.300781 -11.222656 8.503906 -11.28125 8.578125 -11.3125 L 8.578125 -8.546875 L 8.421875 -8.5625 L 8.421875 -8.734375 C 8.421875 -9.390625 8.179688 -9.851562 7.703125 -10.125 C 7.472656 -10.257812 7.195312 -10.332031 6.875 -10.34375 L 4.234375 -10.34375 L 4.234375 -5.765625 L 6.3125 -5.765625 C 6.707031 -5.773438 7.03125 -5.90625 7.28125 -6.15625 C 7.53125 -6.414062 7.65625 -6.738281 7.65625 -7.125 L 7.65625 -7.265625 L 7.8125 -7.265625 L 7.8125 -3.625 L 7.65625 -3.625 L 7.65625 -3.75 C 7.65625 -4.132812 7.53125 -4.453125 7.28125 -4.703125 C 7.039062 -4.960938 6.726562 -5.097656 6.34375 -5.109375 L 4.234375 -5.109375 L 4.234375 -0.671875 L 6.296875 -0.671875 C 7.066406 -0.671875 7.710938 -0.890625 8.234375 -1.328125 C 8.753906 -1.773438 9.140625 -2.40625 9.390625 -3.21875 L 9.546875 -3.21875 L 8.8125 0 L 0.65625 0 L 0.65625 -0.15625 Z M 0.859375 -0.15625 "/></g></g></g><g fill="#000000" fill-opacity="1"><g transform="translate(151.73493, 271.869724)"><g><path d="M 12.875 -10.875 C 12.5 -10.875 12.21875 -10.710938 12.03125 -10.390625 C 11.945312 -10.253906 11.898438 -10.097656 11.890625 -9.921875 L 11.890625 -1.796875 C 11.890625 -1.085938 11.9375 -0.492188 12.03125 -0.015625 L 12.078125 0.21875 L 11.9375 0.21875 L 3.984375 -7.359375 L 3.984375 -1.109375 C 3.984375 -0.835938 4.078125 -0.609375 4.265625 -0.421875 C 4.453125 -0.242188 4.679688 -0.15625 4.953125 -0.15625 L 5.25 -0.15625 L 5.25 0 L 0.46875 0 L 0.46875 -0.15625 L 0.75 -0.15625 C 1.03125 -0.15625 1.265625 -0.242188 1.453125 -0.421875 C 1.640625 -0.609375 1.734375 -0.84375 1.734375 -1.125 L 1.734375 -9.296875 C 1.734375 -9.984375 1.6875 -10.5625 1.59375 -11.03125 L 1.5625 -11.265625 L 1.703125 -11.265625 L 9.65625 -3.6875 L 9.65625 -9.90625 C 9.644531 -10.175781 9.546875 -10.40625 9.359375 -10.59375 C 9.171875 -10.78125 8.941406 -10.875 8.671875 -10.875 L 8.390625 -10.875 L 8.390625 -11.03125 L 13.171875 -11.03125 L 13.171875 -10.875 Z M 12.875 -10.875 "/></g></g></g><g fill="#000000" fill-opacity="1"><g transform="translate(167.124257, 271.869724)"><g><path d="M 7.203125 0.203125 C 5.179688 0.203125 3.59375 -0.300781 2.4375 -1.3125 C 1.28125 -2.332031 0.703125 -3.726562 0.703125 -5.5 C 0.703125 -7.28125 1.273438 -8.679688 2.421875 -9.703125 C 3.566406 -10.734375 5.140625 -11.25 7.140625 -11.25 C 8.660156 -11.25 9.96875 -10.960938 11.0625 -10.390625 L 11.09375 -7.6875 L 10.96875 -7.6875 C 10.425781 -9.613281 9.203125 -10.578125 7.296875 -10.578125 C 6.054688 -10.578125 5.078125 -10.128906 4.359375 -9.234375 C 3.640625 -8.335938 3.28125 -7.113281 3.28125 -5.5625 C 3.28125 -4.007812 3.625 -2.773438 4.3125 -1.859375 C 5 -0.941406 5.929688 -0.46875 7.109375 -0.4375 C 8.328125 -0.4375 9.253906 -0.742188 9.890625 -1.359375 C 10.546875 -1.984375 11 -3.0625 11.25 -4.59375 L 11.375 -4.59375 L 11.53125 -1.890625 C 10.675781 -0.484375 9.234375 0.210938 7.203125 0.203125 Z M 7.203125 0.203125 "/></g></g></g><g fill="#000000" fill-opacity="1"><g transform="translate(181.174843, 271.869724)"><g><path d="M 0.859375 -0.15625 C 1.140625 -0.15625 1.375 -0.25 1.5625 -0.4375 C 1.757812 -0.632812 1.863281 -0.875 1.875 -1.15625 L 1.875 -9.890625 C 1.863281 -10.160156 1.757812 -10.390625 1.5625 -10.578125 C 1.375 -10.773438 1.140625 -10.875 0.859375 -10.875 L 0.65625 -10.875 L 0.65625 -11.03125 L 5.453125 -11.03125 L 5.4375 -10.875 L 5.25 -10.875 C 4.96875 -10.875 4.726562 -10.773438 4.53125 -10.578125 C 4.332031 -10.390625 4.234375 -10.160156 4.234375 -9.890625 L 4.234375 -1.15625 C 4.234375 -0.875 4.332031 -0.632812 4.53125 -0.4375 C 4.726562 -0.25 4.96875 -0.15625 5.25 -0.15625 L 5.4375 -0.15625 L 5.453125 0 L 0.65625 0 L 0.65625 -0.15625 Z M 0.859375 -0.15625 "/></g></g></g><g fill="#000000" fill-opacity="1"><g transform="translate(189.019962, 271.869724)"><g><path d="M 11.625 -0.15625 L 11.765625 -0.15625 L 11.765625 0 L 6.734375 0 L 6.734375 -0.15625 L 6.875 -0.15625 C 7.113281 -0.15625 7.285156 -0.222656 7.390625 -0.359375 C 7.503906 -0.503906 7.5625 -0.640625 7.5625 -0.765625 C 7.5625 -0.890625 7.535156 -1.019531 7.484375 -1.15625 L 6.703125 -3.09375 L 3.03125 -3.09375 L 2.203125 -1.15625 C 2.148438 -1.007812 2.125 -0.875 2.125 -0.75 C 2.125 -0.632812 2.179688 -0.503906 2.296875 -0.359375 C 2.410156 -0.222656 2.582031 -0.15625 2.8125 -0.15625 L 2.9375 -0.15625 L 2.9375 0 L -0.421875 0 L -0.421875 -0.15625 L -0.28125 -0.15625 C -0.0390625 -0.15625 0.195312 -0.226562 0.4375 -0.375 C 0.675781 -0.519531 0.878906 -0.742188 1.046875 -1.046875 L 4.671875 -9.28125 C 5.171875 -10.320312 5.4375 -11.007812 5.46875 -11.34375 L 5.609375 -11.34375 L 10.28125 -1.078125 C 10.4375 -0.765625 10.632812 -0.53125 10.875 -0.375 C 11.125 -0.226562 11.375 -0.15625 11.625 -0.15625 Z M 3.296875 -3.75 L 6.4375 -3.75 L 4.90625 -7.625 Z M 3.296875 -3.75 "/></g></g></g><g fill="#000000" fill-opacity="1"><g transform="translate(202.062552, 271.869724)"><g/></g></g><g fill="#000000" fill-opacity="1"><g transform="translate(207.76568, 271.869724)"><g><path d="M 11.625 -0.15625 L 11.765625 -0.15625 L 11.765625 0 L 6.734375 0 L 6.734375 -0.15625 L 6.875 -0.15625 C 7.113281 -0.15625 7.285156 -0.222656 7.390625 -0.359375 C 7.503906 -0.503906 7.5625 -0.640625 7.5625 -0.765625 C 7.5625 -0.890625 7.535156 -1.019531 7.484375 -1.15625 L 6.703125 -3.09375 L 3.03125 -3.09375 L 2.203125 -1.15625 C 2.148438 -1.007812 2.125 -0.875 2.125 -0.75 C 2.125 -0.632812 2.179688 -0.503906 2.296875 -0.359375 C 2.410156 -0.222656 2.582031 -0.15625 2.8125 -0.15625 L 2.9375 -0.15625 L 2.9375 0 L -0.421875 0 L -0.421875 -0.15625 L -0.28125 -0.15625 C -0.0390625 -0.15625 0.195312 -0.226562 0.4375 -0.375 C 0.675781 -0.519531 0.878906 -0.742188 1.046875 -1.046875 L 4.671875 -9.28125 C 5.171875 -10.320312 5.4375 -11.007812 5.46875 -11.34375 L 5.609375 -11.34375 L 10.28125 -1.078125 C 10.4375 -0.765625 10.632812 -0.53125 10.875 -0.375 C 11.125 -0.226562 11.375 -0.15625 11.625 -0.15625 Z M 3.296875 -3.75 L 6.4375 -3.75 L 4.90625 -7.625 Z M 3.296875 -3.75 "/></g></g></g><g fill="#000000" fill-opacity="1"><g transform="translate(220.80827, 271.869724)"><g><path d="M 5.015625 -10.328125 L 4.328125 -10.328125 C 4.304688 -10.328125 4.289062 -10.328125 4.28125 -10.328125 L 4.28125 -1.15625 C 4.289062 -0.875 4.390625 -0.632812 4.578125 -0.4375 C 4.773438 -0.25 5.015625 -0.15625 5.296875 -0.15625 L 5.5 -0.15625 L 5.5 0 L 0.703125 0 L 0.703125 -0.15625 L 0.90625 -0.15625 C 1.289062 -0.15625 1.582031 -0.316406 1.78125 -0.640625 C 1.863281 -0.785156 1.910156 -0.953125 1.921875 -1.140625 L 1.921875 -9.875 C 1.910156 -10.144531 1.804688 -10.378906 1.609375 -10.578125 C 1.421875 -10.773438 1.1875 -10.875 0.90625 -10.875 L 0.703125 -10.875 L 0.703125 -11.03125 L 6.109375 -11.03125 C 7.128906 -11.03125 7.988281 -10.804688 8.6875 -10.359375 C 9.050781 -10.140625 9.335938 -9.832031 9.546875 -9.4375 C 9.753906 -9.039062 9.859375 -8.523438 9.859375 -7.890625 C 9.859375 -7.265625 9.632812 -6.65625 9.1875 -6.0625 C 8.75 -5.476562 8.113281 -5.144531 7.28125 -5.0625 C 7.882812 -4.851562 8.421875 -4.390625 8.890625 -3.671875 C 10.015625 -1.847656 10.851562 -0.765625 11.40625 -0.421875 C 11.675781 -0.253906 12.015625 -0.164062 12.421875 -0.15625 L 12.421875 0 L 10.890625 0 C 9.972656 0 9.210938 -0.117188 8.609375 -0.359375 C 8.003906 -0.597656 7.53125 -1.023438 7.1875 -1.640625 C 6.976562 -1.984375 6.539062 -2.878906 5.875 -4.328125 C 5.582031 -4.972656 5.222656 -5.328125 4.796875 -5.390625 L 4.796875 -5.546875 L 5.296875 -5.546875 C 5.765625 -5.546875 6.179688 -5.6875 6.546875 -5.96875 C 6.910156 -6.25 7.15625 -6.710938 7.28125 -7.359375 C 7.320312 -7.578125 7.34375 -7.75 7.34375 -7.875 C 7.34375 -8.738281 7.164062 -9.359375 6.8125 -9.734375 C 6.46875 -10.117188 6.023438 -10.316406 5.484375 -10.328125 C 5.378906 -10.328125 5.222656 -10.328125 5.015625 -10.328125 Z M 5.015625 -10.328125 "/></g></g></g><g fill="#000000" fill-opacity="1"><g transform="translate(234.339111, 271.869724)"><g><path d="M 6.4375 -10.375 L 6.4375 -1.140625 C 6.445312 -0.859375 6.550781 -0.625 6.75 -0.4375 C 6.945312 -0.25 7.179688 -0.15625 7.453125 -0.15625 L 7.640625 -0.15625 L 7.65625 0 L 2.859375 0 L 2.859375 -0.15625 L 3.078125 -0.15625 C 3.335938 -0.15625 3.5625 -0.25 3.75 -0.4375 C 3.945312 -0.625 4.054688 -0.851562 4.078125 -1.125 L 4.078125 -10.375 L 1.953125 -10.375 C 1.472656 -10.363281 1.085938 -10.210938 0.796875 -9.921875 C 0.515625 -9.628906 0.375 -9.242188 0.375 -8.765625 L 0.375 -8.578125 L 0.21875 -8.578125 L 0.21875 -11.328125 C 0.644531 -11.148438 1.265625 -11.054688 2.078125 -11.046875 L 8.421875 -11.046875 C 8.753906 -11.046875 9.109375 -11.078125 9.484375 -11.140625 C 9.867188 -11.203125 10.132812 -11.265625 10.28125 -11.328125 L 10.28125 -8.578125 L 10.125 -8.578125 L 10.125 -8.765625 C 10.125 -9.421875 9.878906 -9.882812 9.390625 -10.15625 C 9.160156 -10.289062 8.878906 -10.363281 8.546875 -10.375 Z M 6.4375 -10.375 "/></g></g></g><g fill="#000000" fill-opacity="1"><g transform="translate(246.59421, 271.869724)"><g><path d="M 0.859375 -0.15625 C 1.140625 -0.15625 1.375 -0.25 1.5625 -0.4375 C 1.757812 -0.632812 1.863281 -0.875 1.875 -1.15625 L 1.875 -9.890625 C 1.863281 -10.160156 1.757812 -10.390625 1.5625 -10.578125 C 1.375 -10.773438 1.140625 -10.875 0.859375 -10.875 L 0.65625 -10.875 L 0.65625 -11.03125 L 5.453125 -11.03125 L 5.4375 -10.875 L 5.25 -10.875 C 4.96875 -10.875 4.726562 -10.773438 4.53125 -10.578125 C 4.332031 -10.390625 4.234375 -10.160156 4.234375 -9.890625 L 4.234375 -1.15625 C 4.234375 -0.875 4.332031 -0.632812 4.53125 -0.4375 C 4.726562 -0.25 4.96875 -0.15625 5.25 -0.15625 L 5.4375 -0.15625 L 5.453125 0 L 0.65625 0 L 0.65625 -0.15625 Z M 0.859375 -0.15625 "/></g></g></g><g fill="#000000" fill-opacity="1"><g transform="translate(254.439318, 271.869724)"><g><path d="M 4.234375 -10.34375 L 4.234375 -5.765625 L 6.3125 -5.765625 C 6.707031 -5.773438 7.03125 -5.90625 7.28125 -6.15625 C 7.53125 -6.40625 7.65625 -6.726562 7.65625 -7.125 L 7.65625 -7.265625 L 7.8125 -7.265625 L 7.8125 -3.625 L 7.65625 -3.625 L 7.65625 -3.75 C 7.65625 -4.132812 7.53125 -4.453125 7.28125 -4.703125 C 7.039062 -4.960938 6.726562 -5.097656 6.34375 -5.109375 L 4.234375 -5.109375 L 4.234375 -1.15625 C 4.234375 -0.875 4.332031 -0.632812 4.53125 -0.4375 C 4.726562 -0.25 4.96875 -0.15625 5.25 -0.15625 L 5.4375 -0.15625 L 5.453125 0 L 0.65625 0 L 0.65625 -0.15625 L 0.859375 -0.15625 C 1.140625 -0.15625 1.375 -0.25 1.5625 -0.4375 C 1.757812 -0.632812 1.863281 -0.875 1.875 -1.15625 L 1.875 -9.921875 C 1.875 -10.285156 1.703125 -10.554688 1.359375 -10.734375 C 1.210938 -10.828125 1.046875 -10.875 0.859375 -10.875 L 0.65625 -10.875 L 0.65625 -11.03125 L 6.6875 -11.03125 C 7.019531 -11.03125 7.378906 -11.0625 7.765625 -11.125 C 8.148438 -11.1875 8.421875 -11.25 8.578125 -11.3125 L 8.578125 -8.640625 L 8.421875 -8.640625 L 8.421875 -8.796875 C 8.421875 -9.265625 8.285156 -9.632812 8.015625 -9.90625 C 7.753906 -10.1875 7.394531 -10.332031 6.9375 -10.34375 Z M 4.234375 -10.34375 "/></g></g></g><g fill="#000000" fill-opacity="1"><g transform="translate(265.576158, 271.869724)"><g><path d="M 0.859375 -0.15625 C 1.140625 -0.15625 1.375 -0.25 1.5625 -0.4375 C 1.757812 -0.632812 1.863281 -0.875 1.875 -1.15625 L 1.875 -9.890625 C 1.863281 -10.160156 1.757812 -10.390625 1.5625 -10.578125 C 1.375 -10.773438 1.140625 -10.875 0.859375 -10.875 L 0.65625 -10.875 L 0.65625 -11.03125 L 5.453125 -11.03125 L 5.4375 -10.875 L 5.25 -10.875 C 4.96875 -10.875 4.726562 -10.773438 4.53125 -10.578125 C 4.332031 -10.390625 4.234375 -10.160156 4.234375 -9.890625 L 4.234375 -1.15625 C 4.234375 -0.875 4.332031 -0.632812 4.53125 -0.4375 C 4.726562 -0.25 4.96875 -0.15625 5.25 -0.15625 L 5.4375 -0.15625 L 5.453125 0 L 0.65625 0 L 0.65625 -0.15625 Z M 0.859375 -0.15625 "/></g></g></g><g fill="#000000" fill-opacity="1"><g transform="translate(273.421265, 271.869724)"><g><path d="M 7.203125 0.203125 C 5.179688 0.203125 3.59375 -0.300781 2.4375 -1.3125 C 1.28125 -2.332031 0.703125 -3.726562 0.703125 -5.5 C 0.703125 -7.28125 1.273438 -8.679688 2.421875 -9.703125 C 3.566406 -10.734375 5.140625 -11.25 7.140625 -11.25 C 8.660156 -11.25 9.96875 -10.960938 11.0625 -10.390625 L 11.09375 -7.6875 L 10.96875 -7.6875 C 10.425781 -9.613281 9.203125 -10.578125 7.296875 -10.578125 C 6.054688 -10.578125 5.078125 -10.128906 4.359375 -9.234375 C 3.640625 -8.335938 3.28125 -7.113281 3.28125 -5.5625 C 3.28125 -4.007812 3.625 -2.773438 4.3125 -1.859375 C 5 -0.941406 5.929688 -0.46875 7.109375 -0.4375 C 8.328125 -0.4375 9.253906 -0.742188 9.890625 -1.359375 C 10.546875 -1.984375 11 -3.0625 11.25 -4.59375 L 11.375 -4.59375 L 11.53125 -1.890625 C 10.675781 -0.484375 9.234375 0.210938 7.203125 0.203125 Z M 7.203125 0.203125 "/></g></g></g><g fill="#000000" fill-opacity="1"><g transform="translate(287.471839, 271.869724)"><g><path d="M 0.859375 -0.15625 C 1.140625 -0.15625 1.375 -0.25 1.5625 -0.4375 C 1.757812 -0.632812 1.863281 -0.875 1.875 -1.15625 L 1.875 -9.890625 C 1.863281 -10.160156 1.757812 -10.390625 1.5625 -10.578125 C 1.375 -10.773438 1.140625 -10.875 0.859375 -10.875 L 0.65625 -10.875 L 0.65625 -11.03125 L 5.453125 -11.03125 L 5.4375 -10.875 L 5.25 -10.875 C 4.96875 -10.875 4.726562 -10.773438 4.53125 -10.578125 C 4.332031 -10.390625 4.234375 -10.160156 4.234375 -9.890625 L 4.234375 -1.15625 C 4.234375 -0.875 4.332031 -0.632812 4.53125 -0.4375 C 4.726562 -0.25 4.96875 -0.15625 5.25 -0.15625 L 5.4375 -0.15625 L 5.453125 0 L 0.65625 0 L 0.65625 -0.15625 Z M 0.859375 -0.15625 "/></g></g></g><g fill="#000000" fill-opacity="1"><g transform="translate(295.316947, 271.869724)"><g><path d="M 11.625 -0.15625 L 11.765625 -0.15625 L 11.765625 0 L 6.734375 0 L 6.734375 -0.15625 L 6.875 -0.15625 C 7.113281 -0.15625 7.285156 -0.222656 7.390625 -0.359375 C 7.503906 -0.503906 7.5625 -0.640625 7.5625 -0.765625 C 7.5625 -0.890625 7.535156 -1.019531 7.484375 -1.15625 L 6.703125 -3.09375 L 3.03125 -3.09375 L 2.203125 -1.15625 C 2.148438 -1.007812 2.125 -0.875 2.125 -0.75 C 2.125 -0.632812 2.179688 -0.503906 2.296875 -0.359375 C 2.410156 -0.222656 2.582031 -0.15625 2.8125 -0.15625 L 2.9375 -0.15625 L 2.9375 0 L -0.421875 0 L -0.421875 -0.15625 L -0.28125 -0.15625 C -0.0390625 -0.15625 0.195312 -0.226562 0.4375 -0.375 C 0.675781 -0.519531 0.878906 -0.742188 1.046875 -1.046875 L 4.671875 -9.28125 C 5.171875 -10.320312 5.4375 -11.007812 5.46875 -11.34375 L 5.609375 -11.34375 L 10.28125 -1.078125 C 10.4375 -0.765625 10.632812 -0.53125 10.875 -0.375 C 11.125 -0.226562 11.375 -0.15625 11.625 -0.15625 Z M 3.296875 -3.75 L 6.4375 -3.75 L 4.90625 -7.625 Z M 3.296875 -3.75 "/></g></g></g><g fill="#000000" fill-opacity="1"><g transform="translate(308.359525, 271.869724)"><g><path d="M 0.859375 -0.15625 C 1.140625 -0.15625 1.375 -0.25 1.5625 -0.4375 C 1.757812 -0.632812 1.863281 -0.875 1.875 -1.15625 L 1.875 -9.875 C 1.863281 -10.144531 1.757812 -10.378906 1.5625 -10.578125 C 1.375 -10.773438 1.140625 -10.875 0.859375 -10.875 L 0.65625 -10.875 L 0.65625 -11.03125 L 5.453125 -11.03125 L 5.4375 -10.875 L 5.25 -10.875 C 4.96875 -10.875 4.726562 -10.773438 4.53125 -10.578125 C 4.332031 -10.378906 4.234375 -10.144531 4.234375 -9.875 L 4.234375 -0.671875 L 6.296875 -0.671875 C 7.066406 -0.671875 7.710938 -0.890625 8.234375 -1.328125 C 8.753906 -1.773438 9.140625 -2.40625 9.390625 -3.21875 L 9.546875 -3.21875 L 8.8125 0 L 0.65625 0 L 0.65625 -0.15625 Z M 0.859375 -0.15625 "/></g></g></g></svg>