<svg xmlns="http://www.w3.org/2000/svg" xmlns:xlink="http://www.w3.org/1999/xlink" width="1366" zoomAndPan="magnify" viewBox="0 0 1024.5 576" height="768" preserveAspectRatio="xMidYMid meet" version="1.0"><defs><g/><clipPath id="45f0400734"><path d="M 0 0.140625 L 1024 0.140625 L 1024 575.859375 L 0 575.859375 Z M 0 0.140625 " clip-rule="nonzero"/></clipPath><clipPath id="db7278219f"><path d="M 132 338 L 262 338 L 262 345.289062 L 132 345.289062 Z M 132 338 " clip-rule="nonzero"/></clipPath><clipPath id="31c6b8fe13"><path d="M 189 196.109375 L 205 196.109375 L 205 217 L 189 217 Z M 189 196.109375 " clip-rule="nonzero"/></clipPath><clipPath id="371b4d3071"><path d="M 122.386719 218 L 191 218 L 191 304 L 122.386719 304 Z M 122.386719 218 " clip-rule="nonzero"/></clipPath><clipPath id="8dad354f73"><path d="M 203 218 L 271.5625 218 L 271.5625 304 L 203 304 Z M 203 218 " clip-rule="nonzero"/></clipPath><clipPath id="dfa0d76782"><path d="M 112.976562 186.703125 L 280.894531 186.703125 L 280.894531 354.621094 L 112.976562 354.621094 Z M 112.976562 186.703125 " clip-rule="nonzero"/></clipPath><clipPath id="162e513f27"><path d="M 751.132812 190.453125 L 919.050781 190.453125 L 919.050781 358.371094 L 751.132812 358.371094 Z M 751.132812 190.453125 " clip-rule="nonzero"/></clipPath><clipPath id="842d893aff"><path d="M 819 199.859375 L 836 199.859375 L 836 216 L 819 216 Z M 819 199.859375 " clip-rule="nonzero"/></clipPath><clipPath id="ae23debc9f"><path d="M 892 250 L 908.398438 250 L 908.398438 267 L 892 267 Z M 892 250 " clip-rule="nonzero"/></clipPath><clipPath id="4266f4e09f"><path d="M 892 282 L 908.398438 282 L 908.398438 299 L 892 299 Z M 892 282 " clip-rule="nonzero"/></clipPath><clipPath id="81c268798c"><path d="M 819 333 L 836 333 L 836 349.035156 L 819 349.035156 Z M 819 333 " clip-rule="nonzero"/></clipPath><clipPath id="e7b81dc9ab"><path d="M 761.472656 250 L 778 250 L 778 267 L 761.472656 267 Z M 761.472656 250 " clip-rule="nonzero"/></clipPath><clipPath id="05ce38b240"><path d="M 761.472656 282 L 778 282 L 778 299 L 761.472656 299 Z M 761.472656 282 " clip-rule="nonzero"/></clipPath></defs><g clip-path="url(#45f0400734)"><path fill="#ffffff" d="M 0 0.140625 L 1024 0.140625 L 1024 575.859375 L 0 575.859375 Z M 0 0.140625 " fill-opacity="1" fill-rule="nonzero"/><path fill="#ffffff" d="M 0 0.140625 L 1024 0.140625 L 1024 575.859375 L 0 575.859375 Z M 0 0.140625 " fill-opacity="1" fill-rule="nonzero"/></g><g clip-path="url(#db7278219f)"><path fill="#000000" d="M 255.507812 338.667969 L 138.429688 338.667969 C 136.125 338.667969 134.066406 340.214844 133.421875 342.429688 L 132.589844 345.289062 L 261.347656 345.289062 L 260.515625 342.429688 C 259.871094 340.214844 257.8125 338.667969 255.507812 338.667969 Z M 255.507812 338.667969 " fill-opacity="1" fill-rule="nonzero"/></g><path fill="#000000" d="M 193.042969 218.871094 L 200.894531 218.871094 L 200.894531 222.984375 L 193.042969 222.984375 Z M 193.042969 218.871094 " fill-opacity="1" fill-rule="nonzero"/><g clip-path="url(#31c6b8fe13)"><path fill="#000000" d="M 201.574219 216.425781 C 203.523438 214.28125 204.6875 210.964844 204.6875 207.410156 C 204.6875 201.179688 201.226562 196.109375 196.96875 196.109375 C 192.710938 196.109375 189.25 201.179688 189.25 207.410156 C 189.25 210.960938 190.414062 214.28125 192.363281 216.425781 Z M 201.574219 216.425781 " fill-opacity="1" fill-rule="nonzero"/></g><path fill="#000000" d="M 193.042969 225.429688 L 200.894531 225.429688 L 200.894531 320.015625 L 193.042969 320.015625 Z M 193.042969 225.429688 " fill-opacity="1" fill-rule="nonzero"/><path fill="#000000" d="M 164.523438 329.636719 C 162.257812 329.636719 160.226562 331.160156 159.59375 333.335938 L 158.753906 336.222656 L 235.1875 336.222656 L 234.34375 333.335938 C 233.710938 331.15625 231.679688 329.636719 229.414062 329.636719 Z M 164.523438 329.636719 " fill-opacity="1" fill-rule="nonzero"/><path fill="#000000" d="M 191.820312 322.460938 L 178.070312 322.460938 L 178.070312 327.191406 L 215.867188 327.191406 L 215.867188 322.460938 Z M 191.820312 322.460938 " fill-opacity="1" fill-rule="nonzero"/><g clip-path="url(#371b4d3071)"><path fill="#000000" d="M 174.597656 287.539062 L 168.640625 287.539062 L 155.652344 236.6875 C 156.722656 236.878906 157.792969 236.988281 158.847656 236.988281 C 163.816406 236.988281 167.640625 235.507812 171.339844 234.074219 C 174.28125 232.9375 177.058594 231.859375 180.015625 231.761719 C 184.371094 231.617188 188.324219 233.546875 190.597656 234.941406 L 190.597656 225.046875 C 188.785156 224.429688 183.328125 222.804688 178.445312 223.640625 C 175.902344 224.074219 173.4375 225.398438 170.824219 226.800781 C 167.183594 228.757812 163.417969 230.777344 158.847656 230.777344 C 153.570312 230.777344 150.644531 228.933594 149.207031 227.589844 C 148.710938 228.148438 148.132812 228.644531 147.464844 229.027344 C 146.878906 229.363281 146.132812 229.160156 145.796875 228.574219 C 145.460938 227.988281 145.664062 227.242188 146.25 226.902344 C 147.660156 226.097656 148.539062 224.585938 148.539062 222.964844 C 148.539062 220.460938 146.503906 218.429688 144 218.429688 C 141.5 218.429688 139.464844 220.460938 139.464844 222.964844 C 139.464844 225.367188 140.863281 227.890625 143.070312 230.128906 L 128.40625 287.539062 L 122.445312 287.539062 C 123.402344 296.441406 134.734375 303.492188 148.523438 303.492188 C 162.3125 303.492188 173.644531 296.441406 174.597656 287.539062 Z M 166.101562 287.539062 L 149.746094 287.539062 L 149.746094 234.769531 C 150.78125 235.257812 151.851562 235.675781 152.941406 236.015625 Z M 147.300781 233.457031 L 147.300781 287.539062 L 130.941406 287.539062 L 145.144531 231.953125 C 145.824219 232.480469 146.539062 232.988281 147.300781 233.457031 Z M 147.300781 233.457031 " fill-opacity="1" fill-rule="nonzero"/></g><g clip-path="url(#8dad354f73)"><path fill="#000000" d="M 265.535156 287.539062 L 250.867188 230.128906 C 253.074219 227.894531 254.472656 225.371094 254.472656 222.964844 C 254.472656 220.464844 252.4375 218.429688 249.9375 218.429688 C 247.433594 218.429688 245.398438 220.464844 245.398438 222.964844 C 245.398438 224.589844 246.273438 226.097656 247.6875 226.90625 C 248.273438 227.242188 248.476562 227.988281 248.140625 228.574219 C 247.804688 229.160156 247.058594 229.363281 246.472656 229.027344 C 245.804688 228.644531 245.226562 228.152344 244.726562 227.589844 C 243.292969 228.933594 240.367188 230.777344 235.089844 230.777344 C 230.519531 230.777344 226.753906 228.757812 223.109375 226.800781 C 220.5 225.402344 218.035156 224.078125 215.492188 223.640625 C 210.609375 222.804688 205.15625 224.433594 203.339844 225.046875 L 203.339844 234.949219 C 205.609375 233.558594 209.566406 231.632812 213.921875 231.761719 C 216.878906 231.859375 219.65625 232.9375 222.597656 234.074219 C 226.296875 235.507812 230.121094 236.988281 235.089844 236.988281 C 236.144531 236.988281 237.214844 236.878906 238.285156 236.6875 L 225.296875 287.539062 L 219.335938 287.539062 C 220.296875 296.441406 231.625 303.492188 245.414062 303.492188 C 259.203125 303.492188 270.535156 296.441406 271.492188 287.539062 Z M 248.796875 231.953125 L 262.996094 287.539062 L 246.636719 287.539062 L 246.636719 233.457031 C 247.398438 232.988281 248.113281 232.480469 248.796875 231.953125 Z M 244.191406 234.769531 L 244.191406 287.539062 L 227.835938 287.539062 L 240.996094 236.015625 C 242.085938 235.675781 243.15625 235.257812 244.191406 234.769531 Z M 244.191406 234.769531 " fill-opacity="1" fill-rule="nonzero"/></g><g clip-path="url(#dfa0d76782)"><path fill="#000000" d="M 280.894531 354.621094 L 112.976562 354.621094 L 112.976562 186.703125 L 280.894531 186.703125 Z M 114.046875 353.554688 L 279.828125 353.554688 L 279.828125 187.773438 L 114.046875 187.773438 Z M 114.046875 353.554688 " fill-opacity="1" fill-rule="nonzero"/></g><path stroke-linecap="butt" transform="matrix(0, -0.749634, 0.749634, 0, 304.568434, 353.5703)" fill="none" stroke-linejoin="miter" d="M -0.0000164827 1.998271 L 223.801873 1.998271 " stroke="#a6a6a6" stroke-width="4" stroke-opacity="1" stroke-miterlimit="4"/><g clip-path="url(#162e513f27)"><path fill="#000000" d="M 919.050781 358.371094 L 751.132812 358.371094 L 751.132812 190.453125 L 919.050781 190.453125 Z M 752.199219 357.300781 L 917.984375 357.300781 L 917.984375 191.519531 L 752.199219 191.519531 Z M 752.199219 357.300781 " fill-opacity="1" fill-rule="nonzero"/></g><path stroke-linecap="butt" transform="matrix(0, -0.749634, 0.749634, 0, 729.700396, 357.318471)" fill="none" stroke-linejoin="miter" d="M -0.00245691 1.999405 L 223.799432 1.999405 " stroke="#a6a6a6" stroke-width="4" stroke-opacity="1" stroke-miterlimit="4"/><path fill="#000000" d="M 859.035156 303.15625 L 810.746094 303.15625 C 805.777344 303.15625 801.683594 299.046875 801.683594 294.066406 L 801.683594 254.828125 C 801.683594 249.761719 805.777344 245.652344 810.746094 245.652344 L 859.035156 245.652344 C 864.09375 245.652344 868.1875 249.761719 868.1875 254.828125 L 868.1875 294.066406 C 868.1875 299.046875 864.09375 303.15625 859.035156 303.15625 Z M 812.402344 284.980469 C 812.230469 284.980469 812.054688 284.980469 811.878906 284.890625 C 811.097656 284.628906 810.746094 283.753906 811.097656 282.96875 L 814.234375 275.101562 L 814.234375 275.015625 L 819.898438 260.859375 C 819.898438 260.859375 819.898438 260.769531 819.898438 260.769531 C 819.988281 260.597656 820.074219 260.421875 820.25 260.335938 C 820.335938 260.160156 820.511719 260.070312 820.683594 259.984375 C 820.683594 259.984375 820.683594 259.984375 820.769531 259.984375 C 820.945312 259.898438 821.03125 259.898438 821.207031 259.898438 C 821.382812 259.898438 821.554688 259.898438 821.730469 259.984375 C 821.730469 259.984375 821.816406 259.984375 821.816406 259.984375 C 821.992188 260.070312 822.167969 260.160156 822.253906 260.335938 C 822.425781 260.421875 822.515625 260.597656 822.601562 260.769531 C 822.601562 260.769531 822.601562 260.859375 822.601562 260.859375 L 828.265625 275.015625 L 828.265625 275.101562 L 831.40625 282.96875 C 831.667969 283.753906 831.316406 284.628906 830.621094 284.890625 C 829.835938 285.152344 828.964844 284.804688 828.703125 284.105469 L 825.914062 277.113281 L 816.585938 277.113281 L 813.796875 284.105469 C 813.535156 284.628906 813.015625 284.980469 812.402344 284.980469 Z M 845.613281 285.066406 L 837.855469 285.066406 C 837.070312 285.066406 836.460938 284.453125 836.460938 283.667969 C 836.460938 282.792969 837.070312 282.183594 837.855469 282.183594 L 844.132812 282.183594 L 844.132812 262.695312 L 837.855469 262.695312 C 837.070312 262.695312 836.460938 262.082031 836.460938 261.296875 C 836.460938 260.421875 837.070312 259.808594 837.855469 259.808594 L 853.285156 259.808594 C 854.066406 259.808594 854.765625 260.421875 854.765625 261.296875 C 854.765625 262.082031 854.066406 262.695312 853.285156 262.695312 L 847.007812 262.695312 L 847.007812 282.183594 L 853.285156 282.183594 C 854.066406 282.183594 854.765625 282.792969 854.765625 283.667969 C 854.765625 284.453125 854.066406 285.066406 853.285156 285.066406 Z M 824.78125 274.140625 L 821.207031 265.316406 L 817.722656 274.140625 Z M 824.78125 274.140625 " fill-opacity="1" fill-rule="evenodd"/><path fill="#000000" d="M 827.222656 248.625 C 826.4375 248.625 825.738281 247.925781 825.738281 247.136719 L 825.738281 214.191406 C 825.738281 213.40625 826.4375 212.707031 827.222656 212.707031 C 828.007812 212.707031 828.617188 213.40625 828.617188 214.191406 L 828.617188 247.136719 C 828.617188 247.925781 828.007812 248.625 827.222656 248.625 Z M 827.222656 248.625 " fill-opacity="1" fill-rule="evenodd"/><g clip-path="url(#842d893aff)"><path fill="#000000" d="M 827.222656 215.675781 C 822.863281 215.675781 819.289062 212.09375 819.289062 207.726562 C 819.289062 203.441406 822.863281 199.859375 827.222656 199.859375 C 831.578125 199.859375 835.066406 203.441406 835.066406 207.726562 C 835.066406 212.09375 831.578125 215.675781 827.222656 215.675781 Z M 827.222656 215.675781 " fill-opacity="1" fill-rule="evenodd"/></g><path fill="#000000" d="M 842.648438 248.625 C 841.863281 248.625 841.167969 247.925781 841.167969 247.136719 L 841.167969 233.503906 C 841.167969 232.71875 841.863281 232.019531 842.648438 232.019531 C 843.433594 232.019531 844.132812 232.71875 844.132812 233.503906 L 844.132812 247.136719 C 844.132812 247.925781 843.433594 248.625 842.648438 248.625 Z M 842.648438 248.625 " fill-opacity="1" fill-rule="evenodd"/><path fill="#000000" d="M 842.648438 234.992188 C 838.292969 234.992188 834.804688 231.40625 834.804688 227.039062 C 834.804688 222.757812 838.292969 219.171875 842.648438 219.171875 C 847.007812 219.171875 850.496094 222.757812 850.496094 227.039062 C 850.496094 231.40625 847.007812 234.992188 842.648438 234.992188 Z M 842.648438 234.992188 " fill-opacity="1" fill-rule="evenodd"/><path fill="#000000" d="M 858.078125 248.625 C 857.292969 248.625 856.597656 247.925781 856.597656 247.136719 L 856.597656 225.816406 C 856.597656 221.53125 860.082031 218.035156 864.351562 218.035156 L 873.59375 218.035156 C 874.378906 218.035156 875.074219 218.734375 875.074219 219.523438 C 875.074219 220.308594 874.378906 221.007812 873.59375 221.007812 L 864.351562 221.007812 C 861.738281 221.007812 859.558594 223.105469 859.558594 225.816406 L 859.558594 247.136719 C 859.558594 247.925781 858.863281 248.625 858.078125 248.625 Z M 858.078125 248.625 " fill-opacity="1" fill-rule="evenodd"/><path fill="#000000" d="M 880.042969 227.386719 C 875.683594 227.386719 872.109375 223.890625 872.109375 219.523438 C 872.109375 215.152344 875.683594 211.65625 880.042969 211.65625 C 884.402344 211.65625 887.886719 215.152344 887.886719 219.523438 C 887.886719 223.890625 884.402344 227.386719 880.042969 227.386719 Z M 880.042969 227.386719 " fill-opacity="1" fill-rule="evenodd"/><path fill="#000000" d="M 811.792969 248.625 C 810.921875 248.625 810.3125 247.925781 810.3125 247.136719 L 810.3125 225.816406 C 810.3125 223.105469 808.132812 221.007812 805.519531 221.007812 L 796.277344 221.007812 C 795.40625 221.007812 794.796875 220.308594 794.796875 219.523438 C 794.796875 218.734375 795.40625 218.035156 796.277344 218.035156 L 805.519531 218.035156 C 809.789062 218.035156 813.1875 221.53125 813.1875 225.816406 L 813.1875 247.136719 C 813.1875 247.925781 812.578125 248.625 811.792969 248.625 Z M 811.792969 248.625 " fill-opacity="1" fill-rule="evenodd"/><path fill="#000000" d="M 789.828125 227.386719 C 785.46875 227.386719 781.984375 223.890625 781.984375 219.523438 C 781.984375 215.152344 785.46875 211.65625 789.828125 211.65625 C 794.1875 211.65625 797.671875 215.152344 797.671875 219.523438 C 797.671875 223.890625 794.1875 227.386719 789.828125 227.386719 Z M 789.828125 227.386719 " fill-opacity="1" fill-rule="evenodd"/><path fill="#000000" d="M 894.078125 260.070312 L 866.707031 260.070312 C 865.921875 260.070312 865.226562 259.371094 865.226562 258.585938 C 865.226562 257.800781 865.921875 257.1875 866.707031 257.1875 L 894.078125 257.1875 C 894.859375 257.1875 895.472656 257.800781 895.472656 258.585938 C 895.472656 259.371094 894.859375 260.070312 894.078125 260.070312 Z M 894.078125 260.070312 " fill-opacity="1" fill-rule="evenodd"/><g clip-path="url(#ae23debc9f)"><path fill="#000000" d="M 900.4375 266.539062 C 896.167969 266.539062 892.59375 262.957031 892.59375 258.585938 C 892.59375 254.21875 896.167969 250.722656 900.4375 250.722656 C 904.796875 250.722656 908.371094 254.21875 908.371094 258.585938 C 908.371094 262.957031 904.796875 266.539062 900.4375 266.539062 Z M 900.4375 266.539062 " fill-opacity="1" fill-rule="evenodd"/></g><path fill="#000000" d="M 874.898438 275.890625 L 866.707031 275.890625 C 865.921875 275.890625 865.226562 275.277344 865.226562 274.402344 C 865.226562 273.617188 865.921875 273.007812 866.707031 273.007812 L 874.898438 273.007812 C 875.683594 273.007812 876.292969 273.617188 876.292969 274.402344 C 876.292969 275.277344 875.683594 275.890625 874.898438 275.890625 Z M 874.898438 275.890625 " fill-opacity="1" fill-rule="evenodd"/><path fill="#000000" d="M 881.261719 282.355469 C 876.992188 282.355469 873.417969 278.773438 873.417969 274.402344 C 873.417969 270.121094 876.992188 266.539062 881.261719 266.539062 C 885.621094 266.539062 889.195312 270.121094 889.195312 274.402344 C 889.195312 278.773438 885.621094 282.355469 881.261719 282.355469 Z M 881.261719 282.355469 " fill-opacity="1" fill-rule="evenodd"/><path fill="#000000" d="M 894.078125 291.621094 L 866.707031 291.621094 C 865.921875 291.621094 865.226562 291.007812 865.226562 290.132812 C 865.226562 289.347656 865.921875 288.738281 866.707031 288.738281 L 894.078125 288.738281 C 894.859375 288.738281 895.472656 289.347656 895.472656 290.132812 C 895.472656 291.007812 894.859375 291.621094 894.078125 291.621094 Z M 894.078125 291.621094 " fill-opacity="1" fill-rule="evenodd"/><g clip-path="url(#4266f4e09f)"><path fill="#000000" d="M 900.4375 298.085938 C 896.167969 298.085938 892.59375 294.503906 892.59375 290.132812 C 892.59375 285.851562 896.167969 282.269531 900.4375 282.269531 C 904.796875 282.269531 908.371094 285.851562 908.371094 290.132812 C 908.371094 294.503906 904.796875 298.085938 900.4375 298.085938 Z M 900.4375 298.085938 " fill-opacity="1" fill-rule="evenodd"/></g><path fill="#000000" d="M 827.222656 336.101562 C 826.4375 336.101562 825.738281 335.492188 825.738281 334.703125 L 825.738281 301.757812 C 825.738281 300.882812 826.4375 300.273438 827.222656 300.273438 C 828.007812 300.273438 828.617188 300.882812 828.617188 301.757812 L 828.617188 334.703125 C 828.617188 335.492188 828.007812 336.101562 827.222656 336.101562 Z M 827.222656 336.101562 " fill-opacity="1" fill-rule="evenodd"/><g clip-path="url(#81c268798c)"><path fill="#000000" d="M 827.222656 349.035156 C 822.863281 349.035156 819.289062 345.453125 819.289062 341.082031 C 819.289062 336.714844 822.863281 333.21875 827.222656 333.21875 C 831.578125 333.21875 835.066406 336.714844 835.066406 341.082031 C 835.066406 345.453125 831.578125 349.035156 827.222656 349.035156 Z M 827.222656 349.035156 " fill-opacity="1" fill-rule="evenodd"/></g><path fill="#000000" d="M 842.648438 316.789062 C 841.863281 316.789062 841.167969 316.175781 841.167969 315.390625 L 841.167969 301.757812 C 841.167969 300.882812 841.863281 300.273438 842.648438 300.273438 C 843.433594 300.273438 844.132812 300.882812 844.132812 301.757812 L 844.132812 315.390625 C 844.132812 316.175781 843.433594 316.789062 842.648438 316.789062 Z M 842.648438 316.789062 " fill-opacity="1" fill-rule="evenodd"/><path fill="#000000" d="M 842.648438 329.722656 C 838.292969 329.722656 834.804688 326.140625 834.804688 321.769531 C 834.804688 317.402344 838.292969 313.90625 842.648438 313.90625 C 847.007812 313.90625 850.496094 317.402344 850.496094 321.769531 C 850.496094 326.140625 847.007812 329.722656 842.648438 329.722656 Z M 842.648438 329.722656 " fill-opacity="1" fill-rule="evenodd"/><path fill="#000000" d="M 873.59375 330.773438 L 864.351562 330.773438 C 860.082031 330.773438 856.597656 327.363281 856.597656 323.082031 L 856.597656 301.757812 C 856.597656 300.882812 857.292969 300.273438 858.078125 300.273438 C 858.863281 300.273438 859.558594 300.882812 859.558594 301.757812 L 859.558594 323.082031 C 859.558594 325.703125 861.738281 327.886719 864.351562 327.886719 L 873.59375 327.886719 C 874.378906 327.886719 875.074219 328.5 875.074219 329.375 C 875.074219 330.160156 874.378906 330.773438 873.59375 330.773438 Z M 873.59375 330.773438 " fill-opacity="1" fill-rule="evenodd"/><path fill="#000000" d="M 880.042969 337.238281 C 875.683594 337.238281 872.109375 333.65625 872.109375 329.375 C 872.109375 325.003906 875.683594 321.421875 880.042969 321.421875 C 884.402344 321.421875 887.886719 325.003906 887.886719 329.375 C 887.886719 333.65625 884.402344 337.238281 880.042969 337.238281 Z M 880.042969 337.238281 " fill-opacity="1" fill-rule="evenodd"/><path fill="#000000" d="M 805.519531 330.773438 L 796.277344 330.773438 C 795.40625 330.773438 794.796875 330.160156 794.796875 329.375 C 794.796875 328.5 795.40625 327.886719 796.277344 327.886719 L 805.519531 327.886719 C 808.132812 327.886719 810.3125 325.703125 810.3125 323.082031 L 810.3125 301.757812 C 810.3125 300.882812 810.921875 300.273438 811.792969 300.273438 C 812.578125 300.273438 813.1875 300.882812 813.1875 301.757812 L 813.1875 323.082031 C 813.1875 327.363281 809.789062 330.773438 805.519531 330.773438 Z M 805.519531 330.773438 " fill-opacity="1" fill-rule="evenodd"/><path fill="#000000" d="M 789.828125 337.238281 C 785.46875 337.238281 781.984375 333.65625 781.984375 329.375 C 781.984375 325.003906 785.46875 321.421875 789.828125 321.421875 C 794.1875 321.421875 797.671875 325.003906 797.671875 329.375 C 797.671875 333.65625 794.1875 337.238281 789.828125 337.238281 Z M 789.828125 337.238281 " fill-opacity="1" fill-rule="evenodd"/><path fill="#000000" d="M 803.164062 260.070312 L 775.792969 260.070312 C 775.011719 260.070312 774.3125 259.460938 774.3125 258.675781 C 774.3125 257.800781 775.011719 257.1875 775.792969 257.1875 L 803.164062 257.1875 C 803.949219 257.1875 804.558594 257.800781 804.558594 258.675781 C 804.558594 259.460938 803.949219 260.070312 803.164062 260.070312 Z M 803.164062 260.070312 " fill-opacity="1" fill-rule="evenodd"/><g clip-path="url(#e7b81dc9ab)"><path fill="#000000" d="M 769.34375 266.539062 C 765.074219 266.539062 761.5 263.042969 761.5 258.675781 C 761.5 254.304688 765.074219 250.722656 769.34375 250.722656 C 773.703125 250.722656 777.277344 254.304688 777.277344 258.675781 C 777.277344 263.042969 773.703125 266.539062 769.34375 266.539062 Z M 769.34375 266.539062 " fill-opacity="1" fill-rule="evenodd"/></g><path fill="#000000" d="M 803.164062 275.890625 L 794.972656 275.890625 C 794.1875 275.890625 793.488281 275.277344 793.488281 274.492188 C 793.488281 273.707031 794.1875 273.007812 794.972656 273.007812 L 803.164062 273.007812 C 803.949219 273.007812 804.558594 273.707031 804.558594 274.492188 C 804.558594 275.277344 803.949219 275.890625 803.164062 275.890625 Z M 803.164062 275.890625 " fill-opacity="1" fill-rule="evenodd"/><path fill="#000000" d="M 788.519531 282.355469 C 784.164062 282.355469 780.675781 278.859375 780.675781 274.492188 C 780.675781 270.121094 784.164062 266.539062 788.519531 266.539062 C 792.878906 266.539062 796.453125 270.121094 796.453125 274.492188 C 796.453125 278.859375 792.878906 282.355469 788.519531 282.355469 Z M 788.519531 282.355469 " fill-opacity="1" fill-rule="evenodd"/><path fill="#000000" d="M 803.164062 291.707031 L 775.792969 291.707031 C 775.011719 291.707031 774.3125 291.007812 774.3125 290.222656 C 774.3125 289.4375 775.011719 288.738281 775.792969 288.738281 L 803.164062 288.738281 C 803.949219 288.738281 804.558594 289.4375 804.558594 290.222656 C 804.558594 291.007812 803.949219 291.707031 803.164062 291.707031 Z M 803.164062 291.707031 " fill-opacity="1" fill-rule="evenodd"/><g clip-path="url(#05ce38b240)"><path fill="#000000" d="M 769.34375 298.085938 C 765.074219 298.085938 761.5 294.589844 761.5 290.222656 C 761.5 285.851562 765.074219 282.355469 769.34375 282.355469 C 773.703125 282.355469 777.277344 285.851562 777.277344 290.222656 C 777.277344 294.589844 773.703125 298.085938 769.34375 298.085938 Z M 769.34375 298.085938 " fill-opacity="1" fill-rule="evenodd"/></g><g fill="#000000" fill-opacity="1"><g transform="translate(334.182625, 243.472645)"><g><path d="M 48.34375 -0.65625 L 48.921875 -0.65625 L 48.921875 0 L 28.03125 0 L 28.03125 -0.65625 L 28.625 -0.65625 C 29.582031 -0.65625 30.289062 -0.945312 30.75 -1.53125 C 31.207031 -2.125 31.4375 -2.679688 31.4375 -3.203125 C 31.4375 -3.734375 31.328125 -4.257812 31.109375 -4.78125 L 27.90625 -12.84375 L 12.578125 -12.84375 L 9.171875 -4.78125 C 8.953125 -4.21875 8.84375 -3.679688 8.84375 -3.171875 C 8.84375 -2.671875 9.082031 -2.125 9.5625 -1.53125 C 10.039062 -0.945312 10.757812 -0.65625 11.71875 -0.65625 L 12.25 -0.65625 L 12.25 0 L -1.765625 0 L -1.765625 -0.65625 L -1.1875 -0.65625 C -0.175781 -0.65625 0.828125 -0.957031 1.828125 -1.5625 C 2.835938 -2.175781 3.664062 -3.097656 4.3125 -4.328125 L 19.453125 -38.578125 C 21.503906 -42.898438 22.59375 -45.757812 22.71875 -47.15625 L 23.3125 -47.15625 L 42.765625 -4.453125 C 43.421875 -3.179688 44.25 -2.226562 45.25 -1.59375 C 46.257812 -0.96875 47.289062 -0.65625 48.34375 -0.65625 Z M 13.6875 -15.59375 L 26.78125 -15.59375 L 20.4375 -31.703125 Z M 13.6875 -15.59375 "/></g></g></g><g fill="#000000" fill-opacity="1"><g transform="translate(381.074727, 243.472645)"><g><path d="M 3.28125 -6.09375 C 3.28125 -9.238281 3.957031 -11.921875 5.3125 -14.140625 L 5.890625 -14.140625 C 5.847656 -13.796875 5.828125 -13.445312 5.828125 -13.09375 C 5.828125 -10.082031 6.90625 -7.453125 9.0625 -5.203125 C 11.226562 -2.953125 14.191406 -1.828125 17.953125 -1.828125 C 20.867188 -1.828125 23.144531 -2.523438 24.78125 -3.921875 C 26.425781 -5.328125 27.25 -7.097656 27.25 -9.234375 C 27.25 -10.503906 26.84375 -11.640625 26.03125 -12.640625 C 25.226562 -13.640625 23.890625 -14.753906 22.015625 -15.984375 L 10.609375 -23.515625 C 6.367188 -26.347656 4.25 -29.84375 4.25 -34 C 4.25 -34.4375 4.296875 -34.867188 4.390625 -35.296875 C 4.648438 -38.753906 5.988281 -41.53125 8.40625 -43.625 C 10.832031 -45.71875 14.078125 -46.765625 18.140625 -46.765625 C 20.546875 -46.765625 23.515625 -46.546875 27.046875 -46.109375 L 31.171875 -46.109375 L 30.328125 -36.484375 L 29.671875 -36.484375 C 29.671875 -38.753906 28.828125 -40.578125 27.140625 -41.953125 C 25.460938 -43.328125 23.226562 -44.015625 20.4375 -44.015625 C 17.03125 -44.015625 14.5625 -42.96875 13.03125 -40.875 C 12.25 -39.863281 11.859375 -38.859375 11.859375 -37.859375 C 11.859375 -36.859375 12.050781 -36.003906 12.4375 -35.296875 C 13.050781 -34.160156 14.382812 -32.941406 16.4375 -31.640625 L 28.953125 -23.515625 C 32.878906 -20.941406 34.84375 -17.578125 34.84375 -13.421875 C 34.84375 -8.796875 33.257812 -5.25 30.09375 -2.78125 C 26.925781 -0.3125 22.722656 0.921875 17.484375 0.921875 C 14.515625 0.921875 11.773438 0.5625 9.265625 -0.15625 C 6.753906 -0.882812 4.910156 -1.859375 3.734375 -3.078125 C 3.429688 -3.910156 3.28125 -4.914062 3.28125 -6.09375 Z M 3.28125 -6.09375 "/></g></g></g><g fill="#000000" fill-opacity="1"><g transform="translate(418.928963, 243.472645)"><g><path d="M 3.609375 -0.65625 C 4.742188 -0.65625 5.710938 -1.054688 6.515625 -1.859375 C 7.328125 -2.671875 7.753906 -3.644531 7.796875 -4.78125 L 7.796875 -41.265625 C 7.703125 -42.398438 7.375 -43.226562 6.8125 -43.75 C 5.757812 -44.707031 4.691406 -45.1875 3.609375 -45.1875 L 2.75 -45.1875 L 2.75 -45.84375 L 27.84375 -45.84375 C 29.976562 -45.84375 31.742188 -46.003906 33.140625 -46.328125 C 34.535156 -46.660156 35.390625 -46.894531 35.703125 -47.03125 L 35.703125 -35.5625 L 35.046875 -35.625 L 35.046875 -36.359375 C 35.046875 -39.054688 34.039062 -40.972656 32.03125 -42.109375 C 31.070312 -42.679688 29.9375 -42.988281 28.625 -43.03125 L 17.625 -43.03125 L 17.625 -23.96875 L 26.265625 -23.96875 C 27.878906 -24.007812 29.207031 -24.566406 30.25 -25.640625 C 31.300781 -26.710938 31.828125 -28.035156 31.828125 -29.609375 L 31.828125 -30.203125 L 32.484375 -30.203125 L 32.484375 -15.0625 L 31.828125 -15.0625 L 31.828125 -15.59375 C 31.828125 -17.207031 31.3125 -18.535156 30.28125 -19.578125 C 29.257812 -20.628906 27.960938 -21.175781 26.390625 -21.21875 L 17.625 -21.21875 L 17.625 -2.8125 L 26.203125 -2.8125 C 29.390625 -2.8125 32.0625 -3.726562 34.21875 -5.5625 C 36.382812 -7.394531 37.988281 -9.992188 39.03125 -13.359375 L 39.6875 -13.359375 L 36.6875 0 L 2.75 0 L 2.75 -0.65625 Z M 3.609375 -0.65625 "/></g></g></g><g fill="#000000" fill-opacity="1"><g transform="translate(460.254269, 243.472645)"><g><path d="M 3.28125 -6.09375 C 3.28125 -9.238281 3.957031 -11.921875 5.3125 -14.140625 L 5.890625 -14.140625 C 5.847656 -13.796875 5.828125 -13.445312 5.828125 -13.09375 C 5.828125 -10.082031 6.90625 -7.453125 9.0625 -5.203125 C 11.226562 -2.953125 14.191406 -1.828125 17.953125 -1.828125 C 20.867188 -1.828125 23.144531 -2.523438 24.78125 -3.921875 C 26.425781 -5.328125 27.25 -7.097656 27.25 -9.234375 C 27.25 -10.503906 26.84375 -11.640625 26.03125 -12.640625 C 25.226562 -13.640625 23.890625 -14.753906 22.015625 -15.984375 L 10.609375 -23.515625 C 6.367188 -26.347656 4.25 -29.84375 4.25 -34 C 4.25 -34.4375 4.296875 -34.867188 4.390625 -35.296875 C 4.648438 -38.753906 5.988281 -41.53125 8.40625 -43.625 C 10.832031 -45.71875 14.078125 -46.765625 18.140625 -46.765625 C 20.546875 -46.765625 23.515625 -46.546875 27.046875 -46.109375 L 31.171875 -46.109375 L 30.328125 -36.484375 L 29.671875 -36.484375 C 29.671875 -38.753906 28.828125 -40.578125 27.140625 -41.953125 C 25.460938 -43.328125 23.226562 -44.015625 20.4375 -44.015625 C 17.03125 -44.015625 14.5625 -42.96875 13.03125 -40.875 C 12.25 -39.863281 11.859375 -38.859375 11.859375 -37.859375 C 11.859375 -36.859375 12.050781 -36.003906 12.4375 -35.296875 C 13.050781 -34.160156 14.382812 -32.941406 16.4375 -31.640625 L 28.953125 -23.515625 C 32.878906 -20.941406 34.84375 -17.578125 34.84375 -13.421875 C 34.84375 -8.796875 33.257812 -5.25 30.09375 -2.78125 C 26.925781 -0.3125 22.722656 0.921875 17.484375 0.921875 C 14.515625 0.921875 11.773438 0.5625 9.265625 -0.15625 C 6.753906 -0.882812 4.910156 -1.859375 3.734375 -3.078125 C 3.429688 -3.910156 3.28125 -4.914062 3.28125 -6.09375 Z M 3.28125 -6.09375 "/></g></g></g><g fill="#000000" fill-opacity="1"><g transform="translate(498.108506, 243.472645)"><g><path d="M 10.171875 -40.34375 C 14.828125 -44.625 21.097656 -46.765625 28.984375 -46.765625 C 36.867188 -46.765625 43.132812 -44.625 47.78125 -40.34375 C 52.4375 -36.0625 54.765625 -30.253906 54.765625 -22.921875 C 54.765625 -15.585938 52.4375 -9.78125 47.78125 -5.5 C 43.132812 -1.21875 36.867188 0.921875 28.984375 0.921875 C 21.097656 0.921875 14.828125 -1.21875 10.171875 -5.5 C 5.523438 -9.78125 3.203125 -15.585938 3.203125 -22.921875 C 3.203125 -30.253906 5.523438 -36.0625 10.171875 -40.34375 Z M 17.984375 -7.5 C 20.671875 -3.71875 24.328125 -1.828125 28.953125 -1.828125 C 33.578125 -1.828125 37.242188 -3.71875 39.953125 -7.5 C 42.660156 -11.28125 44.015625 -16.421875 44.015625 -22.921875 C 44.015625 -29.429688 42.660156 -34.570312 39.953125 -38.34375 C 37.242188 -42.125 33.578125 -44.015625 28.953125 -44.015625 C 24.328125 -44.015625 20.671875 -42.125 17.984375 -38.34375 C 15.296875 -34.570312 13.953125 -29.429688 13.953125 -22.921875 C 13.953125 -16.421875 15.296875 -11.28125 17.984375 -7.5 Z M 17.984375 -7.5 "/></g></g></g><g fill="#000000" fill-opacity="1"><g transform="translate(555.610262, 243.472645)"><g><path d="M 20.828125 -42.96875 L 18.015625 -42.96875 C 17.921875 -42.96875 17.851562 -42.96875 17.8125 -42.96875 L 17.8125 -4.78125 C 17.851562 -3.644531 18.28125 -2.671875 19.09375 -1.859375 C 19.90625 -1.054688 20.878906 -0.65625 22.015625 -0.65625 L 22.859375 -0.65625 L 22.859375 0 L 2.953125 0 L 2.953125 -0.65625 L 3.796875 -0.65625 C 5.367188 -0.65625 6.570312 -1.332031 7.40625 -2.6875 C 7.75 -3.300781 7.941406 -3.976562 7.984375 -4.71875 L 7.984375 -41.0625 C 7.941406 -42.195312 7.515625 -43.164062 6.703125 -43.96875 C 5.898438 -44.78125 4.929688 -45.1875 3.796875 -45.1875 L 2.953125 -45.1875 L 2.953125 -45.84375 L 25.40625 -45.84375 C 29.644531 -45.84375 33.226562 -44.925781 36.15625 -43.09375 C 37.644531 -42.175781 38.820312 -40.898438 39.6875 -39.265625 C 40.5625 -37.628906 41 -35.488281 41 -32.84375 C 41 -30.207031 40.082031 -27.664062 38.25 -25.21875 C 36.414062 -22.769531 33.753906 -21.375 30.265625 -21.03125 C 32.796875 -20.195312 35.019531 -18.273438 36.9375 -15.265625 C 41.65625 -7.710938 45.148438 -3.210938 47.421875 -1.765625 C 48.554688 -1.066406 49.972656 -0.695312 51.671875 -0.65625 L 51.671875 0 L 45.265625 0 C 41.460938 0 38.304688 -0.5 35.796875 -1.5 C 33.285156 -2.507812 31.3125 -4.28125 29.875 -6.8125 C 29.039062 -8.25 27.226562 -11.984375 24.4375 -18.015625 C 23.207031 -20.679688 21.722656 -22.144531 19.984375 -22.40625 L 19.984375 -23.0625 L 22.015625 -23.0625 C 23.972656 -23.0625 25.703125 -23.648438 27.203125 -24.828125 C 28.710938 -26.003906 29.734375 -27.925781 30.265625 -30.59375 C 30.429688 -31.507812 30.515625 -32.226562 30.515625 -32.75 C 30.515625 -36.332031 29.796875 -38.921875 28.359375 -40.515625 C 26.921875 -42.109375 25.066406 -42.925781 22.796875 -42.96875 C 22.359375 -42.96875 21.703125 -42.96875 20.828125 -42.96875 Z M 20.828125 -42.96875 "/></g></g></g><g fill="#000000" fill-opacity="1"><g transform="translate(604.532608, 243.472645)"><g><path d="M 3.609375 -0.65625 C 4.742188 -0.65625 5.710938 -1.054688 6.515625 -1.859375 C 7.328125 -2.671875 7.753906 -3.644531 7.796875 -4.78125 L 7.796875 -41.140625 C 7.753906 -42.273438 7.328125 -43.234375 6.515625 -44.015625 C 5.710938 -44.796875 4.742188 -45.1875 3.609375 -45.1875 L 2.75 -45.1875 L 2.75 -45.84375 L 22.65625 -45.84375 L 22.59375 -45.1875 L 21.8125 -45.1875 C 20.675781 -45.1875 19.691406 -44.796875 18.859375 -44.015625 C 18.035156 -43.234375 17.625 -42.273438 17.625 -41.140625 L 17.625 -4.78125 C 17.625 -3.644531 18.035156 -2.671875 18.859375 -1.859375 C 19.691406 -1.054688 20.675781 -0.65625 21.8125 -0.65625 L 22.59375 -0.65625 L 22.65625 0 L 2.75 0 L 2.75 -0.65625 Z M 3.609375 -0.65625 "/></g></g></g><g fill="#000000" fill-opacity="1"><g transform="translate(629.812426, 243.472645)"><g><path d="M 48.34375 -0.65625 L 48.921875 -0.65625 L 48.921875 0 L 28.03125 0 L 28.03125 -0.65625 L 28.625 -0.65625 C 29.582031 -0.65625 30.289062 -0.945312 30.75 -1.53125 C 31.207031 -2.125 31.4375 -2.679688 31.4375 -3.203125 C 31.4375 -3.734375 31.328125 -4.257812 31.109375 -4.78125 L 27.90625 -12.84375 L 12.578125 -12.84375 L 9.171875 -4.78125 C 8.953125 -4.21875 8.84375 -3.679688 8.84375 -3.171875 C 8.84375 -2.671875 9.082031 -2.125 9.5625 -1.53125 C 10.039062 -0.945312 10.757812 -0.65625 11.71875 -0.65625 L 12.25 -0.65625 L 12.25 0 L -1.765625 0 L -1.765625 -0.65625 L -1.1875 -0.65625 C -0.175781 -0.65625 0.828125 -0.957031 1.828125 -1.5625 C 2.835938 -2.175781 3.664062 -3.097656 4.3125 -4.328125 L 19.453125 -38.578125 C 21.503906 -42.898438 22.59375 -45.757812 22.71875 -47.15625 L 23.3125 -47.15625 L 42.765625 -4.453125 C 43.421875 -3.179688 44.25 -2.226562 45.25 -1.59375 C 46.257812 -0.96875 47.289062 -0.65625 48.34375 -0.65625 Z M 13.6875 -15.59375 L 26.78125 -15.59375 L 20.4375 -31.703125 Z M 13.6875 -15.59375 "/></g></g></g><g fill="#000000" fill-opacity="1"><g transform="translate(393.631461, 334.808893)"><g><path d="M 3.609375 -0.65625 C 4.742188 -0.65625 5.710938 -1.054688 6.515625 -1.859375 C 7.328125 -2.671875 7.753906 -3.644531 7.796875 -4.78125 L 7.796875 -41.0625 C 7.753906 -42.195312 7.328125 -43.164062 6.515625 -43.96875 C 5.710938 -44.78125 4.742188 -45.1875 3.609375 -45.1875 L 2.75 -45.1875 L 2.75 -45.84375 L 22.65625 -45.84375 L 22.59375 -45.1875 L 21.8125 -45.1875 C 20.675781 -45.1875 19.691406 -44.78125 18.859375 -43.96875 C 18.035156 -43.164062 17.625 -42.195312 17.625 -41.0625 L 17.625 -2.8125 L 26.203125 -2.8125 C 29.390625 -2.8125 32.0625 -3.726562 34.21875 -5.5625 C 36.382812 -7.394531 37.988281 -9.992188 39.03125 -13.359375 L 39.6875 -13.359375 L 36.6875 0 L 2.75 0 L 2.75 -0.65625 Z M 3.609375 -0.65625 "/></g></g></g><g fill="#000000" fill-opacity="1"><g transform="translate(433.974375, 334.808893)"><g><path d="M 3.609375 -0.65625 C 4.742188 -0.65625 5.710938 -1.054688 6.515625 -1.859375 C 7.328125 -2.671875 7.753906 -3.644531 7.796875 -4.78125 L 7.796875 -41.265625 C 7.703125 -42.398438 7.375 -43.226562 6.8125 -43.75 C 5.757812 -44.707031 4.691406 -45.1875 3.609375 -45.1875 L 2.75 -45.1875 L 2.75 -45.84375 L 27.84375 -45.84375 C 29.976562 -45.84375 31.742188 -46.003906 33.140625 -46.328125 C 34.535156 -46.660156 35.390625 -46.894531 35.703125 -47.03125 L 35.703125 -35.5625 L 35.046875 -35.625 L 35.046875 -36.359375 C 35.046875 -39.054688 34.039062 -40.972656 32.03125 -42.109375 C 31.070312 -42.679688 29.9375 -42.988281 28.625 -43.03125 L 17.625 -43.03125 L 17.625 -23.96875 L 26.265625 -23.96875 C 27.878906 -24.007812 29.207031 -24.566406 30.25 -25.640625 C 31.300781 -26.710938 31.828125 -28.035156 31.828125 -29.609375 L 31.828125 -30.203125 L 32.484375 -30.203125 L 32.484375 -15.0625 L 31.828125 -15.0625 L 31.828125 -15.59375 C 31.828125 -17.207031 31.3125 -18.535156 30.28125 -19.578125 C 29.257812 -20.628906 27.960938 -21.175781 26.390625 -21.21875 L 17.625 -21.21875 L 17.625 -2.8125 L 26.203125 -2.8125 C 29.390625 -2.8125 32.0625 -3.726562 34.21875 -5.5625 C 36.382812 -7.394531 37.988281 -9.992188 39.03125 -13.359375 L 39.6875 -13.359375 L 36.6875 0 L 2.75 0 L 2.75 -0.65625 Z M 3.609375 -0.65625 "/></g></g></g><g fill="#000000" fill-opacity="1"><g transform="translate(475.299681, 334.808893)"><g><path d="M 27.703125 0.921875 C 20.234375 0.921875 14.238281 -1.226562 9.71875 -5.53125 C 5.207031 -9.832031 2.953125 -15.640625 2.953125 -22.953125 C 2.953125 -30.265625 5.207031 -36.0625 9.71875 -40.34375 C 14.238281 -44.625 20.363281 -46.765625 28.09375 -46.765625 C 31.59375 -46.765625 34.976562 -46.425781 38.25 -45.75 C 41.53125 -45.070312 44.171875 -44.234375 46.171875 -43.234375 L 46.3125 -31.96875 L 45.71875 -31.96875 C 44.582031 -36.195312 42.640625 -39.257812 39.890625 -41.15625 C 37.140625 -43.0625 33.863281 -44.015625 30.0625 -44.015625 C 24.78125 -44.015625 20.71875 -42.125 17.875 -38.34375 C 15.039062 -34.570312 13.625 -29.398438 13.625 -22.828125 C 13.625 -16.253906 14.921875 -11.109375 17.515625 -7.390625 C 20.117188 -3.679688 23.800781 -1.828125 28.5625 -1.828125 C 32.007812 -1.828125 34.890625 -2.8125 37.203125 -4.78125 C 38.335938 -5.78125 39.164062 -6.957031 39.6875 -8.3125 L 39.6875 -18.34375 C 39.6875 -19.300781 39.390625 -20.03125 38.796875 -20.53125 C 38.210938 -21.03125 37.375 -21.28125 36.28125 -21.28125 L 35.234375 -21.28125 L 35.234375 -21.9375 L 53.640625 -21.9375 L 53.640625 -21.28125 L 52.65625 -21.28125 C 51.613281 -21.28125 50.804688 -21.03125 50.234375 -20.53125 C 49.671875 -20.03125 49.390625 -19.300781 49.390625 -18.34375 L 49.390625 -7.53125 C 47.679688 -5.300781 44.863281 -3.332031 40.9375 -1.625 C 37.007812 0.0703125 32.597656 0.921875 27.703125 0.921875 Z M 27.703125 0.921875 "/></g></g></g><g fill="#000000" fill-opacity="1"><g transform="translate(530.050791, 334.808893)"><g><path d="M 48.34375 -0.65625 L 48.921875 -0.65625 L 48.921875 0 L 28.03125 0 L 28.03125 -0.65625 L 28.625 -0.65625 C 29.582031 -0.65625 30.289062 -0.945312 30.75 -1.53125 C 31.207031 -2.125 31.4375 -2.679688 31.4375 -3.203125 C 31.4375 -3.734375 31.328125 -4.257812 31.109375 -4.78125 L 27.90625 -12.84375 L 12.578125 -12.84375 L 9.171875 -4.78125 C 8.953125 -4.21875 8.84375 -3.679688 8.84375 -3.171875 C 8.84375 -2.671875 9.082031 -2.125 9.5625 -1.53125 C 10.039062 -0.945312 10.757812 -0.65625 11.71875 -0.65625 L 12.25 -0.65625 L 12.25 0 L -1.765625 0 L -1.765625 -0.65625 L -1.1875 -0.65625 C -0.175781 -0.65625 0.828125 -0.957031 1.828125 -1.5625 C 2.835938 -2.175781 3.664062 -3.097656 4.3125 -4.328125 L 19.453125 -38.578125 C 21.503906 -42.898438 22.59375 -45.757812 22.71875 -47.15625 L 23.3125 -47.15625 L 42.765625 -4.453125 C 43.421875 -3.179688 44.25 -2.226562 45.25 -1.59375 C 46.257812 -0.96875 47.289062 -0.65625 48.34375 -0.65625 Z M 13.6875 -15.59375 L 26.78125 -15.59375 L 20.4375 -31.703125 Z M 13.6875 -15.59375 "/></g></g></g><g fill="#000000" fill-opacity="1"><g transform="translate(576.942893, 334.808893)"><g><path d="M 3.609375 -0.65625 C 4.742188 -0.65625 5.710938 -1.054688 6.515625 -1.859375 C 7.328125 -2.671875 7.753906 -3.644531 7.796875 -4.78125 L 7.796875 -41.0625 C 7.753906 -42.195312 7.328125 -43.164062 6.515625 -43.96875 C 5.710938 -44.78125 4.742188 -45.1875 3.609375 -45.1875 L 2.75 -45.1875 L 2.75 -45.84375 L 22.65625 -45.84375 L 22.59375 -45.1875 L 21.8125 -45.1875 C 20.675781 -45.1875 19.691406 -44.78125 18.859375 -43.96875 C 18.035156 -43.164062 17.625 -42.195312 17.625 -41.0625 L 17.625 -2.8125 L 26.203125 -2.8125 C 29.390625 -2.8125 32.0625 -3.726562 34.21875 -5.5625 C 36.382812 -7.394531 37.988281 -9.992188 39.03125 -13.359375 L 39.6875 -13.359375 L 36.6875 0 L 2.75 0 L 2.75 -0.65625 Z M 3.609375 -0.65625 "/></g></g></g><g fill="#000000" fill-opacity="1"><g transform="translate(274.159984, 409.273962)"><g><path d="M 14.28125 -23 L 14.28125 -2.515625 C 14.300781 -1.910156 14.523438 -1.394531 14.953125 -0.96875 C 15.390625 -0.550781 15.910156 -0.34375 16.515625 -0.34375 L 16.921875 -0.34375 L 16.96875 0 L 6.359375 0 L 6.359375 -0.34375 L 6.8125 -0.34375 C 7.382812 -0.34375 7.882812 -0.550781 8.3125 -0.96875 C 8.75 -1.394531 8.992188 -1.898438 9.046875 -2.484375 L 9.046875 -23 L 4.328125 -23 C 3.253906 -22.976562 2.40625 -22.640625 1.78125 -21.984375 C 1.15625 -21.335938 0.84375 -20.488281 0.84375 -19.4375 L 0.84375 -19.03125 L 0.484375 -19.03125 L 0.484375 -25.09375 C 1.441406 -24.695312 2.816406 -24.488281 4.609375 -24.46875 L 18.671875 -24.46875 C 19.390625 -24.46875 20.175781 -24.535156 21.03125 -24.671875 C 21.882812 -24.816406 22.472656 -24.957031 22.796875 -25.09375 L 22.796875 -19.03125 L 22.4375 -19.03125 L 22.4375 -19.4375 C 22.4375 -20.882812 21.890625 -21.910156 20.796875 -22.515625 C 20.285156 -22.816406 19.671875 -22.976562 18.953125 -23 Z M 14.28125 -23 "/></g></g></g><g fill="#000000" fill-opacity="1"><g transform="translate(301.301727, 409.273962)"><g><path d="M 1.921875 -0.34375 C 2.523438 -0.34375 3.039062 -0.554688 3.46875 -0.984375 C 3.90625 -1.421875 4.132812 -1.941406 4.15625 -2.546875 L 4.15625 -21.984375 C 4.101562 -22.585938 3.925781 -23.03125 3.625 -23.3125 C 3.070312 -23.820312 2.503906 -24.078125 1.921875 -24.078125 L 1.46875 -24.078125 L 1.46875 -24.4375 L 14.828125 -24.4375 C 15.972656 -24.4375 16.914062 -24.519531 17.65625 -24.6875 C 18.40625 -24.863281 18.863281 -24.988281 19.03125 -25.0625 L 19.03125 -18.953125 L 18.671875 -18.984375 L 18.671875 -19.375 C 18.671875 -20.8125 18.132812 -21.832031 17.0625 -22.4375 C 16.550781 -22.738281 15.945312 -22.90625 15.25 -22.9375 L 9.390625 -22.9375 L 9.390625 -12.78125 L 14 -12.78125 C 14.851562 -12.800781 15.5625 -13.09375 16.125 -13.65625 C 16.6875 -14.226562 16.96875 -14.9375 16.96875 -15.78125 L 16.96875 -16.09375 L 17.3125 -16.09375 L 17.3125 -8.03125 L 16.96875 -8.03125 L 16.96875 -8.3125 C 16.96875 -9.164062 16.691406 -9.875 16.140625 -10.4375 C 15.597656 -11 14.90625 -11.289062 14.0625 -11.3125 L 9.390625 -11.3125 L 9.390625 -1.5 L 13.96875 -1.5 C 15.664062 -1.5 17.085938 -1.988281 18.234375 -2.96875 C 19.390625 -3.945312 20.242188 -5.332031 20.796875 -7.125 L 21.15625 -7.125 L 19.546875 0 L 1.46875 0 L 1.46875 -0.34375 Z M 1.921875 -0.34375 "/></g></g></g><g fill="#000000" fill-opacity="1"><g transform="translate(327.222599, 409.273962)"><g/></g></g><g fill="#000000" fill-opacity="1"><g transform="translate(339.853489, 409.273962)"><g><path d="M 25.75 -0.34375 L 26.078125 -0.34375 L 26.078125 0 L 14.9375 0 L 14.9375 -0.34375 L 15.25 -0.34375 C 15.757812 -0.34375 16.132812 -0.5 16.375 -0.8125 C 16.625 -1.132812 16.75 -1.429688 16.75 -1.703125 C 16.75 -1.984375 16.691406 -2.265625 16.578125 -2.546875 L 14.859375 -6.84375 L 6.703125 -6.84375 L 4.890625 -2.546875 C 4.765625 -2.242188 4.703125 -1.957031 4.703125 -1.6875 C 4.703125 -1.425781 4.832031 -1.132812 5.09375 -0.8125 C 5.351562 -0.5 5.738281 -0.34375 6.25 -0.34375 L 6.53125 -0.34375 L 6.53125 0 L -0.953125 0 L -0.953125 -0.34375 L -0.625 -0.34375 C -0.09375 -0.34375 0.4375 -0.503906 0.96875 -0.828125 C 1.507812 -1.160156 1.953125 -1.648438 2.296875 -2.296875 L 10.359375 -20.5625 C 11.453125 -22.863281 12.035156 -24.382812 12.109375 -25.125 L 12.421875 -25.125 L 22.796875 -2.375 C 23.140625 -1.695312 23.578125 -1.1875 24.109375 -0.84375 C 24.648438 -0.507812 25.195312 -0.34375 25.75 -0.34375 Z M 7.296875 -8.3125 L 14.265625 -8.3125 L 10.890625 -16.890625 Z M 7.296875 -8.3125 "/></g></g></g><g fill="#000000" fill-opacity="1"><g transform="translate(368.739313, 409.273962)"><g><path d="M 1.75 -3.25 C 1.75 -4.925781 2.109375 -6.359375 2.828125 -7.546875 L 3.140625 -7.546875 C 3.117188 -7.359375 3.109375 -7.171875 3.109375 -6.984375 C 3.109375 -5.378906 3.679688 -3.976562 4.828125 -2.78125 C 5.984375 -1.582031 7.5625 -0.984375 9.5625 -0.984375 C 11.125 -0.984375 12.335938 -1.351562 13.203125 -2.09375 C 14.078125 -2.84375 14.515625 -3.785156 14.515625 -4.921875 C 14.515625 -5.597656 14.300781 -6.203125 13.875 -6.734375 C 13.445312 -7.273438 12.734375 -7.867188 11.734375 -8.515625 L 5.65625 -12.53125 C 3.394531 -14.039062 2.265625 -15.898438 2.265625 -18.109375 C 2.265625 -18.347656 2.289062 -18.582031 2.34375 -18.8125 C 2.476562 -20.65625 3.191406 -22.132812 4.484375 -23.25 C 5.773438 -24.363281 7.503906 -24.921875 9.671875 -24.921875 C 10.953125 -24.921875 12.535156 -24.804688 14.421875 -24.578125 L 16.609375 -24.578125 L 16.15625 -19.4375 L 15.8125 -19.4375 C 15.8125 -20.65625 15.363281 -21.628906 14.46875 -22.359375 C 13.570312 -23.085938 12.378906 -23.453125 10.890625 -23.453125 C 9.078125 -23.453125 7.765625 -22.894531 6.953125 -21.78125 C 6.523438 -21.25 6.3125 -20.710938 6.3125 -20.171875 C 6.3125 -19.640625 6.414062 -19.1875 6.625 -18.8125 C 6.957031 -18.207031 7.671875 -17.554688 8.765625 -16.859375 L 15.421875 -12.53125 C 17.515625 -11.15625 18.5625 -9.363281 18.5625 -7.15625 C 18.5625 -4.6875 17.71875 -2.796875 16.03125 -1.484375 C 14.351562 -0.171875 12.113281 0.484375 9.3125 0.484375 C 7.738281 0.484375 6.28125 0.296875 4.9375 -0.078125 C 3.601562 -0.460938 2.617188 -0.984375 1.984375 -1.640625 C 1.828125 -2.078125 1.75 -2.613281 1.75 -3.25 Z M 1.75 -3.25 "/></g></g></g><g fill="#000000" fill-opacity="1"><g transform="translate(392.81146, 409.273962)"><g><path d="M 1.921875 -0.34375 C 2.523438 -0.34375 3.039062 -0.554688 3.46875 -0.984375 C 3.90625 -1.421875 4.132812 -1.941406 4.15625 -2.546875 L 4.15625 -21.984375 C 4.101562 -22.585938 3.925781 -23.03125 3.625 -23.3125 C 3.070312 -23.820312 2.503906 -24.078125 1.921875 -24.078125 L 1.46875 -24.078125 L 1.46875 -24.4375 L 14.828125 -24.4375 C 15.972656 -24.4375 16.914062 -24.519531 17.65625 -24.6875 C 18.40625 -24.863281 18.863281 -24.988281 19.03125 -25.0625 L 19.03125 -18.953125 L 18.671875 -18.984375 L 18.671875 -19.375 C 18.671875 -20.8125 18.132812 -21.832031 17.0625 -22.4375 C 16.550781 -22.738281 15.945312 -22.90625 15.25 -22.9375 L 9.390625 -22.9375 L 9.390625 -12.78125 L 14 -12.78125 C 14.851562 -12.800781 15.5625 -13.09375 16.125 -13.65625 C 16.6875 -14.226562 16.96875 -14.9375 16.96875 -15.78125 L 16.96875 -16.09375 L 17.3125 -16.09375 L 17.3125 -8.03125 L 16.96875 -8.03125 L 16.96875 -8.3125 C 16.96875 -9.164062 16.691406 -9.875 16.140625 -10.4375 C 15.597656 -11 14.90625 -11.289062 14.0625 -11.3125 L 9.390625 -11.3125 L 9.390625 -1.5 L 13.96875 -1.5 C 15.664062 -1.5 17.085938 -1.988281 18.234375 -2.96875 C 19.390625 -3.945312 20.242188 -5.332031 20.796875 -7.125 L 21.15625 -7.125 L 19.546875 0 L 1.46875 0 L 1.46875 -0.34375 Z M 1.921875 -0.34375 "/></g></g></g><g fill="#000000" fill-opacity="1"><g transform="translate(418.732338, 409.273962)"><g><path d="M 1.75 -3.25 C 1.75 -4.925781 2.109375 -6.359375 2.828125 -7.546875 L 3.140625 -7.546875 C 3.117188 -7.359375 3.109375 -7.171875 3.109375 -6.984375 C 3.109375 -5.378906 3.679688 -3.976562 4.828125 -2.78125 C 5.984375 -1.582031 7.5625 -0.984375 9.5625 -0.984375 C 11.125 -0.984375 12.335938 -1.351562 13.203125 -2.09375 C 14.078125 -2.84375 14.515625 -3.785156 14.515625 -4.921875 C 14.515625 -5.597656 14.300781 -6.203125 13.875 -6.734375 C 13.445312 -7.273438 12.734375 -7.867188 11.734375 -8.515625 L 5.65625 -12.53125 C 3.394531 -14.039062 2.265625 -15.898438 2.265625 -18.109375 C 2.265625 -18.347656 2.289062 -18.582031 2.34375 -18.8125 C 2.476562 -20.65625 3.191406 -22.132812 4.484375 -23.25 C 5.773438 -24.363281 7.503906 -24.921875 9.671875 -24.921875 C 10.953125 -24.921875 12.535156 -24.804688 14.421875 -24.578125 L 16.609375 -24.578125 L 16.15625 -19.4375 L 15.8125 -19.4375 C 15.8125 -20.65625 15.363281 -21.628906 14.46875 -22.359375 C 13.570312 -23.085938 12.378906 -23.453125 10.890625 -23.453125 C 9.078125 -23.453125 7.765625 -22.894531 6.953125 -21.78125 C 6.523438 -21.25 6.3125 -20.710938 6.3125 -20.171875 C 6.3125 -19.640625 6.414062 -19.1875 6.625 -18.8125 C 6.957031 -18.207031 7.671875 -17.554688 8.765625 -16.859375 L 15.421875 -12.53125 C 17.515625 -11.15625 18.5625 -9.363281 18.5625 -7.15625 C 18.5625 -4.6875 17.71875 -2.796875 16.03125 -1.484375 C 14.351562 -0.171875 12.113281 0.484375 9.3125 0.484375 C 7.738281 0.484375 6.28125 0.296875 4.9375 -0.078125 C 3.601562 -0.460938 2.617188 -0.984375 1.984375 -1.640625 C 1.828125 -2.078125 1.75 -2.613281 1.75 -3.25 Z M 1.75 -3.25 "/></g></g></g><g fill="#000000" fill-opacity="1"><g transform="translate(442.804484, 409.273962)"><g><path d="M 5.421875 -21.5 C 7.898438 -23.78125 11.238281 -24.921875 15.4375 -24.921875 C 19.644531 -24.921875 22.988281 -23.78125 25.46875 -21.5 C 27.945312 -19.21875 29.1875 -16.125 29.1875 -12.21875 C 29.1875 -8.3125 27.945312 -5.21875 25.46875 -2.9375 C 22.988281 -0.65625 19.644531 0.484375 15.4375 0.484375 C 11.238281 0.484375 7.898438 -0.65625 5.421875 -2.9375 C 2.941406 -5.21875 1.703125 -8.3125 1.703125 -12.21875 C 1.703125 -16.125 2.941406 -19.21875 5.421875 -21.5 Z M 9.578125 -4 C 11.015625 -1.988281 12.960938 -0.984375 15.421875 -0.984375 C 17.890625 -0.984375 19.84375 -1.988281 21.28125 -4 C 22.726562 -6.007812 23.453125 -8.75 23.453125 -12.21875 C 23.453125 -15.6875 22.726562 -18.425781 21.28125 -20.4375 C 19.84375 -22.445312 17.890625 -23.453125 15.421875 -23.453125 C 12.960938 -23.453125 11.015625 -22.445312 9.578125 -20.4375 C 8.148438 -18.425781 7.4375 -15.6875 7.4375 -12.21875 C 7.4375 -8.75 8.148438 -6.007812 9.578125 -4 Z M 9.578125 -4 "/></g></g></g><g fill="#000000" fill-opacity="1"><g transform="translate(477.341188, 409.273962)"><g><path d="M 11.09375 -22.890625 L 9.59375 -22.890625 C 9.550781 -22.890625 9.519531 -22.890625 9.5 -22.890625 L 9.5 -2.546875 C 9.519531 -1.941406 9.742188 -1.421875 10.171875 -0.984375 C 10.609375 -0.554688 11.128906 -0.34375 11.734375 -0.34375 L 12.1875 -0.34375 L 12.1875 0 L 1.578125 0 L 1.578125 -0.34375 L 2.03125 -0.34375 C 2.863281 -0.34375 3.5 -0.707031 3.9375 -1.4375 C 4.125 -1.757812 4.234375 -2.117188 4.265625 -2.515625 L 4.265625 -21.890625 C 4.234375 -22.492188 4.003906 -23.007812 3.578125 -23.4375 C 3.148438 -23.863281 2.632812 -24.078125 2.03125 -24.078125 L 1.578125 -24.078125 L 1.578125 -24.4375 L 13.546875 -24.4375 C 15.796875 -24.4375 17.703125 -23.945312 19.265625 -22.96875 C 20.054688 -22.476562 20.679688 -21.796875 21.140625 -20.921875 C 21.609375 -20.054688 21.84375 -18.914062 21.84375 -17.5 C 21.84375 -16.09375 21.351562 -14.738281 20.375 -13.4375 C 19.40625 -12.132812 17.988281 -11.390625 16.125 -11.203125 C 17.476562 -10.765625 18.664062 -9.742188 19.6875 -8.140625 C 22.195312 -4.109375 24.054688 -1.707031 25.265625 -0.9375 C 25.867188 -0.570312 26.628906 -0.375 27.546875 -0.34375 L 27.546875 0 L 24.125 0 C 22.09375 0 20.40625 -0.265625 19.0625 -0.796875 C 17.726562 -1.335938 16.679688 -2.28125 15.921875 -3.625 C 15.472656 -4.394531 14.503906 -6.382812 13.015625 -9.59375 C 12.367188 -11.019531 11.578125 -11.800781 10.640625 -11.9375 L 10.640625 -12.28125 L 11.734375 -12.28125 C 12.773438 -12.28125 13.695312 -12.59375 14.5 -13.21875 C 15.300781 -13.851562 15.84375 -14.878906 16.125 -16.296875 C 16.21875 -16.785156 16.265625 -17.171875 16.265625 -17.453125 C 16.265625 -19.359375 15.878906 -20.734375 15.109375 -21.578125 C 14.347656 -22.429688 13.359375 -22.867188 12.140625 -22.890625 C 11.910156 -22.890625 11.5625 -22.890625 11.09375 -22.890625 Z M 11.09375 -22.890625 "/></g></g></g><g fill="#000000" fill-opacity="1"><g transform="translate(507.308362, 409.273962)"><g><path d="M 25.75 -0.34375 L 26.078125 -0.34375 L 26.078125 0 L 14.9375 0 L 14.9375 -0.34375 L 15.25 -0.34375 C 15.757812 -0.34375 16.132812 -0.5 16.375 -0.8125 C 16.625 -1.132812 16.75 -1.429688 16.75 -1.703125 C 16.75 -1.984375 16.691406 -2.265625 16.578125 -2.546875 L 14.859375 -6.84375 L 6.703125 -6.84375 L 4.890625 -2.546875 C 4.765625 -2.242188 4.703125 -1.957031 4.703125 -1.6875 C 4.703125 -1.425781 4.832031 -1.132812 5.09375 -0.8125 C 5.351562 -0.5 5.738281 -0.34375 6.25 -0.34375 L 6.53125 -0.34375 L 6.53125 0 L -0.953125 0 L -0.953125 -0.34375 L -0.625 -0.34375 C -0.09375 -0.34375 0.4375 -0.503906 0.96875 -0.828125 C 1.507812 -1.160156 1.953125 -1.648438 2.296875 -2.296875 L 10.359375 -20.5625 C 11.453125 -22.863281 12.035156 -24.382812 12.109375 -25.125 L 12.421875 -25.125 L 22.796875 -2.375 C 23.140625 -1.695312 23.578125 -1.1875 24.109375 -0.84375 C 24.648438 -0.507812 25.195312 -0.34375 25.75 -0.34375 Z M 7.296875 -8.3125 L 14.265625 -8.3125 L 10.890625 -16.890625 Z M 7.296875 -8.3125 "/></g></g></g><g fill="#000000" fill-opacity="1"><g transform="translate(536.194191, 409.273962)"><g><path d="M 33.0625 -0.34375 L 33.609375 -0.34375 L 33.609375 0 L 23.140625 0 L 23.140625 -0.3125 L 23.671875 -0.3125 C 24.066406 -0.332031 24.398438 -0.492188 24.671875 -0.796875 C 24.953125 -1.097656 25.070312 -1.4375 25.03125 -1.8125 L 23.671875 -14.484375 L 17.109375 -3.171875 C 16.242188 -1.734375 15.800781 -0.441406 15.78125 0.703125 L 15.421875 0.703125 L 6.453125 -14.375 L 5.09375 -1.8125 C 5.050781 -1.4375 5.164062 -1.09375 5.4375 -0.78125 C 5.71875 -0.46875 6.054688 -0.3125 6.453125 -0.3125 L 6.984375 -0.3125 L 6.984375 0 L -0.3125 0 L -0.3125 -0.34375 L 0.25 -0.34375 C 0.894531 -0.34375 1.457031 -0.539062 1.9375 -0.9375 C 2.414062 -1.332031 2.703125 -1.867188 2.796875 -2.546875 L 5.6875 -24.921875 L 6 -24.921875 L 16.828125 -7.125 L 27.234375 -24.921875 L 27.546875 -24.921875 L 30.515625 -2.546875 C 30.628906 -1.867188 30.921875 -1.332031 31.390625 -0.9375 C 31.867188 -0.539062 32.425781 -0.34375 33.0625 -0.34375 Z M 33.0625 -0.34375 "/></g></g></g><g fill="#000000" fill-opacity="1"><g transform="translate(573.347016, 409.273962)"><g><path d="M 5.421875 -21.5 C 7.898438 -23.78125 11.238281 -24.921875 15.4375 -24.921875 C 19.644531 -24.921875 22.988281 -23.78125 25.46875 -21.5 C 27.945312 -19.21875 29.1875 -16.125 29.1875 -12.21875 C 29.1875 -8.3125 27.945312 -5.21875 25.46875 -2.9375 C 22.988281 -0.65625 19.644531 0.484375 15.4375 0.484375 C 11.238281 0.484375 7.898438 -0.65625 5.421875 -2.9375 C 2.941406 -5.21875 1.703125 -8.3125 1.703125 -12.21875 C 1.703125 -16.125 2.941406 -19.21875 5.421875 -21.5 Z M 9.578125 -4 C 11.015625 -1.988281 12.960938 -0.984375 15.421875 -0.984375 C 17.890625 -0.984375 19.84375 -1.988281 21.28125 -4 C 22.726562 -6.007812 23.453125 -8.75 23.453125 -12.21875 C 23.453125 -15.6875 22.726562 -18.425781 21.28125 -20.4375 C 19.84375 -22.445312 17.890625 -23.453125 15.421875 -23.453125 C 12.960938 -23.453125 11.015625 -22.445312 9.578125 -20.4375 C 8.148438 -18.425781 7.4375 -15.6875 7.4375 -12.21875 C 7.4375 -8.75 8.148438 -6.007812 9.578125 -4 Z M 9.578125 -4 "/></g></g></g><g fill="#000000" fill-opacity="1"><g transform="translate(607.88372, 409.273962)"><g><path d="M 1.75 -3.25 C 1.75 -4.925781 2.109375 -6.359375 2.828125 -7.546875 L 3.140625 -7.546875 C 3.117188 -7.359375 3.109375 -7.171875 3.109375 -6.984375 C 3.109375 -5.378906 3.679688 -3.976562 4.828125 -2.78125 C 5.984375 -1.582031 7.5625 -0.984375 9.5625 -0.984375 C 11.125 -0.984375 12.335938 -1.351562 13.203125 -2.09375 C 14.078125 -2.84375 14.515625 -3.785156 14.515625 -4.921875 C 14.515625 -5.597656 14.300781 -6.203125 13.875 -6.734375 C 13.445312 -7.273438 12.734375 -7.867188 11.734375 -8.515625 L 5.65625 -12.53125 C 3.394531 -14.039062 2.265625 -15.898438 2.265625 -18.109375 C 2.265625 -18.347656 2.289062 -18.582031 2.34375 -18.8125 C 2.476562 -20.65625 3.191406 -22.132812 4.484375 -23.25 C 5.773438 -24.363281 7.503906 -24.921875 9.671875 -24.921875 C 10.953125 -24.921875 12.535156 -24.804688 14.421875 -24.578125 L 16.609375 -24.578125 L 16.15625 -19.4375 L 15.8125 -19.4375 C 15.8125 -20.65625 15.363281 -21.628906 14.46875 -22.359375 C 13.570312 -23.085938 12.378906 -23.453125 10.890625 -23.453125 C 9.078125 -23.453125 7.765625 -22.894531 6.953125 -21.78125 C 6.523438 -21.25 6.3125 -20.710938 6.3125 -20.171875 C 6.3125 -19.640625 6.414062 -19.1875 6.625 -18.8125 C 6.957031 -18.207031 7.671875 -17.554688 8.765625 -16.859375 L 15.421875 -12.53125 C 17.515625 -11.15625 18.5625 -9.363281 18.5625 -7.15625 C 18.5625 -4.6875 17.71875 -2.796875 16.03125 -1.484375 C 14.351562 -0.171875 12.113281 0.484375 9.3125 0.484375 C 7.738281 0.484375 6.28125 0.296875 4.9375 -0.078125 C 3.601562 -0.460938 2.617188 -0.984375 1.984375 -1.640625 C 1.828125 -2.078125 1.75 -2.613281 1.75 -3.25 Z M 1.75 -3.25 "/></g></g></g><g fill="#000000" fill-opacity="1"><g transform="translate(631.955866, 409.273962)"><g/></g></g><g fill="#000000" fill-opacity="1"><g transform="translate(644.586762, 409.273962)"><g><path d="M 15.984375 0.46875 C 11.492188 0.457031 7.96875 -0.671875 5.40625 -2.921875 C 2.851562 -5.179688 1.578125 -8.273438 1.578125 -12.203125 C 1.578125 -16.140625 2.84375 -19.242188 5.375 -21.515625 C 7.914062 -23.785156 11.394531 -24.921875 15.8125 -24.921875 C 19.1875 -24.921875 22.082031 -24.289062 24.5 -23.03125 L 24.578125 -17.03125 L 24.296875 -17.03125 C 23.109375 -21.3125 20.394531 -23.453125 16.15625 -23.453125 C 13.414062 -23.453125 11.25 -22.457031 9.65625 -20.46875 C 8.0625 -18.476562 7.265625 -15.757812 7.265625 -12.3125 C 7.265625 -8.875 8.023438 -6.140625 9.546875 -4.109375 C 11.066406 -2.085938 13.132812 -1.046875 15.75 -0.984375 C 18.445312 -0.984375 20.503906 -1.65625 21.921875 -3 C 23.359375 -4.394531 24.359375 -6.789062 24.921875 -10.1875 L 25.203125 -10.1875 L 25.546875 -4.1875 C 23.660156 -1.070312 20.472656 0.476562 15.984375 0.46875 Z M 15.984375 0.46875 "/></g></g></g><g fill="#000000" fill-opacity="1"><g transform="translate(675.705033, 409.273962)"><g><path d="M 5.421875 -21.5 C 7.898438 -23.78125 11.238281 -24.921875 15.4375 -24.921875 C 19.644531 -24.921875 22.988281 -23.78125 25.46875 -21.5 C 27.945312 -19.21875 29.1875 -16.125 29.1875 -12.21875 C 29.1875 -8.3125 27.945312 -5.21875 25.46875 -2.9375 C 22.988281 -0.65625 19.644531 0.484375 15.4375 0.484375 C 11.238281 0.484375 7.898438 -0.65625 5.421875 -2.9375 C 2.941406 -5.21875 1.703125 -8.3125 1.703125 -12.21875 C 1.703125 -16.125 2.941406 -19.21875 5.421875 -21.5 Z M 9.578125 -4 C 11.015625 -1.988281 12.960938 -0.984375 15.421875 -0.984375 C 17.890625 -0.984375 19.84375 -1.988281 21.28125 -4 C 22.726562 -6.007812 23.453125 -8.75 23.453125 -12.21875 C 23.453125 -15.6875 22.726562 -18.425781 21.28125 -20.4375 C 19.84375 -22.445312 17.890625 -23.453125 15.421875 -23.453125 C 12.960938 -23.453125 11.015625 -22.445312 9.578125 -20.4375 C 8.148438 -18.425781 7.4375 -15.6875 7.4375 -12.21875 C 7.4375 -8.75 8.148438 -6.007812 9.578125 -4 Z M 9.578125 -4 "/></g></g></g><g fill="#000000" fill-opacity="1"><g transform="translate(710.241712, 409.273962)"><g><path d="M 28.515625 -24.078125 C 27.703125 -24.078125 27.085938 -23.726562 26.671875 -23.03125 C 26.484375 -22.726562 26.378906 -22.378906 26.359375 -21.984375 L 26.359375 -3.984375 C 26.359375 -2.421875 26.460938 -1.101562 26.671875 -0.03125 L 26.765625 0.484375 L 26.453125 0.484375 L 8.828125 -16.296875 L 8.828125 -2.4375 C 8.828125 -1.863281 9.035156 -1.367188 9.453125 -0.953125 C 9.878906 -0.546875 10.378906 -0.34375 10.953125 -0.34375 L 11.625 -0.34375 L 11.625 0 L 1.046875 0 L 1.046875 -0.34375 L 1.671875 -0.34375 C 2.273438 -0.34375 2.785156 -0.546875 3.203125 -0.953125 C 3.628906 -1.367188 3.84375 -1.878906 3.84375 -2.484375 L 3.84375 -20.59375 C 3.84375 -22.125 3.738281 -23.40625 3.53125 -24.4375 L 3.453125 -24.953125 L 3.765625 -24.953125 L 21.390625 -8.171875 L 21.390625 -21.953125 C 21.367188 -22.554688 21.148438 -23.0625 20.734375 -23.46875 C 20.316406 -23.875 19.816406 -24.078125 19.234375 -24.078125 L 18.609375 -24.078125 L 18.609375 -24.4375 L 29.1875 -24.4375 L 29.1875 -24.078125 Z M 28.515625 -24.078125 "/></g></g></g><g fill="#000000" fill-opacity="1"><g transform="translate(219.968285, 457.444361)"><g><path d="M 1.921875 -0.34375 C 2.523438 -0.34375 3.039062 -0.554688 3.46875 -0.984375 C 3.90625 -1.421875 4.132812 -1.941406 4.15625 -2.546875 L 4.15625 -21.921875 C 4.132812 -22.523438 3.90625 -23.035156 3.46875 -23.453125 C 3.039062 -23.867188 2.523438 -24.078125 1.921875 -24.078125 L 1.46875 -24.078125 L 1.46875 -24.4375 L 12.078125 -24.4375 L 12.046875 -24.078125 L 11.625 -24.078125 C 11.019531 -24.078125 10.492188 -23.867188 10.046875 -23.453125 C 9.609375 -23.035156 9.390625 -22.523438 9.390625 -21.921875 L 9.390625 -2.546875 C 9.390625 -1.941406 9.609375 -1.421875 10.046875 -0.984375 C 10.492188 -0.554688 11.019531 -0.34375 11.625 -0.34375 L 12.046875 -0.34375 L 12.078125 0 L 1.46875 0 L 1.46875 -0.34375 Z M 1.921875 -0.34375 "/></g></g></g><g fill="#000000" fill-opacity="1"><g transform="translate(237.343109, 457.444361)"><g><path d="M 28.515625 -24.078125 C 27.703125 -24.078125 27.085938 -23.726562 26.671875 -23.03125 C 26.484375 -22.726562 26.378906 -22.378906 26.359375 -21.984375 L 26.359375 -3.984375 C 26.359375 -2.421875 26.460938 -1.101562 26.671875 -0.03125 L 26.765625 0.484375 L 26.453125 0.484375 L 8.828125 -16.296875 L 8.828125 -2.4375 C 8.828125 -1.863281 9.035156 -1.367188 9.453125 -0.953125 C 9.878906 -0.546875 10.378906 -0.34375 10.953125 -0.34375 L 11.625 -0.34375 L 11.625 0 L 1.046875 0 L 1.046875 -0.34375 L 1.671875 -0.34375 C 2.273438 -0.34375 2.785156 -0.546875 3.203125 -0.953125 C 3.628906 -1.367188 3.84375 -1.878906 3.84375 -2.484375 L 3.84375 -20.59375 C 3.84375 -22.125 3.738281 -23.40625 3.53125 -24.4375 L 3.453125 -24.953125 L 3.765625 -24.953125 L 21.390625 -8.171875 L 21.390625 -21.953125 C 21.367188 -22.554688 21.148438 -23.0625 20.734375 -23.46875 C 20.316406 -23.875 19.816406 -24.078125 19.234375 -24.078125 L 18.609375 -24.078125 L 18.609375 -24.4375 L 29.1875 -24.4375 L 29.1875 -24.078125 Z M 28.515625 -24.078125 "/></g></g></g><g fill="#000000" fill-opacity="1"><g transform="translate(271.426324, 457.444361)"><g><path d="M 14.28125 -23 L 14.28125 -2.515625 C 14.300781 -1.910156 14.523438 -1.394531 14.953125 -0.96875 C 15.390625 -0.550781 15.910156 -0.34375 16.515625 -0.34375 L 16.921875 -0.34375 L 16.96875 0 L 6.359375 0 L 6.359375 -0.34375 L 6.8125 -0.34375 C 7.382812 -0.34375 7.882812 -0.550781 8.3125 -0.96875 C 8.75 -1.394531 8.992188 -1.898438 9.046875 -2.484375 L 9.046875 -23 L 4.328125 -23 C 3.253906 -22.976562 2.40625 -22.640625 1.78125 -21.984375 C 1.15625 -21.335938 0.84375 -20.488281 0.84375 -19.4375 L 0.84375 -19.03125 L 0.484375 -19.03125 L 0.484375 -25.09375 C 1.441406 -24.695312 2.816406 -24.488281 4.609375 -24.46875 L 18.671875 -24.46875 C 19.390625 -24.46875 20.175781 -24.535156 21.03125 -24.671875 C 21.882812 -24.816406 22.472656 -24.957031 22.796875 -25.09375 L 22.796875 -19.03125 L 22.4375 -19.03125 L 22.4375 -19.4375 C 22.4375 -20.882812 21.890625 -21.910156 20.796875 -22.515625 C 20.285156 -22.816406 19.671875 -22.976562 18.953125 -23 Z M 14.28125 -23 "/></g></g></g><g fill="#000000" fill-opacity="1"><g transform="translate(298.568068, 457.444361)"><g><path d="M 1.921875 -0.34375 C 2.523438 -0.34375 3.039062 -0.554688 3.46875 -0.984375 C 3.90625 -1.421875 4.132812 -1.941406 4.15625 -2.546875 L 4.15625 -21.984375 C 4.101562 -22.585938 3.925781 -23.03125 3.625 -23.3125 C 3.070312 -23.820312 2.503906 -24.078125 1.921875 -24.078125 L 1.46875 -24.078125 L 1.46875 -24.4375 L 14.828125 -24.4375 C 15.972656 -24.4375 16.914062 -24.519531 17.65625 -24.6875 C 18.40625 -24.863281 18.863281 -24.988281 19.03125 -25.0625 L 19.03125 -18.953125 L 18.671875 -18.984375 L 18.671875 -19.375 C 18.671875 -20.8125 18.132812 -21.832031 17.0625 -22.4375 C 16.550781 -22.738281 15.945312 -22.90625 15.25 -22.9375 L 9.390625 -22.9375 L 9.390625 -12.78125 L 14 -12.78125 C 14.851562 -12.800781 15.5625 -13.09375 16.125 -13.65625 C 16.6875 -14.226562 16.96875 -14.9375 16.96875 -15.78125 L 16.96875 -16.09375 L 17.3125 -16.09375 L 17.3125 -8.03125 L 16.96875 -8.03125 L 16.96875 -8.3125 C 16.96875 -9.164062 16.691406 -9.875 16.140625 -10.4375 C 15.597656 -11 14.90625 -11.289062 14.0625 -11.3125 L 9.390625 -11.3125 L 9.390625 -1.5 L 13.96875 -1.5 C 15.664062 -1.5 17.085938 -1.988281 18.234375 -2.96875 C 19.390625 -3.945312 20.242188 -5.332031 20.796875 -7.125 L 21.15625 -7.125 L 19.546875 0 L 1.46875 0 L 1.46875 -0.34375 Z M 1.921875 -0.34375 "/></g></g></g><g fill="#000000" fill-opacity="1"><g transform="translate(324.48894, 457.444361)"><g><path d="M 1.921875 -0.34375 C 2.523438 -0.34375 3.039062 -0.554688 3.46875 -0.984375 C 3.90625 -1.421875 4.132812 -1.941406 4.15625 -2.546875 L 4.15625 -21.890625 C 4.132812 -22.492188 3.90625 -23.007812 3.46875 -23.4375 C 3.039062 -23.863281 2.523438 -24.078125 1.921875 -24.078125 L 1.46875 -24.078125 L 1.46875 -24.4375 L 12.078125 -24.4375 L 12.046875 -24.078125 L 11.625 -24.078125 C 11.019531 -24.078125 10.492188 -23.863281 10.046875 -23.4375 C 9.609375 -23.007812 9.390625 -22.492188 9.390625 -21.890625 L 9.390625 -1.5 L 13.96875 -1.5 C 15.664062 -1.5 17.085938 -1.988281 18.234375 -2.96875 C 19.390625 -3.945312 20.242188 -5.332031 20.796875 -7.125 L 21.15625 -7.125 L 19.546875 0 L 1.46875 0 L 1.46875 -0.34375 Z M 1.921875 -0.34375 "/></g></g></g><g fill="#000000" fill-opacity="1"><g transform="translate(349.886584, 457.444361)"><g><path d="M 1.921875 -0.34375 C 2.523438 -0.34375 3.039062 -0.554688 3.46875 -0.984375 C 3.90625 -1.421875 4.132812 -1.941406 4.15625 -2.546875 L 4.15625 -21.921875 C 4.132812 -22.523438 3.90625 -23.035156 3.46875 -23.453125 C 3.039062 -23.867188 2.523438 -24.078125 1.921875 -24.078125 L 1.46875 -24.078125 L 1.46875 -24.4375 L 12.078125 -24.4375 L 12.046875 -24.078125 L 11.625 -24.078125 C 11.019531 -24.078125 10.492188 -23.867188 10.046875 -23.453125 C 9.609375 -23.035156 9.390625 -22.523438 9.390625 -21.921875 L 9.390625 -2.546875 C 9.390625 -1.941406 9.609375 -1.421875 10.046875 -0.984375 C 10.492188 -0.554688 11.019531 -0.34375 11.625 -0.34375 L 12.046875 -0.34375 L 12.078125 0 L 1.46875 0 L 1.46875 -0.34375 Z M 1.921875 -0.34375 "/></g></g></g><g fill="#000000" fill-opacity="1"><g transform="translate(367.261413, 457.444361)"><g><path d="M 14.765625 0.484375 C 10.785156 0.484375 7.59375 -0.660156 5.1875 -2.953125 C 2.78125 -5.242188 1.578125 -8.335938 1.578125 -12.234375 C 1.578125 -16.128906 2.78125 -19.21875 5.1875 -21.5 C 7.59375 -23.78125 10.851562 -24.921875 14.96875 -24.921875 C 16.832031 -24.921875 18.632812 -24.738281 20.375 -24.375 C 22.125 -24.019531 23.535156 -23.570312 24.609375 -23.03125 L 24.671875 -17.03125 L 24.359375 -17.03125 C 23.753906 -19.289062 22.71875 -20.925781 21.25 -21.9375 C 19.789062 -22.945312 18.046875 -23.453125 16.015625 -23.453125 C 13.203125 -23.453125 11.039062 -22.445312 9.53125 -20.4375 C 8.019531 -18.425781 7.265625 -15.664062 7.265625 -12.15625 C 7.265625 -8.65625 7.957031 -5.914062 9.34375 -3.9375 C 10.726562 -1.96875 12.6875 -0.984375 15.21875 -0.984375 C 17.0625 -0.984375 18.597656 -1.503906 19.828125 -2.546875 C 20.429688 -3.078125 20.875 -3.707031 21.15625 -4.4375 L 21.15625 -9.78125 C 21.15625 -10.289062 20.992188 -10.675781 20.671875 -10.9375 C 20.359375 -11.207031 19.914062 -11.34375 19.34375 -11.34375 L 18.78125 -11.34375 L 18.78125 -11.6875 L 28.59375 -11.6875 L 28.59375 -11.34375 L 28.0625 -11.34375 C 27.507812 -11.34375 27.078125 -11.207031 26.765625 -10.9375 C 26.460938 -10.675781 26.3125 -10.289062 26.3125 -9.78125 L 26.3125 -4.015625 C 25.40625 -2.828125 23.90625 -1.78125 21.8125 -0.875 C 19.71875 0.03125 17.367188 0.484375 14.765625 0.484375 Z M 14.765625 0.484375 "/></g></g></g><g fill="#000000" fill-opacity="1"><g transform="translate(400.333066, 457.444361)"><g><path d="M 1.921875 -0.34375 C 2.523438 -0.34375 3.039062 -0.554688 3.46875 -0.984375 C 3.90625 -1.421875 4.132812 -1.941406 4.15625 -2.546875 L 4.15625 -21.984375 C 4.101562 -22.585938 3.925781 -23.03125 3.625 -23.3125 C 3.070312 -23.820312 2.503906 -24.078125 1.921875 -24.078125 L 1.46875 -24.078125 L 1.46875 -24.4375 L 14.828125 -24.4375 C 15.972656 -24.4375 16.914062 -24.519531 17.65625 -24.6875 C 18.40625 -24.863281 18.863281 -24.988281 19.03125 -25.0625 L 19.03125 -18.953125 L 18.671875 -18.984375 L 18.671875 -19.375 C 18.671875 -20.8125 18.132812 -21.832031 17.0625 -22.4375 C 16.550781 -22.738281 15.945312 -22.90625 15.25 -22.9375 L 9.390625 -22.9375 L 9.390625 -12.78125 L 14 -12.78125 C 14.851562 -12.800781 15.5625 -13.09375 16.125 -13.65625 C 16.6875 -14.226562 16.96875 -14.9375 16.96875 -15.78125 L 16.96875 -16.09375 L 17.3125 -16.09375 L 17.3125 -8.03125 L 16.96875 -8.03125 L 16.96875 -8.3125 C 16.96875 -9.164062 16.691406 -9.875 16.140625 -10.4375 C 15.597656 -11 14.90625 -11.289062 14.0625 -11.3125 L 9.390625 -11.3125 L 9.390625 -1.5 L 13.96875 -1.5 C 15.664062 -1.5 17.085938 -1.988281 18.234375 -2.96875 C 19.390625 -3.945312 20.242188 -5.332031 20.796875 -7.125 L 21.15625 -7.125 L 19.546875 0 L 1.46875 0 L 1.46875 -0.34375 Z M 1.921875 -0.34375 "/></g></g></g><g fill="#000000" fill-opacity="1"><g transform="translate(426.253944, 457.444361)"><g><path d="M 28.515625 -24.078125 C 27.703125 -24.078125 27.085938 -23.726562 26.671875 -23.03125 C 26.484375 -22.726562 26.378906 -22.378906 26.359375 -21.984375 L 26.359375 -3.984375 C 26.359375 -2.421875 26.460938 -1.101562 26.671875 -0.03125 L 26.765625 0.484375 L 26.453125 0.484375 L 8.828125 -16.296875 L 8.828125 -2.4375 C 8.828125 -1.863281 9.035156 -1.367188 9.453125 -0.953125 C 9.878906 -0.546875 10.378906 -0.34375 10.953125 -0.34375 L 11.625 -0.34375 L 11.625 0 L 1.046875 0 L 1.046875 -0.34375 L 1.671875 -0.34375 C 2.273438 -0.34375 2.785156 -0.546875 3.203125 -0.953125 C 3.628906 -1.367188 3.84375 -1.878906 3.84375 -2.484375 L 3.84375 -20.59375 C 3.84375 -22.125 3.738281 -23.40625 3.53125 -24.4375 L 3.453125 -24.953125 L 3.765625 -24.953125 L 21.390625 -8.171875 L 21.390625 -21.953125 C 21.367188 -22.554688 21.148438 -23.0625 20.734375 -23.46875 C 20.316406 -23.875 19.816406 -24.078125 19.234375 -24.078125 L 18.609375 -24.078125 L 18.609375 -24.4375 L 29.1875 -24.4375 L 29.1875 -24.078125 Z M 28.515625 -24.078125 "/></g></g></g><g fill="#000000" fill-opacity="1"><g transform="translate(460.337165, 457.444361)"><g><path d="M 15.984375 0.46875 C 11.492188 0.457031 7.96875 -0.671875 5.40625 -2.921875 C 2.851562 -5.179688 1.578125 -8.273438 1.578125 -12.203125 C 1.578125 -16.140625 2.84375 -19.242188 5.375 -21.515625 C 7.914062 -23.785156 11.394531 -24.921875 15.8125 -24.921875 C 19.1875 -24.921875 22.082031 -24.289062 24.5 -23.03125 L 24.578125 -17.03125 L 24.296875 -17.03125 C 23.109375 -21.3125 20.394531 -23.453125 16.15625 -23.453125 C 13.414062 -23.453125 11.25 -22.457031 9.65625 -20.46875 C 8.0625 -18.476562 7.265625 -15.757812 7.265625 -12.3125 C 7.265625 -8.875 8.023438 -6.140625 9.546875 -4.109375 C 11.066406 -2.085938 13.132812 -1.046875 15.75 -0.984375 C 18.445312 -0.984375 20.503906 -1.65625 21.921875 -3 C 23.359375 -4.394531 24.359375 -6.789062 24.921875 -10.1875 L 25.203125 -10.1875 L 25.546875 -4.1875 C 23.660156 -1.070312 20.472656 0.476562 15.984375 0.46875 Z M 15.984375 0.46875 "/></g></g></g><g fill="#000000" fill-opacity="1"><g transform="translate(491.455436, 457.444361)"><g><path d="M 1.921875 -0.34375 C 2.523438 -0.34375 3.039062 -0.554688 3.46875 -0.984375 C 3.90625 -1.421875 4.132812 -1.941406 4.15625 -2.546875 L 4.15625 -21.921875 C 4.132812 -22.523438 3.90625 -23.035156 3.46875 -23.453125 C 3.039062 -23.867188 2.523438 -24.078125 1.921875 -24.078125 L 1.46875 -24.078125 L 1.46875 -24.4375 L 12.078125 -24.4375 L 12.046875 -24.078125 L 11.625 -24.078125 C 11.019531 -24.078125 10.492188 -23.867188 10.046875 -23.453125 C 9.609375 -23.035156 9.390625 -22.523438 9.390625 -21.921875 L 9.390625 -2.546875 C 9.390625 -1.941406 9.609375 -1.421875 10.046875 -0.984375 C 10.492188 -0.554688 11.019531 -0.34375 11.625 -0.34375 L 12.046875 -0.34375 L 12.078125 0 L 1.46875 0 L 1.46875 -0.34375 Z M 1.921875 -0.34375 "/></g></g></g><g fill="#000000" fill-opacity="1"><g transform="translate(508.830265, 457.444361)"><g><path d="M 25.75 -0.34375 L 26.078125 -0.34375 L 26.078125 0 L 14.9375 0 L 14.9375 -0.34375 L 15.25 -0.34375 C 15.757812 -0.34375 16.132812 -0.5 16.375 -0.8125 C 16.625 -1.132812 16.75 -1.429688 16.75 -1.703125 C 16.75 -1.984375 16.691406 -2.265625 16.578125 -2.546875 L 14.859375 -6.84375 L 6.703125 -6.84375 L 4.890625 -2.546875 C 4.765625 -2.242188 4.703125 -1.957031 4.703125 -1.6875 C 4.703125 -1.425781 4.832031 -1.132812 5.09375 -0.8125 C 5.351562 -0.5 5.738281 -0.34375 6.25 -0.34375 L 6.53125 -0.34375 L 6.53125 0 L -0.953125 0 L -0.953125 -0.34375 L -0.625 -0.34375 C -0.09375 -0.34375 0.4375 -0.503906 0.96875 -0.828125 C 1.507812 -1.160156 1.953125 -1.648438 2.296875 -2.296875 L 10.359375 -20.5625 C 11.453125 -22.863281 12.035156 -24.382812 12.109375 -25.125 L 12.421875 -25.125 L 22.796875 -2.375 C 23.140625 -1.695312 23.578125 -1.1875 24.109375 -0.84375 C 24.648438 -0.507812 25.195312 -0.34375 25.75 -0.34375 Z M 7.296875 -8.3125 L 14.265625 -8.3125 L 10.890625 -16.890625 Z M 7.296875 -8.3125 "/></g></g></g><g fill="#000000" fill-opacity="1"><g transform="translate(537.716094, 457.444361)"><g/></g></g><g fill="#000000" fill-opacity="1"><g transform="translate(550.34699, 457.444361)"><g><path d="M 25.75 -0.34375 L 26.078125 -0.34375 L 26.078125 0 L 14.9375 0 L 14.9375 -0.34375 L 15.25 -0.34375 C 15.757812 -0.34375 16.132812 -0.5 16.375 -0.8125 C 16.625 -1.132812 16.75 -1.429688 16.75 -1.703125 C 16.75 -1.984375 16.691406 -2.265625 16.578125 -2.546875 L 14.859375 -6.84375 L 6.703125 -6.84375 L 4.890625 -2.546875 C 4.765625 -2.242188 4.703125 -1.957031 4.703125 -1.6875 C 4.703125 -1.425781 4.832031 -1.132812 5.09375 -0.8125 C 5.351562 -0.5 5.738281 -0.34375 6.25 -0.34375 L 6.53125 -0.34375 L 6.53125 0 L -0.953125 0 L -0.953125 -0.34375 L -0.625 -0.34375 C -0.09375 -0.34375 0.4375 -0.503906 0.96875 -0.828125 C 1.507812 -1.160156 1.953125 -1.648438 2.296875 -2.296875 L 10.359375 -20.5625 C 11.453125 -22.863281 12.035156 -24.382812 12.109375 -25.125 L 12.421875 -25.125 L 22.796875 -2.375 C 23.140625 -1.695312 23.578125 -1.1875 24.109375 -0.84375 C 24.648438 -0.507812 25.195312 -0.34375 25.75 -0.34375 Z M 7.296875 -8.3125 L 14.265625 -8.3125 L 10.890625 -16.890625 Z M 7.296875 -8.3125 "/></g></g></g><g fill="#000000" fill-opacity="1"><g transform="translate(579.23282, 457.444361)"><g><path d="M 11.09375 -22.890625 L 9.59375 -22.890625 C 9.550781 -22.890625 9.519531 -22.890625 9.5 -22.890625 L 9.5 -2.546875 C 9.519531 -1.941406 9.742188 -1.421875 10.171875 -0.984375 C 10.609375 -0.554688 11.128906 -0.34375 11.734375 -0.34375 L 12.1875 -0.34375 L 12.1875 0 L 1.578125 0 L 1.578125 -0.34375 L 2.03125 -0.34375 C 2.863281 -0.34375 3.5 -0.707031 3.9375 -1.4375 C 4.125 -1.757812 4.234375 -2.117188 4.265625 -2.515625 L 4.265625 -21.890625 C 4.234375 -22.492188 4.003906 -23.007812 3.578125 -23.4375 C 3.148438 -23.863281 2.632812 -24.078125 2.03125 -24.078125 L 1.578125 -24.078125 L 1.578125 -24.4375 L 13.546875 -24.4375 C 15.796875 -24.4375 17.703125 -23.945312 19.265625 -22.96875 C 20.054688 -22.476562 20.679688 -21.796875 21.140625 -20.921875 C 21.609375 -20.054688 21.84375 -18.914062 21.84375 -17.5 C 21.84375 -16.09375 21.351562 -14.738281 20.375 -13.4375 C 19.40625 -12.132812 17.988281 -11.390625 16.125 -11.203125 C 17.476562 -10.765625 18.664062 -9.742188 19.6875 -8.140625 C 22.195312 -4.109375 24.054688 -1.707031 25.265625 -0.9375 C 25.867188 -0.570312 26.628906 -0.375 27.546875 -0.34375 L 27.546875 0 L 24.125 0 C 22.09375 0 20.40625 -0.265625 19.0625 -0.796875 C 17.726562 -1.335938 16.679688 -2.28125 15.921875 -3.625 C 15.472656 -4.394531 14.503906 -6.382812 13.015625 -9.59375 C 12.367188 -11.019531 11.578125 -11.800781 10.640625 -11.9375 L 10.640625 -12.28125 L 11.734375 -12.28125 C 12.773438 -12.28125 13.695312 -12.59375 14.5 -13.21875 C 15.300781 -13.851562 15.84375 -14.878906 16.125 -16.296875 C 16.21875 -16.785156 16.265625 -17.171875 16.265625 -17.453125 C 16.265625 -19.359375 15.878906 -20.734375 15.109375 -21.578125 C 14.347656 -22.429688 13.359375 -22.867188 12.140625 -22.890625 C 11.910156 -22.890625 11.5625 -22.890625 11.09375 -22.890625 Z M 11.09375 -22.890625 "/></g></g></g><g fill="#000000" fill-opacity="1"><g transform="translate(609.199993, 457.444361)"><g><path d="M 14.28125 -23 L 14.28125 -2.515625 C 14.300781 -1.910156 14.523438 -1.394531 14.953125 -0.96875 C 15.390625 -0.550781 15.910156 -0.34375 16.515625 -0.34375 L 16.921875 -0.34375 L 16.96875 0 L 6.359375 0 L 6.359375 -0.34375 L 6.8125 -0.34375 C 7.382812 -0.34375 7.882812 -0.550781 8.3125 -0.96875 C 8.75 -1.394531 8.992188 -1.898438 9.046875 -2.484375 L 9.046875 -23 L 4.328125 -23 C 3.253906 -22.976562 2.40625 -22.640625 1.78125 -21.984375 C 1.15625 -21.335938 0.84375 -20.488281 0.84375 -19.4375 L 0.84375 -19.03125 L 0.484375 -19.03125 L 0.484375 -25.09375 C 1.441406 -24.695312 2.816406 -24.488281 4.609375 -24.46875 L 18.671875 -24.46875 C 19.390625 -24.46875 20.175781 -24.535156 21.03125 -24.671875 C 21.882812 -24.816406 22.472656 -24.957031 22.796875 -25.09375 L 22.796875 -19.03125 L 22.4375 -19.03125 L 22.4375 -19.4375 C 22.4375 -20.882812 21.890625 -21.910156 20.796875 -22.515625 C 20.285156 -22.816406 19.671875 -22.976562 18.953125 -23 Z M 14.28125 -23 "/></g></g></g><g fill="#000000" fill-opacity="1"><g transform="translate(636.341743, 457.444361)"><g><path d="M 1.921875 -0.34375 C 2.523438 -0.34375 3.039062 -0.554688 3.46875 -0.984375 C 3.90625 -1.421875 4.132812 -1.941406 4.15625 -2.546875 L 4.15625 -21.921875 C 4.132812 -22.523438 3.90625 -23.035156 3.46875 -23.453125 C 3.039062 -23.867188 2.523438 -24.078125 1.921875 -24.078125 L 1.46875 -24.078125 L 1.46875 -24.4375 L 12.078125 -24.4375 L 12.046875 -24.078125 L 11.625 -24.078125 C 11.019531 -24.078125 10.492188 -23.867188 10.046875 -23.453125 C 9.609375 -23.035156 9.390625 -22.523438 9.390625 -21.921875 L 9.390625 -2.546875 C 9.390625 -1.941406 9.609375 -1.421875 10.046875 -0.984375 C 10.492188 -0.554688 11.019531 -0.34375 11.625 -0.34375 L 12.046875 -0.34375 L 12.078125 0 L 1.46875 0 L 1.46875 -0.34375 Z M 1.921875 -0.34375 "/></g></g></g><g fill="#000000" fill-opacity="1"><g transform="translate(653.716547, 457.444361)"><g><path d="M 9.390625 -22.9375 L 9.390625 -12.78125 L 14 -12.78125 C 14.851562 -12.800781 15.5625 -13.085938 16.125 -13.640625 C 16.6875 -14.203125 16.96875 -14.914062 16.96875 -15.78125 L 16.96875 -16.09375 L 17.3125 -16.09375 L 17.3125 -8.03125 L 16.96875 -8.03125 L 16.96875 -8.3125 C 16.96875 -9.164062 16.691406 -9.875 16.140625 -10.4375 C 15.597656 -11 14.90625 -11.289062 14.0625 -11.3125 L 9.390625 -11.3125 L 9.390625 -2.546875 C 9.390625 -1.941406 9.609375 -1.421875 10.046875 -0.984375 C 10.492188 -0.554688 11.019531 -0.34375 11.625 -0.34375 L 12.046875 -0.34375 L 12.078125 0 L 1.46875 0 L 1.46875 -0.34375 L 1.921875 -0.34375 C 2.523438 -0.34375 3.039062 -0.554688 3.46875 -0.984375 C 3.90625 -1.421875 4.132812 -1.941406 4.15625 -2.546875 L 4.15625 -21.984375 C 4.15625 -22.804688 3.769531 -23.414062 3 -23.8125 C 2.675781 -23.988281 2.316406 -24.078125 1.921875 -24.078125 L 1.46875 -24.078125 L 1.46875 -24.4375 L 14.828125 -24.4375 C 15.554688 -24.4375 16.347656 -24.503906 17.203125 -24.640625 C 18.066406 -24.785156 18.675781 -24.925781 19.03125 -25.0625 L 19.03125 -19.15625 L 18.671875 -19.15625 L 18.671875 -19.515625 C 18.671875 -20.535156 18.375 -21.351562 17.78125 -21.96875 C 17.1875 -22.582031 16.378906 -22.90625 15.359375 -22.9375 Z M 9.390625 -22.9375 "/></g></g></g><g fill="#000000" fill-opacity="1"><g transform="translate(678.381653, 457.444361)"><g><path d="M 1.921875 -0.34375 C 2.523438 -0.34375 3.039062 -0.554688 3.46875 -0.984375 C 3.90625 -1.421875 4.132812 -1.941406 4.15625 -2.546875 L 4.15625 -21.921875 C 4.132812 -22.523438 3.90625 -23.035156 3.46875 -23.453125 C 3.039062 -23.867188 2.523438 -24.078125 1.921875 -24.078125 L 1.46875 -24.078125 L 1.46875 -24.4375 L 12.078125 -24.4375 L 12.046875 -24.078125 L 11.625 -24.078125 C 11.019531 -24.078125 10.492188 -23.867188 10.046875 -23.453125 C 9.609375 -23.035156 9.390625 -22.523438 9.390625 -21.921875 L 9.390625 -2.546875 C 9.390625 -1.941406 9.609375 -1.421875 10.046875 -0.984375 C 10.492188 -0.554688 11.019531 -0.34375 11.625 -0.34375 L 12.046875 -0.34375 L 12.078125 0 L 1.46875 0 L 1.46875 -0.34375 Z M 1.921875 -0.34375 "/></g></g></g><g fill="#000000" fill-opacity="1"><g transform="translate(695.756456, 457.444361)"><g><path d="M 15.984375 0.46875 C 11.492188 0.457031 7.96875 -0.671875 5.40625 -2.921875 C 2.851562 -5.179688 1.578125 -8.273438 1.578125 -12.203125 C 1.578125 -16.140625 2.84375 -19.242188 5.375 -21.515625 C 7.914062 -23.785156 11.394531 -24.921875 15.8125 -24.921875 C 19.1875 -24.921875 22.082031 -24.289062 24.5 -23.03125 L 24.578125 -17.03125 L 24.296875 -17.03125 C 23.109375 -21.3125 20.394531 -23.453125 16.15625 -23.453125 C 13.414062 -23.453125 11.25 -22.457031 9.65625 -20.46875 C 8.0625 -18.476562 7.265625 -15.757812 7.265625 -12.3125 C 7.265625 -8.875 8.023438 -6.140625 9.546875 -4.109375 C 11.066406 -2.085938 13.132812 -1.046875 15.75 -0.984375 C 18.445312 -0.984375 20.503906 -1.65625 21.921875 -3 C 23.359375 -4.394531 24.359375 -6.789062 24.921875 -10.1875 L 25.203125 -10.1875 L 25.546875 -4.1875 C 23.660156 -1.070312 20.472656 0.476562 15.984375 0.46875 Z M 15.984375 0.46875 "/></g></g></g><g fill="#000000" fill-opacity="1"><g transform="translate(726.8747, 457.444361)"><g><path d="M 1.921875 -0.34375 C 2.523438 -0.34375 3.039062 -0.554688 3.46875 -0.984375 C 3.90625 -1.421875 4.132812 -1.941406 4.15625 -2.546875 L 4.15625 -21.921875 C 4.132812 -22.523438 3.90625 -23.035156 3.46875 -23.453125 C 3.039062 -23.867188 2.523438 -24.078125 1.921875 -24.078125 L 1.46875 -24.078125 L 1.46875 -24.4375 L 12.078125 -24.4375 L 12.046875 -24.078125 L 11.625 -24.078125 C 11.019531 -24.078125 10.492188 -23.867188 10.046875 -23.453125 C 9.609375 -23.035156 9.390625 -22.523438 9.390625 -21.921875 L 9.390625 -2.546875 C 9.390625 -1.941406 9.609375 -1.421875 10.046875 -0.984375 C 10.492188 -0.554688 11.019531 -0.34375 11.625 -0.34375 L 12.046875 -0.34375 L 12.078125 0 L 1.46875 0 L 1.46875 -0.34375 Z M 1.921875 -0.34375 "/></g></g></g><g fill="#000000" fill-opacity="1"><g transform="translate(744.249504, 457.444361)"><g><path d="M 25.75 -0.34375 L 26.078125 -0.34375 L 26.078125 0 L 14.9375 0 L 14.9375 -0.34375 L 15.25 -0.34375 C 15.757812 -0.34375 16.132812 -0.5 16.375 -0.8125 C 16.625 -1.132812 16.75 -1.429688 16.75 -1.703125 C 16.75 -1.984375 16.691406 -2.265625 16.578125 -2.546875 L 14.859375 -6.84375 L 6.703125 -6.84375 L 4.890625 -2.546875 C 4.765625 -2.242188 4.703125 -1.957031 4.703125 -1.6875 C 4.703125 -1.425781 4.832031 -1.132812 5.09375 -0.8125 C 5.351562 -0.5 5.738281 -0.34375 6.25 -0.34375 L 6.53125 -0.34375 L 6.53125 0 L -0.953125 0 L -0.953125 -0.34375 L -0.625 -0.34375 C -0.09375 -0.34375 0.4375 -0.503906 0.96875 -0.828125 C 1.507812 -1.160156 1.953125 -1.648438 2.296875 -2.296875 L 10.359375 -20.5625 C 11.453125 -22.863281 12.035156 -24.382812 12.109375 -25.125 L 12.421875 -25.125 L 22.796875 -2.375 C 23.140625 -1.695312 23.578125 -1.1875 24.109375 -0.84375 C 24.648438 -0.507812 25.195312 -0.34375 25.75 -0.34375 Z M 7.296875 -8.3125 L 14.265625 -8.3125 L 10.890625 -16.890625 Z M 7.296875 -8.3125 "/></g></g></g><g fill="#000000" fill-opacity="1"><g transform="translate(773.135308, 457.444361)"><g><path d="M 1.921875 -0.34375 C 2.523438 -0.34375 3.039062 -0.554688 3.46875 -0.984375 C 3.90625 -1.421875 4.132812 -1.941406 4.15625 -2.546875 L 4.15625 -21.890625 C 4.132812 -22.492188 3.90625 -23.007812 3.46875 -23.4375 C 3.039062 -23.863281 2.523438 -24.078125 1.921875 -24.078125 L 1.46875 -24.078125 L 1.46875 -24.4375 L 12.078125 -24.4375 L 12.046875 -24.078125 L 11.625 -24.078125 C 11.019531 -24.078125 10.492188 -23.863281 10.046875 -23.4375 C 9.609375 -23.007812 9.390625 -22.492188 9.390625 -21.890625 L 9.390625 -1.5 L 13.96875 -1.5 C 15.664062 -1.5 17.085938 -1.988281 18.234375 -2.96875 C 19.390625 -3.945312 20.242188 -5.332031 20.796875 -7.125 L 21.15625 -7.125 L 19.546875 0 L 1.46875 0 L 1.46875 -0.34375 Z M 1.921875 -0.34375 "/></g></g></g></svg>